G75*
%MOIN*%
%OFA0B0*%
%FSLAX25Y25*%
%IPPOS*%
%LPD*%
%AMOC8*
5,1,8,0,0,1.08239X$1,22.5*
%
%ADD10C,0.00000*%
%ADD11C,0.00400*%
%ADD12C,0.05906*%
%ADD13C,0.01000*%
%ADD14C,0.04000*%
%ADD15C,0.02400*%
%ADD16C,0.06000*%
D10*
X0511905Y0330941D02*
X0511913Y0330941D01*
X0581433Y0326787D02*
X0581433Y0504799D01*
X0581436Y0505037D01*
X0581444Y0505275D01*
X0581459Y0505512D01*
X0581479Y0505749D01*
X0581505Y0505985D01*
X0581536Y0506221D01*
X0581573Y0506456D01*
X0581616Y0506690D01*
X0581665Y0506923D01*
X0581719Y0507155D01*
X0581779Y0507385D01*
X0581844Y0507614D01*
X0581915Y0507841D01*
X0581991Y0508066D01*
X0582073Y0508289D01*
X0582160Y0508511D01*
X0582252Y0508730D01*
X0582350Y0508947D01*
X0582452Y0509161D01*
X0582560Y0509373D01*
X0582674Y0509583D01*
X0582792Y0509789D01*
X0582915Y0509993D01*
X0583043Y0510193D01*
X0583175Y0510390D01*
X0583313Y0510585D01*
X0583455Y0510775D01*
X0583602Y0510963D01*
X0583753Y0511146D01*
X0583908Y0511326D01*
X0584068Y0511502D01*
X0584232Y0511674D01*
X0584401Y0511843D01*
X0584573Y0512007D01*
X0584749Y0512167D01*
X0584929Y0512322D01*
X0585112Y0512473D01*
X0585300Y0512620D01*
X0585490Y0512762D01*
X0585685Y0512900D01*
X0585882Y0513032D01*
X0586082Y0513160D01*
X0586286Y0513283D01*
X0586492Y0513401D01*
X0586702Y0513515D01*
X0586914Y0513623D01*
X0587128Y0513725D01*
X0587345Y0513823D01*
X0587564Y0513915D01*
X0587786Y0514002D01*
X0588009Y0514084D01*
X0588234Y0514160D01*
X0588461Y0514231D01*
X0588690Y0514296D01*
X0588920Y0514356D01*
X0589152Y0514410D01*
X0589385Y0514459D01*
X0589619Y0514502D01*
X0589854Y0514539D01*
X0590090Y0514570D01*
X0590326Y0514596D01*
X0590563Y0514616D01*
X0590800Y0514631D01*
X0591038Y0514639D01*
X0591276Y0514642D01*
X0592850Y0514642D01*
X0592850Y0514657D02*
X0608008Y0514657D01*
X0608095Y0514659D01*
X0608182Y0514665D01*
X0608269Y0514674D01*
X0608355Y0514688D01*
X0608440Y0514705D01*
X0608525Y0514726D01*
X0608608Y0514751D01*
X0608691Y0514779D01*
X0608772Y0514811D01*
X0608851Y0514847D01*
X0608929Y0514886D01*
X0609005Y0514928D01*
X0609079Y0514974D01*
X0609151Y0515023D01*
X0609221Y0515075D01*
X0609288Y0515130D01*
X0609353Y0515188D01*
X0609416Y0515249D01*
X0609475Y0515313D01*
X0609532Y0515379D01*
X0609585Y0515448D01*
X0609636Y0515519D01*
X0609683Y0515592D01*
X0609728Y0515667D01*
X0609768Y0515744D01*
X0609806Y0515822D01*
X0609839Y0515903D01*
X0609870Y0515984D01*
X0609896Y0516067D01*
X0609919Y0516152D01*
X0609938Y0516237D01*
X0609953Y0516322D01*
X0609965Y0516409D01*
X0609973Y0516495D01*
X0609977Y0516582D01*
X0609977Y0516670D01*
X0609973Y0516757D01*
X0609965Y0516843D01*
X0609953Y0516930D01*
X0609938Y0517015D01*
X0609919Y0517100D01*
X0609896Y0517185D01*
X0609870Y0517268D01*
X0609839Y0517349D01*
X0609806Y0517430D01*
X0609768Y0517508D01*
X0609728Y0517585D01*
X0609683Y0517660D01*
X0609636Y0517733D01*
X0609585Y0517804D01*
X0609532Y0517873D01*
X0609475Y0517939D01*
X0609416Y0518003D01*
X0609353Y0518064D01*
X0609288Y0518122D01*
X0609221Y0518177D01*
X0609151Y0518229D01*
X0609079Y0518278D01*
X0609005Y0518324D01*
X0608929Y0518366D01*
X0608851Y0518405D01*
X0608772Y0518441D01*
X0608691Y0518473D01*
X0608608Y0518501D01*
X0608525Y0518526D01*
X0608440Y0518547D01*
X0608355Y0518564D01*
X0608269Y0518578D01*
X0608182Y0518587D01*
X0608095Y0518593D01*
X0608008Y0518595D01*
X0608008Y0518594D02*
X0607811Y0518594D01*
X0607811Y0531980D01*
X0658205Y0531980D01*
X0658205Y0518594D01*
X0658008Y0518594D01*
X0658008Y0518595D02*
X0657921Y0518593D01*
X0657834Y0518587D01*
X0657747Y0518578D01*
X0657661Y0518564D01*
X0657576Y0518547D01*
X0657491Y0518526D01*
X0657408Y0518501D01*
X0657325Y0518473D01*
X0657244Y0518441D01*
X0657165Y0518405D01*
X0657087Y0518366D01*
X0657011Y0518324D01*
X0656937Y0518278D01*
X0656865Y0518229D01*
X0656795Y0518177D01*
X0656728Y0518122D01*
X0656663Y0518064D01*
X0656600Y0518003D01*
X0656541Y0517939D01*
X0656484Y0517873D01*
X0656431Y0517804D01*
X0656380Y0517733D01*
X0656333Y0517660D01*
X0656288Y0517585D01*
X0656248Y0517508D01*
X0656210Y0517430D01*
X0656177Y0517349D01*
X0656146Y0517268D01*
X0656120Y0517185D01*
X0656097Y0517100D01*
X0656078Y0517015D01*
X0656063Y0516930D01*
X0656051Y0516843D01*
X0656043Y0516757D01*
X0656039Y0516670D01*
X0656039Y0516582D01*
X0656043Y0516495D01*
X0656051Y0516409D01*
X0656063Y0516322D01*
X0656078Y0516237D01*
X0656097Y0516152D01*
X0656120Y0516067D01*
X0656146Y0515984D01*
X0656177Y0515903D01*
X0656210Y0515822D01*
X0656248Y0515744D01*
X0656288Y0515667D01*
X0656333Y0515592D01*
X0656380Y0515519D01*
X0656431Y0515448D01*
X0656484Y0515379D01*
X0656541Y0515313D01*
X0656600Y0515249D01*
X0656663Y0515188D01*
X0656728Y0515130D01*
X0656795Y0515075D01*
X0656865Y0515023D01*
X0656937Y0514974D01*
X0657011Y0514928D01*
X0657087Y0514886D01*
X0657165Y0514847D01*
X0657244Y0514811D01*
X0657325Y0514779D01*
X0657408Y0514751D01*
X0657491Y0514726D01*
X0657576Y0514705D01*
X0657661Y0514688D01*
X0657747Y0514674D01*
X0657834Y0514665D01*
X0657921Y0514659D01*
X0658008Y0514657D01*
X0673165Y0514657D01*
X0673165Y0514642D02*
X0674740Y0514642D01*
X0674978Y0514639D01*
X0675216Y0514631D01*
X0675453Y0514616D01*
X0675690Y0514596D01*
X0675926Y0514570D01*
X0676162Y0514539D01*
X0676397Y0514502D01*
X0676631Y0514459D01*
X0676864Y0514410D01*
X0677096Y0514356D01*
X0677326Y0514296D01*
X0677555Y0514231D01*
X0677782Y0514160D01*
X0678007Y0514084D01*
X0678230Y0514002D01*
X0678452Y0513915D01*
X0678671Y0513823D01*
X0678888Y0513725D01*
X0679102Y0513623D01*
X0679314Y0513515D01*
X0679524Y0513401D01*
X0679730Y0513283D01*
X0679934Y0513160D01*
X0680134Y0513032D01*
X0680331Y0512900D01*
X0680526Y0512762D01*
X0680716Y0512620D01*
X0680904Y0512473D01*
X0681087Y0512322D01*
X0681267Y0512167D01*
X0681443Y0512007D01*
X0681615Y0511843D01*
X0681784Y0511674D01*
X0681948Y0511502D01*
X0682108Y0511326D01*
X0682263Y0511146D01*
X0682414Y0510963D01*
X0682561Y0510775D01*
X0682703Y0510585D01*
X0682841Y0510390D01*
X0682973Y0510193D01*
X0683101Y0509993D01*
X0683224Y0509789D01*
X0683342Y0509583D01*
X0683456Y0509373D01*
X0683564Y0509161D01*
X0683666Y0508947D01*
X0683764Y0508730D01*
X0683856Y0508511D01*
X0683943Y0508289D01*
X0684025Y0508066D01*
X0684101Y0507841D01*
X0684172Y0507614D01*
X0684237Y0507385D01*
X0684297Y0507155D01*
X0684351Y0506923D01*
X0684400Y0506690D01*
X0684443Y0506456D01*
X0684480Y0506221D01*
X0684511Y0505985D01*
X0684537Y0505749D01*
X0684557Y0505512D01*
X0684572Y0505275D01*
X0684580Y0505037D01*
X0684583Y0504799D01*
X0684583Y0326787D01*
X0684580Y0326549D01*
X0684572Y0326311D01*
X0684557Y0326074D01*
X0684537Y0325837D01*
X0684511Y0325601D01*
X0684480Y0325365D01*
X0684443Y0325130D01*
X0684400Y0324896D01*
X0684351Y0324663D01*
X0684297Y0324431D01*
X0684237Y0324201D01*
X0684172Y0323972D01*
X0684101Y0323745D01*
X0684025Y0323520D01*
X0683943Y0323297D01*
X0683856Y0323075D01*
X0683764Y0322856D01*
X0683666Y0322639D01*
X0683564Y0322425D01*
X0683456Y0322213D01*
X0683342Y0322003D01*
X0683224Y0321797D01*
X0683101Y0321593D01*
X0682973Y0321393D01*
X0682841Y0321196D01*
X0682703Y0321001D01*
X0682561Y0320811D01*
X0682414Y0320623D01*
X0682263Y0320440D01*
X0682108Y0320260D01*
X0681948Y0320084D01*
X0681784Y0319912D01*
X0681615Y0319743D01*
X0681443Y0319579D01*
X0681267Y0319419D01*
X0681087Y0319264D01*
X0680904Y0319113D01*
X0680716Y0318966D01*
X0680526Y0318824D01*
X0680331Y0318686D01*
X0680134Y0318554D01*
X0679934Y0318426D01*
X0679730Y0318303D01*
X0679524Y0318185D01*
X0679314Y0318071D01*
X0679102Y0317963D01*
X0678888Y0317861D01*
X0678671Y0317763D01*
X0678452Y0317671D01*
X0678230Y0317584D01*
X0678007Y0317502D01*
X0677782Y0317426D01*
X0677555Y0317355D01*
X0677326Y0317290D01*
X0677096Y0317230D01*
X0676864Y0317176D01*
X0676631Y0317127D01*
X0676397Y0317084D01*
X0676162Y0317047D01*
X0675926Y0317016D01*
X0675690Y0316990D01*
X0675453Y0316970D01*
X0675216Y0316955D01*
X0674978Y0316947D01*
X0674740Y0316944D01*
X0674740Y0316945D02*
X0673165Y0316945D01*
X0658008Y0316945D01*
X0657921Y0316943D01*
X0657834Y0316937D01*
X0657747Y0316928D01*
X0657661Y0316914D01*
X0657576Y0316897D01*
X0657491Y0316876D01*
X0657408Y0316851D01*
X0657325Y0316823D01*
X0657244Y0316791D01*
X0657165Y0316755D01*
X0657087Y0316716D01*
X0657011Y0316674D01*
X0656937Y0316628D01*
X0656865Y0316579D01*
X0656795Y0316527D01*
X0656728Y0316472D01*
X0656663Y0316414D01*
X0656600Y0316353D01*
X0656541Y0316289D01*
X0656484Y0316223D01*
X0656431Y0316154D01*
X0656380Y0316083D01*
X0656333Y0316010D01*
X0656288Y0315935D01*
X0656248Y0315858D01*
X0656210Y0315780D01*
X0656177Y0315699D01*
X0656146Y0315618D01*
X0656120Y0315535D01*
X0656097Y0315450D01*
X0656078Y0315365D01*
X0656063Y0315280D01*
X0656051Y0315193D01*
X0656043Y0315107D01*
X0656039Y0315020D01*
X0656039Y0314932D01*
X0656043Y0314845D01*
X0656051Y0314759D01*
X0656063Y0314672D01*
X0656078Y0314587D01*
X0656097Y0314502D01*
X0656120Y0314417D01*
X0656146Y0314334D01*
X0656177Y0314253D01*
X0656210Y0314172D01*
X0656248Y0314094D01*
X0656288Y0314017D01*
X0656333Y0313942D01*
X0656380Y0313869D01*
X0656431Y0313798D01*
X0656484Y0313729D01*
X0656541Y0313663D01*
X0656600Y0313599D01*
X0656663Y0313538D01*
X0656728Y0313480D01*
X0656795Y0313425D01*
X0656865Y0313373D01*
X0656937Y0313324D01*
X0657011Y0313278D01*
X0657087Y0313236D01*
X0657165Y0313197D01*
X0657244Y0313161D01*
X0657325Y0313129D01*
X0657408Y0313101D01*
X0657491Y0313076D01*
X0657576Y0313055D01*
X0657661Y0313038D01*
X0657747Y0313024D01*
X0657834Y0313015D01*
X0657921Y0313009D01*
X0658008Y0313007D01*
X0658008Y0313008D02*
X0658205Y0313008D01*
X0658205Y0299622D01*
X0607811Y0299622D01*
X0607811Y0313008D01*
X0608008Y0313008D01*
X0608008Y0313007D02*
X0608095Y0313009D01*
X0608182Y0313015D01*
X0608269Y0313024D01*
X0608355Y0313038D01*
X0608440Y0313055D01*
X0608525Y0313076D01*
X0608608Y0313101D01*
X0608691Y0313129D01*
X0608772Y0313161D01*
X0608851Y0313197D01*
X0608929Y0313236D01*
X0609005Y0313278D01*
X0609079Y0313324D01*
X0609151Y0313373D01*
X0609221Y0313425D01*
X0609288Y0313480D01*
X0609353Y0313538D01*
X0609416Y0313599D01*
X0609475Y0313663D01*
X0609532Y0313729D01*
X0609585Y0313798D01*
X0609636Y0313869D01*
X0609683Y0313942D01*
X0609728Y0314017D01*
X0609768Y0314094D01*
X0609806Y0314172D01*
X0609839Y0314253D01*
X0609870Y0314334D01*
X0609896Y0314417D01*
X0609919Y0314502D01*
X0609938Y0314587D01*
X0609953Y0314672D01*
X0609965Y0314759D01*
X0609973Y0314845D01*
X0609977Y0314932D01*
X0609977Y0315020D01*
X0609973Y0315107D01*
X0609965Y0315193D01*
X0609953Y0315280D01*
X0609938Y0315365D01*
X0609919Y0315450D01*
X0609896Y0315535D01*
X0609870Y0315618D01*
X0609839Y0315699D01*
X0609806Y0315780D01*
X0609768Y0315858D01*
X0609728Y0315935D01*
X0609683Y0316010D01*
X0609636Y0316083D01*
X0609585Y0316154D01*
X0609532Y0316223D01*
X0609475Y0316289D01*
X0609416Y0316353D01*
X0609353Y0316414D01*
X0609288Y0316472D01*
X0609221Y0316527D01*
X0609151Y0316579D01*
X0609079Y0316628D01*
X0609005Y0316674D01*
X0608929Y0316716D01*
X0608851Y0316755D01*
X0608772Y0316791D01*
X0608691Y0316823D01*
X0608608Y0316851D01*
X0608525Y0316876D01*
X0608440Y0316897D01*
X0608355Y0316914D01*
X0608269Y0316928D01*
X0608182Y0316937D01*
X0608095Y0316943D01*
X0608008Y0316945D01*
X0592850Y0316945D01*
X0591276Y0316945D01*
X0591276Y0316944D02*
X0591038Y0316947D01*
X0590800Y0316955D01*
X0590563Y0316970D01*
X0590326Y0316990D01*
X0590090Y0317016D01*
X0589854Y0317047D01*
X0589619Y0317084D01*
X0589385Y0317127D01*
X0589152Y0317176D01*
X0588920Y0317230D01*
X0588690Y0317290D01*
X0588461Y0317355D01*
X0588234Y0317426D01*
X0588009Y0317502D01*
X0587786Y0317584D01*
X0587564Y0317671D01*
X0587345Y0317763D01*
X0587128Y0317861D01*
X0586914Y0317963D01*
X0586702Y0318071D01*
X0586492Y0318185D01*
X0586286Y0318303D01*
X0586082Y0318426D01*
X0585882Y0318554D01*
X0585685Y0318686D01*
X0585490Y0318824D01*
X0585300Y0318966D01*
X0585112Y0319113D01*
X0584929Y0319264D01*
X0584749Y0319419D01*
X0584573Y0319579D01*
X0584401Y0319743D01*
X0584232Y0319912D01*
X0584068Y0320084D01*
X0583908Y0320260D01*
X0583753Y0320440D01*
X0583602Y0320623D01*
X0583455Y0320811D01*
X0583313Y0321001D01*
X0583175Y0321196D01*
X0583043Y0321393D01*
X0582915Y0321593D01*
X0582792Y0321797D01*
X0582674Y0322003D01*
X0582560Y0322213D01*
X0582452Y0322425D01*
X0582350Y0322639D01*
X0582252Y0322856D01*
X0582160Y0323075D01*
X0582073Y0323297D01*
X0581991Y0323520D01*
X0581915Y0323745D01*
X0581844Y0323972D01*
X0581779Y0324201D01*
X0581719Y0324431D01*
X0581665Y0324663D01*
X0581616Y0324896D01*
X0581573Y0325130D01*
X0581536Y0325365D01*
X0581505Y0325601D01*
X0581479Y0325837D01*
X0581459Y0326074D01*
X0581444Y0326311D01*
X0581436Y0326549D01*
X0581433Y0326787D01*
X0611275Y0309071D02*
X0611277Y0309176D01*
X0611283Y0309281D01*
X0611293Y0309385D01*
X0611307Y0309489D01*
X0611325Y0309593D01*
X0611347Y0309695D01*
X0611372Y0309797D01*
X0611402Y0309898D01*
X0611435Y0309997D01*
X0611472Y0310095D01*
X0611513Y0310192D01*
X0611558Y0310287D01*
X0611606Y0310380D01*
X0611657Y0310472D01*
X0611713Y0310561D01*
X0611771Y0310648D01*
X0611833Y0310733D01*
X0611897Y0310816D01*
X0611965Y0310896D01*
X0612036Y0310973D01*
X0612110Y0311047D01*
X0612187Y0311119D01*
X0612266Y0311188D01*
X0612348Y0311253D01*
X0612432Y0311316D01*
X0612519Y0311375D01*
X0612608Y0311431D01*
X0612699Y0311484D01*
X0612792Y0311533D01*
X0612886Y0311578D01*
X0612982Y0311620D01*
X0613080Y0311658D01*
X0613179Y0311692D01*
X0613280Y0311723D01*
X0613381Y0311749D01*
X0613484Y0311772D01*
X0613587Y0311791D01*
X0613691Y0311806D01*
X0613795Y0311817D01*
X0613900Y0311824D01*
X0614005Y0311827D01*
X0614110Y0311826D01*
X0614215Y0311821D01*
X0614319Y0311812D01*
X0614423Y0311799D01*
X0614527Y0311782D01*
X0614630Y0311761D01*
X0614732Y0311736D01*
X0614833Y0311708D01*
X0614932Y0311675D01*
X0615031Y0311639D01*
X0615128Y0311599D01*
X0615223Y0311556D01*
X0615317Y0311508D01*
X0615409Y0311458D01*
X0615499Y0311404D01*
X0615587Y0311346D01*
X0615672Y0311285D01*
X0615755Y0311221D01*
X0615836Y0311154D01*
X0615914Y0311084D01*
X0615989Y0311010D01*
X0616061Y0310935D01*
X0616131Y0310856D01*
X0616197Y0310775D01*
X0616261Y0310691D01*
X0616321Y0310605D01*
X0616377Y0310517D01*
X0616431Y0310426D01*
X0616481Y0310334D01*
X0616527Y0310240D01*
X0616570Y0310144D01*
X0616609Y0310046D01*
X0616644Y0309948D01*
X0616675Y0309847D01*
X0616703Y0309746D01*
X0616727Y0309644D01*
X0616747Y0309541D01*
X0616763Y0309437D01*
X0616775Y0309333D01*
X0616783Y0309228D01*
X0616787Y0309123D01*
X0616787Y0309019D01*
X0616783Y0308914D01*
X0616775Y0308809D01*
X0616763Y0308705D01*
X0616747Y0308601D01*
X0616727Y0308498D01*
X0616703Y0308396D01*
X0616675Y0308295D01*
X0616644Y0308194D01*
X0616609Y0308096D01*
X0616570Y0307998D01*
X0616527Y0307902D01*
X0616481Y0307808D01*
X0616431Y0307716D01*
X0616377Y0307625D01*
X0616321Y0307537D01*
X0616261Y0307451D01*
X0616197Y0307367D01*
X0616131Y0307286D01*
X0616061Y0307207D01*
X0615989Y0307132D01*
X0615914Y0307058D01*
X0615836Y0306988D01*
X0615755Y0306921D01*
X0615672Y0306857D01*
X0615587Y0306796D01*
X0615499Y0306738D01*
X0615409Y0306684D01*
X0615317Y0306634D01*
X0615223Y0306586D01*
X0615128Y0306543D01*
X0615031Y0306503D01*
X0614932Y0306467D01*
X0614833Y0306434D01*
X0614732Y0306406D01*
X0614630Y0306381D01*
X0614527Y0306360D01*
X0614423Y0306343D01*
X0614319Y0306330D01*
X0614215Y0306321D01*
X0614110Y0306316D01*
X0614005Y0306315D01*
X0613900Y0306318D01*
X0613795Y0306325D01*
X0613691Y0306336D01*
X0613587Y0306351D01*
X0613484Y0306370D01*
X0613381Y0306393D01*
X0613280Y0306419D01*
X0613179Y0306450D01*
X0613080Y0306484D01*
X0612982Y0306522D01*
X0612886Y0306564D01*
X0612792Y0306609D01*
X0612699Y0306658D01*
X0612608Y0306711D01*
X0612519Y0306767D01*
X0612432Y0306826D01*
X0612348Y0306889D01*
X0612266Y0306954D01*
X0612187Y0307023D01*
X0612110Y0307095D01*
X0612036Y0307169D01*
X0611965Y0307246D01*
X0611897Y0307326D01*
X0611833Y0307409D01*
X0611771Y0307494D01*
X0611713Y0307581D01*
X0611657Y0307670D01*
X0611606Y0307762D01*
X0611558Y0307855D01*
X0611513Y0307950D01*
X0611472Y0308047D01*
X0611435Y0308145D01*
X0611402Y0308244D01*
X0611372Y0308345D01*
X0611347Y0308447D01*
X0611325Y0308549D01*
X0611307Y0308653D01*
X0611293Y0308757D01*
X0611283Y0308861D01*
X0611277Y0308966D01*
X0611275Y0309071D01*
X0649228Y0309071D02*
X0649230Y0309176D01*
X0649236Y0309281D01*
X0649246Y0309385D01*
X0649260Y0309489D01*
X0649278Y0309593D01*
X0649300Y0309695D01*
X0649325Y0309797D01*
X0649355Y0309898D01*
X0649388Y0309997D01*
X0649425Y0310095D01*
X0649466Y0310192D01*
X0649511Y0310287D01*
X0649559Y0310380D01*
X0649610Y0310472D01*
X0649666Y0310561D01*
X0649724Y0310648D01*
X0649786Y0310733D01*
X0649850Y0310816D01*
X0649918Y0310896D01*
X0649989Y0310973D01*
X0650063Y0311047D01*
X0650140Y0311119D01*
X0650219Y0311188D01*
X0650301Y0311253D01*
X0650385Y0311316D01*
X0650472Y0311375D01*
X0650561Y0311431D01*
X0650652Y0311484D01*
X0650745Y0311533D01*
X0650839Y0311578D01*
X0650935Y0311620D01*
X0651033Y0311658D01*
X0651132Y0311692D01*
X0651233Y0311723D01*
X0651334Y0311749D01*
X0651437Y0311772D01*
X0651540Y0311791D01*
X0651644Y0311806D01*
X0651748Y0311817D01*
X0651853Y0311824D01*
X0651958Y0311827D01*
X0652063Y0311826D01*
X0652168Y0311821D01*
X0652272Y0311812D01*
X0652376Y0311799D01*
X0652480Y0311782D01*
X0652583Y0311761D01*
X0652685Y0311736D01*
X0652786Y0311708D01*
X0652885Y0311675D01*
X0652984Y0311639D01*
X0653081Y0311599D01*
X0653176Y0311556D01*
X0653270Y0311508D01*
X0653362Y0311458D01*
X0653452Y0311404D01*
X0653540Y0311346D01*
X0653625Y0311285D01*
X0653708Y0311221D01*
X0653789Y0311154D01*
X0653867Y0311084D01*
X0653942Y0311010D01*
X0654014Y0310935D01*
X0654084Y0310856D01*
X0654150Y0310775D01*
X0654214Y0310691D01*
X0654274Y0310605D01*
X0654330Y0310517D01*
X0654384Y0310426D01*
X0654434Y0310334D01*
X0654480Y0310240D01*
X0654523Y0310144D01*
X0654562Y0310046D01*
X0654597Y0309948D01*
X0654628Y0309847D01*
X0654656Y0309746D01*
X0654680Y0309644D01*
X0654700Y0309541D01*
X0654716Y0309437D01*
X0654728Y0309333D01*
X0654736Y0309228D01*
X0654740Y0309123D01*
X0654740Y0309019D01*
X0654736Y0308914D01*
X0654728Y0308809D01*
X0654716Y0308705D01*
X0654700Y0308601D01*
X0654680Y0308498D01*
X0654656Y0308396D01*
X0654628Y0308295D01*
X0654597Y0308194D01*
X0654562Y0308096D01*
X0654523Y0307998D01*
X0654480Y0307902D01*
X0654434Y0307808D01*
X0654384Y0307716D01*
X0654330Y0307625D01*
X0654274Y0307537D01*
X0654214Y0307451D01*
X0654150Y0307367D01*
X0654084Y0307286D01*
X0654014Y0307207D01*
X0653942Y0307132D01*
X0653867Y0307058D01*
X0653789Y0306988D01*
X0653708Y0306921D01*
X0653625Y0306857D01*
X0653540Y0306796D01*
X0653452Y0306738D01*
X0653362Y0306684D01*
X0653270Y0306634D01*
X0653176Y0306586D01*
X0653081Y0306543D01*
X0652984Y0306503D01*
X0652885Y0306467D01*
X0652786Y0306434D01*
X0652685Y0306406D01*
X0652583Y0306381D01*
X0652480Y0306360D01*
X0652376Y0306343D01*
X0652272Y0306330D01*
X0652168Y0306321D01*
X0652063Y0306316D01*
X0651958Y0306315D01*
X0651853Y0306318D01*
X0651748Y0306325D01*
X0651644Y0306336D01*
X0651540Y0306351D01*
X0651437Y0306370D01*
X0651334Y0306393D01*
X0651233Y0306419D01*
X0651132Y0306450D01*
X0651033Y0306484D01*
X0650935Y0306522D01*
X0650839Y0306564D01*
X0650745Y0306609D01*
X0650652Y0306658D01*
X0650561Y0306711D01*
X0650472Y0306767D01*
X0650385Y0306826D01*
X0650301Y0306889D01*
X0650219Y0306954D01*
X0650140Y0307023D01*
X0650063Y0307095D01*
X0649989Y0307169D01*
X0649918Y0307246D01*
X0649850Y0307326D01*
X0649786Y0307409D01*
X0649724Y0307494D01*
X0649666Y0307581D01*
X0649610Y0307670D01*
X0649559Y0307762D01*
X0649511Y0307855D01*
X0649466Y0307950D01*
X0649425Y0308047D01*
X0649388Y0308145D01*
X0649355Y0308244D01*
X0649325Y0308345D01*
X0649300Y0308447D01*
X0649278Y0308549D01*
X0649260Y0308653D01*
X0649246Y0308757D01*
X0649236Y0308861D01*
X0649230Y0308966D01*
X0649228Y0309071D01*
X0649228Y0522531D02*
X0649230Y0522636D01*
X0649236Y0522741D01*
X0649246Y0522845D01*
X0649260Y0522949D01*
X0649278Y0523053D01*
X0649300Y0523155D01*
X0649325Y0523257D01*
X0649355Y0523358D01*
X0649388Y0523457D01*
X0649425Y0523555D01*
X0649466Y0523652D01*
X0649511Y0523747D01*
X0649559Y0523840D01*
X0649610Y0523932D01*
X0649666Y0524021D01*
X0649724Y0524108D01*
X0649786Y0524193D01*
X0649850Y0524276D01*
X0649918Y0524356D01*
X0649989Y0524433D01*
X0650063Y0524507D01*
X0650140Y0524579D01*
X0650219Y0524648D01*
X0650301Y0524713D01*
X0650385Y0524776D01*
X0650472Y0524835D01*
X0650561Y0524891D01*
X0650652Y0524944D01*
X0650745Y0524993D01*
X0650839Y0525038D01*
X0650935Y0525080D01*
X0651033Y0525118D01*
X0651132Y0525152D01*
X0651233Y0525183D01*
X0651334Y0525209D01*
X0651437Y0525232D01*
X0651540Y0525251D01*
X0651644Y0525266D01*
X0651748Y0525277D01*
X0651853Y0525284D01*
X0651958Y0525287D01*
X0652063Y0525286D01*
X0652168Y0525281D01*
X0652272Y0525272D01*
X0652376Y0525259D01*
X0652480Y0525242D01*
X0652583Y0525221D01*
X0652685Y0525196D01*
X0652786Y0525168D01*
X0652885Y0525135D01*
X0652984Y0525099D01*
X0653081Y0525059D01*
X0653176Y0525016D01*
X0653270Y0524968D01*
X0653362Y0524918D01*
X0653452Y0524864D01*
X0653540Y0524806D01*
X0653625Y0524745D01*
X0653708Y0524681D01*
X0653789Y0524614D01*
X0653867Y0524544D01*
X0653942Y0524470D01*
X0654014Y0524395D01*
X0654084Y0524316D01*
X0654150Y0524235D01*
X0654214Y0524151D01*
X0654274Y0524065D01*
X0654330Y0523977D01*
X0654384Y0523886D01*
X0654434Y0523794D01*
X0654480Y0523700D01*
X0654523Y0523604D01*
X0654562Y0523506D01*
X0654597Y0523408D01*
X0654628Y0523307D01*
X0654656Y0523206D01*
X0654680Y0523104D01*
X0654700Y0523001D01*
X0654716Y0522897D01*
X0654728Y0522793D01*
X0654736Y0522688D01*
X0654740Y0522583D01*
X0654740Y0522479D01*
X0654736Y0522374D01*
X0654728Y0522269D01*
X0654716Y0522165D01*
X0654700Y0522061D01*
X0654680Y0521958D01*
X0654656Y0521856D01*
X0654628Y0521755D01*
X0654597Y0521654D01*
X0654562Y0521556D01*
X0654523Y0521458D01*
X0654480Y0521362D01*
X0654434Y0521268D01*
X0654384Y0521176D01*
X0654330Y0521085D01*
X0654274Y0520997D01*
X0654214Y0520911D01*
X0654150Y0520827D01*
X0654084Y0520746D01*
X0654014Y0520667D01*
X0653942Y0520592D01*
X0653867Y0520518D01*
X0653789Y0520448D01*
X0653708Y0520381D01*
X0653625Y0520317D01*
X0653540Y0520256D01*
X0653452Y0520198D01*
X0653362Y0520144D01*
X0653270Y0520094D01*
X0653176Y0520046D01*
X0653081Y0520003D01*
X0652984Y0519963D01*
X0652885Y0519927D01*
X0652786Y0519894D01*
X0652685Y0519866D01*
X0652583Y0519841D01*
X0652480Y0519820D01*
X0652376Y0519803D01*
X0652272Y0519790D01*
X0652168Y0519781D01*
X0652063Y0519776D01*
X0651958Y0519775D01*
X0651853Y0519778D01*
X0651748Y0519785D01*
X0651644Y0519796D01*
X0651540Y0519811D01*
X0651437Y0519830D01*
X0651334Y0519853D01*
X0651233Y0519879D01*
X0651132Y0519910D01*
X0651033Y0519944D01*
X0650935Y0519982D01*
X0650839Y0520024D01*
X0650745Y0520069D01*
X0650652Y0520118D01*
X0650561Y0520171D01*
X0650472Y0520227D01*
X0650385Y0520286D01*
X0650301Y0520349D01*
X0650219Y0520414D01*
X0650140Y0520483D01*
X0650063Y0520555D01*
X0649989Y0520629D01*
X0649918Y0520706D01*
X0649850Y0520786D01*
X0649786Y0520869D01*
X0649724Y0520954D01*
X0649666Y0521041D01*
X0649610Y0521130D01*
X0649559Y0521222D01*
X0649511Y0521315D01*
X0649466Y0521410D01*
X0649425Y0521507D01*
X0649388Y0521605D01*
X0649355Y0521704D01*
X0649325Y0521805D01*
X0649300Y0521907D01*
X0649278Y0522009D01*
X0649260Y0522113D01*
X0649246Y0522217D01*
X0649236Y0522321D01*
X0649230Y0522426D01*
X0649228Y0522531D01*
X0611275Y0522531D02*
X0611277Y0522636D01*
X0611283Y0522741D01*
X0611293Y0522845D01*
X0611307Y0522949D01*
X0611325Y0523053D01*
X0611347Y0523155D01*
X0611372Y0523257D01*
X0611402Y0523358D01*
X0611435Y0523457D01*
X0611472Y0523555D01*
X0611513Y0523652D01*
X0611558Y0523747D01*
X0611606Y0523840D01*
X0611657Y0523932D01*
X0611713Y0524021D01*
X0611771Y0524108D01*
X0611833Y0524193D01*
X0611897Y0524276D01*
X0611965Y0524356D01*
X0612036Y0524433D01*
X0612110Y0524507D01*
X0612187Y0524579D01*
X0612266Y0524648D01*
X0612348Y0524713D01*
X0612432Y0524776D01*
X0612519Y0524835D01*
X0612608Y0524891D01*
X0612699Y0524944D01*
X0612792Y0524993D01*
X0612886Y0525038D01*
X0612982Y0525080D01*
X0613080Y0525118D01*
X0613179Y0525152D01*
X0613280Y0525183D01*
X0613381Y0525209D01*
X0613484Y0525232D01*
X0613587Y0525251D01*
X0613691Y0525266D01*
X0613795Y0525277D01*
X0613900Y0525284D01*
X0614005Y0525287D01*
X0614110Y0525286D01*
X0614215Y0525281D01*
X0614319Y0525272D01*
X0614423Y0525259D01*
X0614527Y0525242D01*
X0614630Y0525221D01*
X0614732Y0525196D01*
X0614833Y0525168D01*
X0614932Y0525135D01*
X0615031Y0525099D01*
X0615128Y0525059D01*
X0615223Y0525016D01*
X0615317Y0524968D01*
X0615409Y0524918D01*
X0615499Y0524864D01*
X0615587Y0524806D01*
X0615672Y0524745D01*
X0615755Y0524681D01*
X0615836Y0524614D01*
X0615914Y0524544D01*
X0615989Y0524470D01*
X0616061Y0524395D01*
X0616131Y0524316D01*
X0616197Y0524235D01*
X0616261Y0524151D01*
X0616321Y0524065D01*
X0616377Y0523977D01*
X0616431Y0523886D01*
X0616481Y0523794D01*
X0616527Y0523700D01*
X0616570Y0523604D01*
X0616609Y0523506D01*
X0616644Y0523408D01*
X0616675Y0523307D01*
X0616703Y0523206D01*
X0616727Y0523104D01*
X0616747Y0523001D01*
X0616763Y0522897D01*
X0616775Y0522793D01*
X0616783Y0522688D01*
X0616787Y0522583D01*
X0616787Y0522479D01*
X0616783Y0522374D01*
X0616775Y0522269D01*
X0616763Y0522165D01*
X0616747Y0522061D01*
X0616727Y0521958D01*
X0616703Y0521856D01*
X0616675Y0521755D01*
X0616644Y0521654D01*
X0616609Y0521556D01*
X0616570Y0521458D01*
X0616527Y0521362D01*
X0616481Y0521268D01*
X0616431Y0521176D01*
X0616377Y0521085D01*
X0616321Y0520997D01*
X0616261Y0520911D01*
X0616197Y0520827D01*
X0616131Y0520746D01*
X0616061Y0520667D01*
X0615989Y0520592D01*
X0615914Y0520518D01*
X0615836Y0520448D01*
X0615755Y0520381D01*
X0615672Y0520317D01*
X0615587Y0520256D01*
X0615499Y0520198D01*
X0615409Y0520144D01*
X0615317Y0520094D01*
X0615223Y0520046D01*
X0615128Y0520003D01*
X0615031Y0519963D01*
X0614932Y0519927D01*
X0614833Y0519894D01*
X0614732Y0519866D01*
X0614630Y0519841D01*
X0614527Y0519820D01*
X0614423Y0519803D01*
X0614319Y0519790D01*
X0614215Y0519781D01*
X0614110Y0519776D01*
X0614005Y0519775D01*
X0613900Y0519778D01*
X0613795Y0519785D01*
X0613691Y0519796D01*
X0613587Y0519811D01*
X0613484Y0519830D01*
X0613381Y0519853D01*
X0613280Y0519879D01*
X0613179Y0519910D01*
X0613080Y0519944D01*
X0612982Y0519982D01*
X0612886Y0520024D01*
X0612792Y0520069D01*
X0612699Y0520118D01*
X0612608Y0520171D01*
X0612519Y0520227D01*
X0612432Y0520286D01*
X0612348Y0520349D01*
X0612266Y0520414D01*
X0612187Y0520483D01*
X0612110Y0520555D01*
X0612036Y0520629D01*
X0611965Y0520706D01*
X0611897Y0520786D01*
X0611833Y0520869D01*
X0611771Y0520954D01*
X0611713Y0521041D01*
X0611657Y0521130D01*
X0611606Y0521222D01*
X0611558Y0521315D01*
X0611513Y0521410D01*
X0611472Y0521507D01*
X0611435Y0521605D01*
X0611402Y0521704D01*
X0611372Y0521805D01*
X0611347Y0521907D01*
X0611325Y0522009D01*
X0611307Y0522113D01*
X0611293Y0522217D01*
X0611283Y0522321D01*
X0611277Y0522426D01*
X0611275Y0522531D01*
D11*
X0628034Y0305468D02*
X0627567Y0305001D01*
X0627567Y0304534D01*
X0628034Y0304067D01*
X0627567Y0303599D01*
X0627567Y0303132D01*
X0628034Y0302665D01*
X0628968Y0302665D01*
X0629435Y0303132D01*
X0628501Y0304067D02*
X0628034Y0304067D01*
X0628034Y0305468D02*
X0628968Y0305468D01*
X0629435Y0305001D01*
X0630514Y0304534D02*
X0631448Y0302665D01*
X0632382Y0304534D01*
X0633460Y0304067D02*
X0633460Y0303599D01*
X0635329Y0303599D01*
X0635329Y0303132D02*
X0635329Y0304067D01*
X0634861Y0304534D01*
X0633927Y0304534D01*
X0633460Y0304067D01*
X0633927Y0302665D02*
X0634861Y0302665D01*
X0635329Y0303132D01*
X0636383Y0304534D02*
X0636850Y0304534D01*
X0637784Y0303599D01*
X0637784Y0302665D02*
X0637784Y0304534D01*
D12*
X0633008Y0312339D03*
X0623008Y0312339D03*
X0643008Y0312339D03*
X0643008Y0522531D03*
X0633008Y0522531D03*
X0623008Y0522531D03*
D13*
X0623492Y0522462D02*
X0628768Y0522462D01*
X0628768Y0521688D02*
X0629413Y0520130D01*
X0629760Y0519783D01*
X0629760Y0512522D01*
X0629715Y0512014D01*
X0629760Y0511872D01*
X0629760Y0511724D01*
X0629955Y0511253D01*
X0630108Y0510766D01*
X0630204Y0510653D01*
X0630260Y0510516D01*
X0630621Y0510155D01*
X0631118Y0509563D01*
X0630843Y0509563D01*
X0630535Y0509871D01*
X0628959Y0510524D01*
X0627253Y0510524D01*
X0625678Y0509871D01*
X0624472Y0508665D01*
X0623819Y0507089D01*
X0623819Y0505383D01*
X0624472Y0503808D01*
X0625678Y0502602D01*
X0627253Y0501949D01*
X0628959Y0501949D01*
X0630535Y0502602D01*
X0630922Y0502988D01*
X0635291Y0502988D01*
X0635678Y0502602D01*
X0637253Y0501949D01*
X0638959Y0501949D01*
X0640535Y0502602D01*
X0641741Y0503808D01*
X0642394Y0505383D01*
X0642394Y0507089D01*
X0641806Y0508508D01*
X0643819Y0506092D01*
X0643819Y0505383D01*
X0644472Y0503808D01*
X0645678Y0502602D01*
X0647253Y0501949D01*
X0648959Y0501949D01*
X0650535Y0502602D01*
X0650941Y0503008D01*
X0655271Y0503008D01*
X0655678Y0502602D01*
X0657253Y0501949D01*
X0658959Y0501949D01*
X0660535Y0502602D01*
X0660941Y0503008D01*
X0665271Y0503008D01*
X0665678Y0502602D01*
X0667253Y0501949D01*
X0668959Y0501949D01*
X0670535Y0502602D01*
X0670941Y0503008D01*
X0673648Y0503008D01*
X0674839Y0502987D01*
X0674840Y0499033D01*
X0674472Y0498665D01*
X0673819Y0497089D01*
X0673819Y0495383D01*
X0674472Y0493808D01*
X0674840Y0493439D01*
X0674841Y0489034D01*
X0674472Y0488665D01*
X0673819Y0487089D01*
X0673819Y0485383D01*
X0674472Y0483808D01*
X0674842Y0483438D01*
X0674842Y0479035D01*
X0674472Y0478665D01*
X0673819Y0477089D01*
X0673819Y0475383D01*
X0674472Y0473808D01*
X0674843Y0473436D01*
X0674843Y0469037D01*
X0674472Y0468665D01*
X0673819Y0467089D01*
X0673819Y0465383D01*
X0674472Y0463808D01*
X0674844Y0463435D01*
X0674845Y0459038D01*
X0674472Y0458665D01*
X0673819Y0457089D01*
X0673819Y0455383D01*
X0674472Y0453808D01*
X0674845Y0453434D01*
X0674846Y0449039D01*
X0674472Y0448665D01*
X0673819Y0447089D01*
X0673819Y0445383D01*
X0674472Y0443808D01*
X0674846Y0443433D01*
X0674853Y0389046D01*
X0674472Y0388665D01*
X0673819Y0387089D01*
X0673819Y0385383D01*
X0674472Y0383808D01*
X0674854Y0383425D01*
X0674854Y0379048D01*
X0674472Y0378665D01*
X0673819Y0377089D01*
X0673819Y0375383D01*
X0674472Y0373808D01*
X0674855Y0373424D01*
X0674856Y0369049D01*
X0674472Y0368665D01*
X0673819Y0367089D01*
X0673819Y0365383D01*
X0674472Y0363808D01*
X0674856Y0363423D01*
X0674857Y0359050D01*
X0674472Y0358665D01*
X0673819Y0357089D01*
X0673819Y0355383D01*
X0674472Y0353808D01*
X0674858Y0353422D01*
X0674858Y0349051D01*
X0674472Y0348665D01*
X0673819Y0347089D01*
X0673819Y0345383D01*
X0674472Y0343808D01*
X0674957Y0343323D01*
X0674957Y0331850D01*
X0672552Y0329445D01*
X0670961Y0329445D01*
X0670535Y0329871D01*
X0668959Y0330524D01*
X0667253Y0330524D01*
X0665678Y0329871D01*
X0665406Y0329600D01*
X0660811Y0329595D01*
X0660535Y0329871D01*
X0658959Y0330524D01*
X0657253Y0330524D01*
X0655678Y0329871D01*
X0655397Y0329590D01*
X0650821Y0329585D01*
X0650535Y0329871D01*
X0648959Y0330524D01*
X0647253Y0330524D01*
X0645678Y0329871D01*
X0644472Y0328665D01*
X0643819Y0327089D01*
X0643819Y0326205D01*
X0640647Y0322461D01*
X0640280Y0322094D01*
X0640227Y0321965D01*
X0640136Y0321859D01*
X0639978Y0321365D01*
X0639780Y0320886D01*
X0639780Y0320746D01*
X0639737Y0320613D01*
X0639780Y0320097D01*
X0639780Y0315107D01*
X0639413Y0314740D01*
X0638768Y0313182D01*
X0638768Y0311495D01*
X0639413Y0309937D01*
X0640606Y0308744D01*
X0642164Y0308098D01*
X0643851Y0308098D01*
X0645410Y0308744D01*
X0646602Y0309937D01*
X0647248Y0311495D01*
X0647248Y0313182D01*
X0646602Y0314740D01*
X0646354Y0314989D01*
X0646354Y0319027D01*
X0648831Y0321949D01*
X0648959Y0321949D01*
X0650535Y0322602D01*
X0650944Y0323011D01*
X0655264Y0323015D01*
X0655678Y0322602D01*
X0657253Y0321949D01*
X0658959Y0321949D01*
X0660535Y0322602D01*
X0660954Y0323020D01*
X0665255Y0323025D01*
X0665678Y0322602D01*
X0667253Y0321949D01*
X0668959Y0321949D01*
X0670535Y0322602D01*
X0670803Y0322870D01*
X0674567Y0322870D01*
X0675776Y0323371D01*
X0680106Y0327701D01*
X0681031Y0328626D01*
X0681531Y0329834D01*
X0681531Y0343598D01*
X0681741Y0343808D01*
X0682394Y0345383D01*
X0682394Y0347089D01*
X0681741Y0348665D01*
X0681433Y0348973D01*
X0681432Y0353499D01*
X0681741Y0353808D01*
X0682394Y0355383D01*
X0682394Y0357089D01*
X0681741Y0358665D01*
X0681432Y0358974D01*
X0681431Y0363498D01*
X0681741Y0363808D01*
X0682394Y0365383D01*
X0682394Y0367089D01*
X0681741Y0368665D01*
X0681430Y0368975D01*
X0681430Y0373496D01*
X0681741Y0373808D01*
X0682394Y0375383D01*
X0682394Y0377089D01*
X0681741Y0378665D01*
X0681429Y0378977D01*
X0681429Y0383495D01*
X0681741Y0383808D01*
X0682394Y0385383D01*
X0682394Y0387089D01*
X0681741Y0388665D01*
X0681428Y0388978D01*
X0681421Y0443488D01*
X0681741Y0443808D01*
X0682394Y0445383D01*
X0682394Y0447089D01*
X0681741Y0448665D01*
X0681421Y0448985D01*
X0681420Y0453487D01*
X0681741Y0453808D01*
X0682394Y0455383D01*
X0682394Y0457089D01*
X0681741Y0458665D01*
X0681419Y0458986D01*
X0681419Y0463485D01*
X0681741Y0463808D01*
X0682394Y0465383D01*
X0682394Y0467089D01*
X0681741Y0468665D01*
X0681418Y0468988D01*
X0681418Y0473484D01*
X0681741Y0473808D01*
X0682394Y0475383D01*
X0682394Y0477089D01*
X0681741Y0478665D01*
X0681417Y0478989D01*
X0681416Y0483483D01*
X0681741Y0483808D01*
X0682394Y0485383D01*
X0682394Y0487089D01*
X0681741Y0488665D01*
X0681416Y0488990D01*
X0681415Y0493482D01*
X0681741Y0493808D01*
X0682394Y0495383D01*
X0682394Y0497089D01*
X0681741Y0498665D01*
X0681414Y0498991D01*
X0681414Y0503480D01*
X0681741Y0503808D01*
X0682394Y0505383D01*
X0682394Y0507089D01*
X0681741Y0508665D01*
X0680535Y0509871D01*
X0680204Y0510008D01*
X0679988Y0510224D01*
X0678779Y0510724D01*
X0677472Y0510724D01*
X0676263Y0510224D01*
X0676076Y0510036D01*
X0675678Y0509871D01*
X0675360Y0509553D01*
X0674359Y0509571D01*
X0674331Y0509583D01*
X0673706Y0509583D01*
X0673082Y0509594D01*
X0673054Y0509583D01*
X0670823Y0509583D01*
X0670535Y0509871D01*
X0668959Y0510524D01*
X0667253Y0510524D01*
X0665678Y0509871D01*
X0665389Y0509583D01*
X0660823Y0509583D01*
X0660535Y0509871D01*
X0658959Y0510524D01*
X0657253Y0510524D01*
X0655678Y0509871D01*
X0655389Y0509583D01*
X0650823Y0509583D01*
X0650535Y0509871D01*
X0648959Y0510524D01*
X0648685Y0510524D01*
X0646295Y0513391D01*
X0646295Y0519822D01*
X0646602Y0520130D01*
X0647248Y0521688D01*
X0647248Y0523375D01*
X0646602Y0524933D01*
X0645410Y0526126D01*
X0643851Y0526772D01*
X0642164Y0526772D01*
X0640606Y0526126D01*
X0639413Y0524933D01*
X0638768Y0523375D01*
X0638768Y0521688D01*
X0639413Y0520130D01*
X0639720Y0519822D01*
X0639720Y0512350D01*
X0639675Y0511847D01*
X0639720Y0511700D01*
X0639720Y0511547D01*
X0639914Y0511081D01*
X0640064Y0510599D01*
X0640162Y0510481D01*
X0640221Y0510339D01*
X0640578Y0509982D01*
X0641347Y0509059D01*
X0640535Y0509871D01*
X0638959Y0510524D01*
X0638893Y0510524D01*
X0636335Y0513574D01*
X0636335Y0519862D01*
X0636602Y0520130D01*
X0637248Y0521688D01*
X0637248Y0523375D01*
X0636602Y0524933D01*
X0635410Y0526126D01*
X0633851Y0526772D01*
X0632164Y0526772D01*
X0630606Y0526126D01*
X0629413Y0524933D01*
X0628768Y0523375D01*
X0628768Y0521688D01*
X0628861Y0521463D02*
X0627119Y0521463D01*
X0627144Y0521539D02*
X0627224Y0522047D01*
X0623492Y0522047D01*
X0623492Y0518315D01*
X0624001Y0518396D01*
X0624636Y0518602D01*
X0625230Y0518905D01*
X0625770Y0519297D01*
X0626242Y0519769D01*
X0626634Y0520309D01*
X0626937Y0520904D01*
X0627144Y0521539D01*
X0626714Y0520465D02*
X0629274Y0520465D01*
X0629760Y0519466D02*
X0625939Y0519466D01*
X0624222Y0518468D02*
X0629760Y0518468D01*
X0629760Y0517469D02*
X0611264Y0517469D01*
X0611264Y0517498D02*
X0610391Y0519009D01*
X0609098Y0519756D01*
X0609098Y0530693D01*
X0656917Y0530693D01*
X0656917Y0519756D01*
X0655624Y0519009D01*
X0654752Y0517498D01*
X0654752Y0515754D01*
X0655624Y0514243D01*
X0655624Y0514242D01*
X0655624Y0514242D01*
X0657135Y0513370D01*
X0672616Y0513370D01*
X0672632Y0513354D01*
X0674740Y0513354D01*
X0676078Y0513249D01*
X0678624Y0512422D01*
X0680790Y0510849D01*
X0682363Y0508683D01*
X0683190Y0506138D01*
X0683295Y0504799D01*
X0683295Y0326787D01*
X0683190Y0325449D01*
X0682363Y0322903D01*
X0680790Y0320738D01*
X0678624Y0319165D01*
X0676078Y0318338D01*
X0674740Y0318232D01*
X0674303Y0318232D01*
X0657135Y0318232D01*
X0655624Y0317360D01*
X0654752Y0315849D01*
X0654752Y0314104D01*
X0655624Y0312593D01*
X0655624Y0312593D01*
X0655624Y0312593D01*
X0656917Y0311846D01*
X0656917Y0300909D01*
X0609098Y0300909D01*
X0609098Y0311846D01*
X0610391Y0312593D01*
X0610391Y0312593D01*
X0611264Y0314104D01*
X0611264Y0315849D01*
X0610391Y0317360D01*
X0608880Y0318232D01*
X0591276Y0318232D01*
X0589937Y0318338D01*
X0587392Y0319165D01*
X0585226Y0320738D01*
X0583653Y0322903D01*
X0582826Y0325449D01*
X0582720Y0326787D01*
X0582720Y0504799D01*
X0582826Y0506138D01*
X0583653Y0508683D01*
X0585226Y0510849D01*
X0587392Y0512422D01*
X0589937Y0513249D01*
X0591276Y0513354D01*
X0593384Y0513354D01*
X0593399Y0513370D01*
X0608880Y0513370D01*
X0610391Y0514242D01*
X0610391Y0514242D01*
X0610391Y0514243D01*
X0611264Y0515754D01*
X0611264Y0517498D01*
X0611264Y0516471D02*
X0629760Y0516471D01*
X0629760Y0515472D02*
X0611101Y0515472D01*
X0610525Y0514474D02*
X0629760Y0514474D01*
X0629760Y0513475D02*
X0609062Y0513475D01*
X0608959Y0510524D02*
X0607253Y0510524D01*
X0605678Y0509871D01*
X0604472Y0508665D01*
X0603819Y0507089D01*
X0603819Y0505383D01*
X0604472Y0503808D01*
X0605678Y0502602D01*
X0607253Y0501949D01*
X0608959Y0501949D01*
X0610535Y0502602D01*
X0611741Y0503808D01*
X0612394Y0505383D01*
X0612394Y0507089D01*
X0611741Y0508665D01*
X0610535Y0509871D01*
X0608959Y0510524D01*
X0609065Y0510480D02*
X0617147Y0510480D01*
X0617253Y0510524D02*
X0615678Y0509871D01*
X0614472Y0508665D01*
X0613819Y0507089D01*
X0613819Y0505383D01*
X0614472Y0503808D01*
X0615678Y0502602D01*
X0617253Y0501949D01*
X0618959Y0501949D01*
X0620535Y0502602D01*
X0621741Y0503808D01*
X0622394Y0505383D01*
X0622394Y0507089D01*
X0621741Y0508665D01*
X0620535Y0509871D01*
X0618959Y0510524D01*
X0617253Y0510524D01*
X0619065Y0510480D02*
X0627147Y0510480D01*
X0629065Y0510480D02*
X0630296Y0510480D01*
X0629862Y0511478D02*
X0586093Y0511478D01*
X0584958Y0510480D02*
X0597147Y0510480D01*
X0597253Y0510524D02*
X0595678Y0509871D01*
X0594472Y0508665D01*
X0593819Y0507089D01*
X0593819Y0505383D01*
X0594472Y0503808D01*
X0595678Y0502602D01*
X0597253Y0501949D01*
X0598959Y0501949D01*
X0600535Y0502602D01*
X0601741Y0503808D01*
X0602394Y0505383D01*
X0602394Y0507089D01*
X0601741Y0508665D01*
X0600535Y0509871D01*
X0598959Y0510524D01*
X0597253Y0510524D01*
X0599065Y0510480D02*
X0607147Y0510480D01*
X0605288Y0509481D02*
X0600925Y0509481D01*
X0601816Y0508483D02*
X0604396Y0508483D01*
X0603983Y0507484D02*
X0602230Y0507484D01*
X0602394Y0506486D02*
X0603819Y0506486D01*
X0603819Y0505487D02*
X0602394Y0505487D01*
X0602023Y0504489D02*
X0604190Y0504489D01*
X0604789Y0503490D02*
X0601423Y0503490D01*
X0600269Y0502492D02*
X0605943Y0502492D01*
X0607183Y0500495D02*
X0599029Y0500495D01*
X0598959Y0500524D02*
X0597253Y0500524D01*
X0595678Y0499871D01*
X0594472Y0498665D01*
X0593819Y0497089D01*
X0593819Y0495383D01*
X0594472Y0493808D01*
X0595678Y0492602D01*
X0597253Y0491949D01*
X0598959Y0491949D01*
X0600535Y0492602D01*
X0601741Y0493808D01*
X0602394Y0495383D01*
X0602394Y0497089D01*
X0601741Y0498665D01*
X0600535Y0499871D01*
X0598959Y0500524D01*
X0597183Y0500495D02*
X0582720Y0500495D01*
X0582720Y0501493D02*
X0674839Y0501493D01*
X0674839Y0500495D02*
X0669029Y0500495D01*
X0668959Y0500524D02*
X0667253Y0500524D01*
X0665678Y0499871D01*
X0664472Y0498665D01*
X0663819Y0497089D01*
X0663819Y0495383D01*
X0664472Y0493808D01*
X0665678Y0492602D01*
X0667253Y0491949D01*
X0668959Y0491949D01*
X0670535Y0492602D01*
X0671741Y0493808D01*
X0672394Y0495383D01*
X0672394Y0497089D01*
X0671741Y0498665D01*
X0670535Y0499871D01*
X0668959Y0500524D01*
X0667183Y0500495D02*
X0659029Y0500495D01*
X0658959Y0500524D02*
X0657253Y0500524D01*
X0655678Y0499871D01*
X0654472Y0498665D01*
X0653819Y0497089D01*
X0653819Y0495383D01*
X0654472Y0493808D01*
X0655678Y0492602D01*
X0657253Y0491949D01*
X0658959Y0491949D01*
X0660535Y0492602D01*
X0661741Y0493808D01*
X0662394Y0495383D01*
X0662394Y0497089D01*
X0661741Y0498665D01*
X0660535Y0499871D01*
X0658959Y0500524D01*
X0657183Y0500495D02*
X0649029Y0500495D01*
X0648959Y0500524D02*
X0647253Y0500524D01*
X0645678Y0499871D01*
X0644472Y0498665D01*
X0643819Y0497089D01*
X0643819Y0495383D01*
X0644472Y0493808D01*
X0645678Y0492602D01*
X0647253Y0491949D01*
X0648959Y0491949D01*
X0650535Y0492602D01*
X0651741Y0493808D01*
X0652394Y0495383D01*
X0652394Y0497089D01*
X0651741Y0498665D01*
X0650535Y0499871D01*
X0648959Y0500524D01*
X0647183Y0500495D02*
X0639029Y0500495D01*
X0638959Y0500524D02*
X0637253Y0500524D01*
X0635678Y0499871D01*
X0634472Y0498665D01*
X0633819Y0497089D01*
X0633819Y0495383D01*
X0634472Y0493808D01*
X0635678Y0492602D01*
X0637253Y0491949D01*
X0638959Y0491949D01*
X0640535Y0492602D01*
X0641741Y0493808D01*
X0642394Y0495383D01*
X0642394Y0497089D01*
X0641741Y0498665D01*
X0640535Y0499871D01*
X0638959Y0500524D01*
X0637183Y0500495D02*
X0629029Y0500495D01*
X0628959Y0500524D02*
X0627253Y0500524D01*
X0625678Y0499871D01*
X0624472Y0498665D01*
X0623819Y0497089D01*
X0623819Y0495383D01*
X0624472Y0493808D01*
X0625678Y0492602D01*
X0627253Y0491949D01*
X0628959Y0491949D01*
X0630535Y0492602D01*
X0631741Y0493808D01*
X0632394Y0495383D01*
X0632394Y0497089D01*
X0631741Y0498665D01*
X0630535Y0499871D01*
X0628959Y0500524D01*
X0627183Y0500495D02*
X0619029Y0500495D01*
X0618959Y0500524D02*
X0617253Y0500524D01*
X0615678Y0499871D01*
X0614472Y0498665D01*
X0613819Y0497089D01*
X0613819Y0495383D01*
X0614472Y0493808D01*
X0615678Y0492602D01*
X0617253Y0491949D01*
X0618959Y0491949D01*
X0620535Y0492602D01*
X0621741Y0493808D01*
X0622394Y0495383D01*
X0622394Y0497089D01*
X0621741Y0498665D01*
X0620535Y0499871D01*
X0618959Y0500524D01*
X0617183Y0500495D02*
X0609029Y0500495D01*
X0608959Y0500524D02*
X0607253Y0500524D01*
X0605678Y0499871D01*
X0604472Y0498665D01*
X0603819Y0497089D01*
X0603819Y0495383D01*
X0604472Y0493808D01*
X0605678Y0492602D01*
X0607253Y0491949D01*
X0608959Y0491949D01*
X0610535Y0492602D01*
X0611741Y0493808D01*
X0612394Y0495383D01*
X0612394Y0497089D01*
X0611741Y0498665D01*
X0610535Y0499871D01*
X0608959Y0500524D01*
X0610910Y0499496D02*
X0615303Y0499496D01*
X0614402Y0498498D02*
X0611810Y0498498D01*
X0612224Y0497499D02*
X0613989Y0497499D01*
X0613819Y0496501D02*
X0612394Y0496501D01*
X0612394Y0495502D02*
X0613819Y0495502D01*
X0614183Y0494503D02*
X0612029Y0494503D01*
X0611438Y0493505D02*
X0614774Y0493505D01*
X0615907Y0492506D02*
X0610305Y0492506D01*
X0608993Y0490509D02*
X0617219Y0490509D01*
X0617253Y0490524D02*
X0615678Y0489871D01*
X0614472Y0488665D01*
X0613819Y0487089D01*
X0613819Y0485383D01*
X0614472Y0483808D01*
X0615678Y0482602D01*
X0617253Y0481949D01*
X0618959Y0481949D01*
X0620535Y0482602D01*
X0621741Y0483808D01*
X0622394Y0485383D01*
X0622394Y0487089D01*
X0621741Y0488665D01*
X0620535Y0489871D01*
X0618959Y0490524D01*
X0617253Y0490524D01*
X0618993Y0490509D02*
X0627219Y0490509D01*
X0627253Y0490524D02*
X0625678Y0489871D01*
X0624472Y0488665D01*
X0623819Y0487089D01*
X0623819Y0485383D01*
X0624472Y0483808D01*
X0625678Y0482602D01*
X0627253Y0481949D01*
X0628959Y0481949D01*
X0630535Y0482602D01*
X0631741Y0483808D01*
X0632394Y0485383D01*
X0632394Y0487089D01*
X0631741Y0488665D01*
X0630535Y0489871D01*
X0628959Y0490524D01*
X0627253Y0490524D01*
X0628993Y0490509D02*
X0637219Y0490509D01*
X0637253Y0490524D02*
X0635678Y0489871D01*
X0634472Y0488665D01*
X0633819Y0487089D01*
X0633819Y0485383D01*
X0634472Y0483808D01*
X0635678Y0482602D01*
X0637253Y0481949D01*
X0638959Y0481949D01*
X0640535Y0482602D01*
X0641741Y0483808D01*
X0642394Y0485383D01*
X0642394Y0487089D01*
X0641741Y0488665D01*
X0640535Y0489871D01*
X0638959Y0490524D01*
X0637253Y0490524D01*
X0638993Y0490509D02*
X0647219Y0490509D01*
X0647253Y0490524D02*
X0645678Y0489871D01*
X0644472Y0488665D01*
X0643819Y0487089D01*
X0643819Y0485383D01*
X0644472Y0483808D01*
X0645678Y0482602D01*
X0647253Y0481949D01*
X0648959Y0481949D01*
X0650535Y0482602D01*
X0651741Y0483808D01*
X0652394Y0485383D01*
X0652394Y0487089D01*
X0651741Y0488665D01*
X0650535Y0489871D01*
X0648959Y0490524D01*
X0647253Y0490524D01*
X0648993Y0490509D02*
X0657219Y0490509D01*
X0657253Y0490524D02*
X0655678Y0489871D01*
X0654472Y0488665D01*
X0653819Y0487089D01*
X0653819Y0485383D01*
X0654472Y0483808D01*
X0655678Y0482602D01*
X0657253Y0481949D01*
X0658959Y0481949D01*
X0660535Y0482602D01*
X0661741Y0483808D01*
X0662394Y0485383D01*
X0662394Y0487089D01*
X0661741Y0488665D01*
X0660535Y0489871D01*
X0658959Y0490524D01*
X0657253Y0490524D01*
X0658993Y0490509D02*
X0667219Y0490509D01*
X0667253Y0490524D02*
X0665678Y0489871D01*
X0664472Y0488665D01*
X0663819Y0487089D01*
X0663819Y0485383D01*
X0664472Y0483808D01*
X0665678Y0482602D01*
X0667253Y0481949D01*
X0668959Y0481949D01*
X0670535Y0482602D01*
X0671741Y0483808D01*
X0672394Y0485383D01*
X0672394Y0487089D01*
X0671741Y0488665D01*
X0670535Y0489871D01*
X0668959Y0490524D01*
X0667253Y0490524D01*
X0668993Y0490509D02*
X0674841Y0490509D01*
X0674841Y0489511D02*
X0670895Y0489511D01*
X0671804Y0488512D02*
X0674409Y0488512D01*
X0673995Y0487514D02*
X0672218Y0487514D01*
X0672394Y0486515D02*
X0673819Y0486515D01*
X0673819Y0485517D02*
X0672394Y0485517D01*
X0672035Y0484518D02*
X0674177Y0484518D01*
X0674759Y0483520D02*
X0671453Y0483520D01*
X0670341Y0482521D02*
X0674842Y0482521D01*
X0674842Y0481523D02*
X0582720Y0481523D01*
X0582720Y0482521D02*
X0585871Y0482521D01*
X0585678Y0482602D02*
X0587253Y0481949D01*
X0588959Y0481949D01*
X0590535Y0482602D01*
X0591741Y0483808D01*
X0592394Y0485383D01*
X0592394Y0487089D01*
X0591741Y0488665D01*
X0590535Y0489871D01*
X0588959Y0490524D01*
X0587253Y0490524D01*
X0585678Y0489871D01*
X0584472Y0488665D01*
X0583819Y0487089D01*
X0583819Y0485383D01*
X0584472Y0483808D01*
X0585678Y0482602D01*
X0584759Y0483520D02*
X0582720Y0483520D01*
X0582720Y0484518D02*
X0584177Y0484518D01*
X0583819Y0485517D02*
X0582720Y0485517D01*
X0582720Y0486515D02*
X0583819Y0486515D01*
X0583995Y0487514D02*
X0582720Y0487514D01*
X0582720Y0488512D02*
X0584409Y0488512D01*
X0585318Y0489511D02*
X0582720Y0489511D01*
X0582720Y0490509D02*
X0587219Y0490509D01*
X0588993Y0490509D02*
X0597219Y0490509D01*
X0597253Y0490524D02*
X0595678Y0489871D01*
X0594472Y0488665D01*
X0593819Y0487089D01*
X0593819Y0485383D01*
X0594472Y0483808D01*
X0595678Y0482602D01*
X0597253Y0481949D01*
X0598959Y0481949D01*
X0600535Y0482602D01*
X0601741Y0483808D01*
X0602394Y0485383D01*
X0602394Y0487089D01*
X0601741Y0488665D01*
X0600535Y0489871D01*
X0598959Y0490524D01*
X0597253Y0490524D01*
X0598993Y0490509D02*
X0607219Y0490509D01*
X0607253Y0490524D02*
X0605678Y0489871D01*
X0604472Y0488665D01*
X0603819Y0487089D01*
X0603819Y0485383D01*
X0604472Y0483808D01*
X0605678Y0482602D01*
X0607253Y0481949D01*
X0608959Y0481949D01*
X0610535Y0482602D01*
X0611741Y0483808D01*
X0612394Y0485383D01*
X0612394Y0487089D01*
X0611741Y0488665D01*
X0610535Y0489871D01*
X0608959Y0490524D01*
X0607253Y0490524D01*
X0605318Y0489511D02*
X0600895Y0489511D01*
X0601804Y0488512D02*
X0604409Y0488512D01*
X0603995Y0487514D02*
X0602218Y0487514D01*
X0602394Y0486515D02*
X0603819Y0486515D01*
X0603819Y0485517D02*
X0602394Y0485517D01*
X0602035Y0484518D02*
X0604177Y0484518D01*
X0604759Y0483520D02*
X0601453Y0483520D01*
X0600341Y0482521D02*
X0605871Y0482521D01*
X0607253Y0480524D02*
X0605678Y0479871D01*
X0604472Y0478665D01*
X0603819Y0477089D01*
X0603819Y0475383D01*
X0604472Y0473808D01*
X0605678Y0472602D01*
X0607253Y0471949D01*
X0608959Y0471949D01*
X0610535Y0472602D01*
X0611741Y0473808D01*
X0612394Y0475383D01*
X0612394Y0477089D01*
X0611741Y0478665D01*
X0610535Y0479871D01*
X0608959Y0480524D01*
X0607253Y0480524D01*
X0605333Y0479526D02*
X0600880Y0479526D01*
X0600535Y0479871D02*
X0598959Y0480524D01*
X0597253Y0480524D01*
X0595678Y0479871D01*
X0594472Y0478665D01*
X0593819Y0477089D01*
X0593819Y0475383D01*
X0594472Y0473808D01*
X0595678Y0472602D01*
X0597253Y0471949D01*
X0598959Y0471949D01*
X0600535Y0472602D01*
X0601741Y0473808D01*
X0602394Y0475383D01*
X0602394Y0477089D01*
X0601741Y0478665D01*
X0600535Y0479871D01*
X0601798Y0478527D02*
X0604415Y0478527D01*
X0604001Y0477529D02*
X0602212Y0477529D01*
X0602394Y0476530D02*
X0603819Y0476530D01*
X0603819Y0475532D02*
X0602394Y0475532D01*
X0602042Y0474533D02*
X0604171Y0474533D01*
X0604744Y0473535D02*
X0601468Y0473535D01*
X0600377Y0472536D02*
X0605835Y0472536D01*
X0607253Y0470524D02*
X0605678Y0469871D01*
X0604472Y0468665D01*
X0603819Y0467089D01*
X0603819Y0465383D01*
X0604472Y0463808D01*
X0605678Y0462602D01*
X0607253Y0461949D01*
X0608959Y0461949D01*
X0610535Y0462602D01*
X0611741Y0463808D01*
X0612394Y0465383D01*
X0612394Y0467089D01*
X0611741Y0468665D01*
X0610535Y0469871D01*
X0608959Y0470524D01*
X0607253Y0470524D01*
X0605348Y0469541D02*
X0600865Y0469541D01*
X0600535Y0469871D02*
X0598959Y0470524D01*
X0597253Y0470524D01*
X0595678Y0469871D01*
X0594472Y0468665D01*
X0593819Y0467089D01*
X0593819Y0465383D01*
X0594472Y0463808D01*
X0595678Y0462602D01*
X0597253Y0461949D01*
X0598959Y0461949D01*
X0600535Y0462602D01*
X0601741Y0463808D01*
X0602394Y0465383D01*
X0602394Y0467089D01*
X0601741Y0468665D01*
X0600535Y0469871D01*
X0601792Y0468542D02*
X0604421Y0468542D01*
X0604007Y0467544D02*
X0602205Y0467544D01*
X0602394Y0466545D02*
X0603819Y0466545D01*
X0603819Y0465547D02*
X0602394Y0465547D01*
X0602048Y0464548D02*
X0604165Y0464548D01*
X0604730Y0463550D02*
X0601483Y0463550D01*
X0600413Y0462551D02*
X0605799Y0462551D01*
X0607253Y0460524D02*
X0605678Y0459871D01*
X0604472Y0458665D01*
X0603819Y0457089D01*
X0603819Y0455383D01*
X0604472Y0453808D01*
X0605678Y0452602D01*
X0607253Y0451949D01*
X0608959Y0451949D01*
X0610535Y0452602D01*
X0611741Y0453808D01*
X0612394Y0455383D01*
X0612394Y0457089D01*
X0611741Y0458665D01*
X0610535Y0459871D01*
X0608959Y0460524D01*
X0607253Y0460524D01*
X0605362Y0459556D02*
X0600850Y0459556D01*
X0600535Y0459871D02*
X0598959Y0460524D01*
X0597253Y0460524D01*
X0595678Y0459871D01*
X0594472Y0458665D01*
X0593819Y0457089D01*
X0593819Y0455383D01*
X0594472Y0453808D01*
X0595678Y0452602D01*
X0597253Y0451949D01*
X0598959Y0451949D01*
X0600535Y0452602D01*
X0601741Y0453808D01*
X0602394Y0455383D01*
X0602394Y0457089D01*
X0601741Y0458665D01*
X0600535Y0459871D01*
X0601786Y0458557D02*
X0604427Y0458557D01*
X0604013Y0457559D02*
X0602199Y0457559D01*
X0602394Y0456560D02*
X0603819Y0456560D01*
X0603819Y0455562D02*
X0602394Y0455562D01*
X0602054Y0454563D02*
X0604159Y0454563D01*
X0604715Y0453565D02*
X0601498Y0453565D01*
X0600449Y0452566D02*
X0605763Y0452566D01*
X0607253Y0450524D02*
X0605678Y0449871D01*
X0604472Y0448665D01*
X0603819Y0447089D01*
X0603819Y0445383D01*
X0604472Y0443808D01*
X0605678Y0442602D01*
X0607253Y0441949D01*
X0608959Y0441949D01*
X0610535Y0442602D01*
X0611741Y0443808D01*
X0612394Y0445383D01*
X0612394Y0447089D01*
X0611741Y0448665D01*
X0610535Y0449871D01*
X0608959Y0450524D01*
X0607253Y0450524D01*
X0605377Y0449570D02*
X0600835Y0449570D01*
X0600535Y0449871D02*
X0598959Y0450524D01*
X0597253Y0450524D01*
X0595678Y0449871D01*
X0594472Y0448665D01*
X0593819Y0447089D01*
X0593819Y0445383D01*
X0594472Y0443808D01*
X0595678Y0442602D01*
X0597253Y0441949D01*
X0598959Y0441949D01*
X0600535Y0442602D01*
X0601741Y0443808D01*
X0602394Y0445383D01*
X0602394Y0447089D01*
X0601741Y0448665D01*
X0600535Y0449871D01*
X0601779Y0448572D02*
X0604433Y0448572D01*
X0604020Y0447573D02*
X0602193Y0447573D01*
X0602394Y0446575D02*
X0603819Y0446575D01*
X0603819Y0445576D02*
X0602394Y0445576D01*
X0602060Y0444578D02*
X0604153Y0444578D01*
X0604700Y0443579D02*
X0601513Y0443579D01*
X0600485Y0442581D02*
X0605727Y0442581D01*
X0607253Y0440524D02*
X0605678Y0439871D01*
X0604472Y0438665D01*
X0603819Y0437089D01*
X0603819Y0435383D01*
X0604472Y0433808D01*
X0605678Y0432602D01*
X0607253Y0431949D01*
X0608959Y0431949D01*
X0610535Y0432602D01*
X0611741Y0433808D01*
X0612394Y0435383D01*
X0612394Y0437089D01*
X0611741Y0438665D01*
X0610535Y0439871D01*
X0608959Y0440524D01*
X0607253Y0440524D01*
X0605392Y0439585D02*
X0600820Y0439585D01*
X0600535Y0439871D02*
X0598959Y0440524D01*
X0597253Y0440524D01*
X0595678Y0439871D01*
X0594472Y0438665D01*
X0593819Y0437089D01*
X0593819Y0435383D01*
X0594472Y0433808D01*
X0595678Y0432602D01*
X0597253Y0431949D01*
X0598959Y0431949D01*
X0600535Y0432602D01*
X0601741Y0433808D01*
X0602394Y0435383D01*
X0602394Y0437089D01*
X0601741Y0438665D01*
X0600535Y0439871D01*
X0601773Y0438587D02*
X0604439Y0438587D01*
X0604026Y0437588D02*
X0602187Y0437588D01*
X0602394Y0436590D02*
X0603819Y0436590D01*
X0603819Y0435591D02*
X0602394Y0435591D01*
X0602066Y0434593D02*
X0604146Y0434593D01*
X0604685Y0433594D02*
X0601528Y0433594D01*
X0600521Y0432596D02*
X0605692Y0432596D01*
X0607253Y0430524D02*
X0605678Y0429871D01*
X0604472Y0428665D01*
X0603819Y0427089D01*
X0603819Y0425383D01*
X0604472Y0423808D01*
X0605678Y0422602D01*
X0607253Y0421949D01*
X0608959Y0421949D01*
X0610535Y0422602D01*
X0611741Y0423808D01*
X0612394Y0425383D01*
X0612394Y0427089D01*
X0611741Y0428665D01*
X0610535Y0429871D01*
X0608959Y0430524D01*
X0607253Y0430524D01*
X0605407Y0429600D02*
X0600806Y0429600D01*
X0600535Y0429871D02*
X0598959Y0430524D01*
X0597253Y0430524D01*
X0595678Y0429871D01*
X0594472Y0428665D01*
X0593819Y0427089D01*
X0593819Y0425383D01*
X0594472Y0423808D01*
X0595678Y0422602D01*
X0597253Y0421949D01*
X0598959Y0421949D01*
X0600535Y0422602D01*
X0601741Y0423808D01*
X0602394Y0425383D01*
X0602394Y0427089D01*
X0601741Y0428665D01*
X0600535Y0429871D01*
X0601767Y0428602D02*
X0604445Y0428602D01*
X0604032Y0427603D02*
X0602181Y0427603D01*
X0602394Y0426605D02*
X0603819Y0426605D01*
X0603819Y0425606D02*
X0602394Y0425606D01*
X0602072Y0424608D02*
X0604140Y0424608D01*
X0604670Y0423609D02*
X0601543Y0423609D01*
X0600544Y0422611D02*
X0605669Y0422611D01*
X0607253Y0420524D02*
X0605678Y0419871D01*
X0604472Y0418665D01*
X0603819Y0417089D01*
X0603819Y0415383D01*
X0604472Y0413808D01*
X0605678Y0412602D01*
X0607253Y0411949D01*
X0608959Y0411949D01*
X0610535Y0412602D01*
X0611741Y0413808D01*
X0612394Y0415383D01*
X0612394Y0417089D01*
X0611741Y0418665D01*
X0610535Y0419871D01*
X0608959Y0420524D01*
X0607253Y0420524D01*
X0605422Y0419615D02*
X0600791Y0419615D01*
X0600535Y0419871D02*
X0598959Y0420524D01*
X0597253Y0420524D01*
X0595678Y0419871D01*
X0594472Y0418665D01*
X0593819Y0417089D01*
X0593819Y0415383D01*
X0594472Y0413808D01*
X0595678Y0412602D01*
X0597253Y0411949D01*
X0598959Y0411949D01*
X0600535Y0412602D01*
X0601741Y0413808D01*
X0602394Y0415383D01*
X0602394Y0417089D01*
X0601741Y0418665D01*
X0600535Y0419871D01*
X0601761Y0418617D02*
X0604452Y0418617D01*
X0604038Y0417618D02*
X0602175Y0417618D01*
X0602394Y0416620D02*
X0603819Y0416620D01*
X0603819Y0415621D02*
X0602394Y0415621D01*
X0602079Y0414623D02*
X0604134Y0414623D01*
X0604655Y0413624D02*
X0601557Y0413624D01*
X0600559Y0412626D02*
X0605654Y0412626D01*
X0607253Y0410524D02*
X0605678Y0409871D01*
X0604472Y0408665D01*
X0603819Y0407089D01*
X0603819Y0405383D01*
X0604472Y0403808D01*
X0605678Y0402602D01*
X0607253Y0401949D01*
X0608959Y0401949D01*
X0610535Y0402602D01*
X0611741Y0403808D01*
X0612394Y0405383D01*
X0612394Y0407089D01*
X0611741Y0408665D01*
X0610535Y0409871D01*
X0608959Y0410524D01*
X0607253Y0410524D01*
X0605437Y0409630D02*
X0600776Y0409630D01*
X0600535Y0409871D02*
X0598959Y0410524D01*
X0597253Y0410524D01*
X0595678Y0409871D01*
X0594472Y0408665D01*
X0593819Y0407089D01*
X0593819Y0405383D01*
X0594472Y0403808D01*
X0595678Y0402602D01*
X0597253Y0401949D01*
X0598959Y0401949D01*
X0600535Y0402602D01*
X0601741Y0403808D01*
X0602394Y0405383D01*
X0602394Y0407089D01*
X0601741Y0408665D01*
X0600535Y0409871D01*
X0601755Y0408632D02*
X0604458Y0408632D01*
X0604044Y0407633D02*
X0602168Y0407633D01*
X0602394Y0406634D02*
X0603819Y0406634D01*
X0603819Y0405636D02*
X0602394Y0405636D01*
X0602085Y0404637D02*
X0604128Y0404637D01*
X0604640Y0403639D02*
X0601572Y0403639D01*
X0600574Y0402640D02*
X0605639Y0402640D01*
X0607253Y0400524D02*
X0605678Y0399871D01*
X0604472Y0398665D01*
X0603819Y0397089D01*
X0603819Y0395383D01*
X0604472Y0393808D01*
X0605678Y0392602D01*
X0607253Y0391949D01*
X0608959Y0391949D01*
X0610535Y0392602D01*
X0611741Y0393808D01*
X0612394Y0395383D01*
X0612394Y0397089D01*
X0611741Y0398665D01*
X0610535Y0399871D01*
X0608959Y0400524D01*
X0607253Y0400524D01*
X0605452Y0399645D02*
X0600761Y0399645D01*
X0600535Y0399871D02*
X0598959Y0400524D01*
X0597253Y0400524D01*
X0595678Y0399871D01*
X0594472Y0398665D01*
X0593819Y0397089D01*
X0593819Y0395383D01*
X0594472Y0393808D01*
X0595678Y0392602D01*
X0597253Y0391949D01*
X0598959Y0391949D01*
X0600535Y0392602D01*
X0601741Y0393808D01*
X0602394Y0395383D01*
X0602394Y0397089D01*
X0601741Y0398665D01*
X0600535Y0399871D01*
X0601749Y0398646D02*
X0604464Y0398646D01*
X0604050Y0397648D02*
X0602162Y0397648D01*
X0602394Y0396649D02*
X0603819Y0396649D01*
X0603819Y0395651D02*
X0602394Y0395651D01*
X0602091Y0394652D02*
X0604122Y0394652D01*
X0604625Y0393654D02*
X0601587Y0393654D01*
X0600589Y0392655D02*
X0605624Y0392655D01*
X0607253Y0390524D02*
X0605678Y0389871D01*
X0604472Y0388665D01*
X0603819Y0387089D01*
X0603819Y0385383D01*
X0604472Y0383808D01*
X0605678Y0382602D01*
X0607253Y0381949D01*
X0608959Y0381949D01*
X0610535Y0382602D01*
X0611741Y0383808D01*
X0612394Y0385383D01*
X0612394Y0387089D01*
X0611741Y0388665D01*
X0610535Y0389871D01*
X0608959Y0390524D01*
X0607253Y0390524D01*
X0605467Y0389660D02*
X0600746Y0389660D01*
X0600535Y0389871D02*
X0598959Y0390524D01*
X0597253Y0390524D01*
X0595678Y0389871D01*
X0594472Y0388665D01*
X0593819Y0387089D01*
X0593819Y0385383D01*
X0594472Y0383808D01*
X0595678Y0382602D01*
X0597253Y0381949D01*
X0598959Y0381949D01*
X0600535Y0382602D01*
X0601741Y0383808D01*
X0602394Y0385383D01*
X0602394Y0387089D01*
X0601741Y0388665D01*
X0600535Y0389871D01*
X0601742Y0388661D02*
X0604470Y0388661D01*
X0604057Y0387663D02*
X0602156Y0387663D01*
X0602394Y0386664D02*
X0603819Y0386664D01*
X0603819Y0385666D02*
X0602394Y0385666D01*
X0602097Y0384667D02*
X0604116Y0384667D01*
X0604610Y0383669D02*
X0601602Y0383669D01*
X0600604Y0382670D02*
X0605609Y0382670D01*
X0607253Y0380524D02*
X0605678Y0379871D01*
X0604472Y0378665D01*
X0603819Y0377089D01*
X0603819Y0375383D01*
X0604472Y0373808D01*
X0605678Y0372602D01*
X0607253Y0371949D01*
X0608959Y0371949D01*
X0610535Y0372602D01*
X0611741Y0373808D01*
X0612394Y0375383D01*
X0612394Y0377089D01*
X0611741Y0378665D01*
X0610535Y0379871D01*
X0608959Y0380524D01*
X0607253Y0380524D01*
X0605481Y0379675D02*
X0600731Y0379675D01*
X0600535Y0379871D02*
X0598959Y0380524D01*
X0597253Y0380524D01*
X0595678Y0379871D01*
X0594472Y0378665D01*
X0593819Y0377089D01*
X0593819Y0375383D01*
X0594472Y0373808D01*
X0595678Y0372602D01*
X0597253Y0371949D01*
X0598959Y0371949D01*
X0600535Y0372602D01*
X0601741Y0373808D01*
X0602394Y0375383D01*
X0602394Y0377089D01*
X0601741Y0378665D01*
X0600535Y0379871D01*
X0601730Y0378676D02*
X0604483Y0378676D01*
X0604063Y0377678D02*
X0602150Y0377678D01*
X0602394Y0376679D02*
X0603819Y0376679D01*
X0603819Y0375681D02*
X0602394Y0375681D01*
X0602103Y0374682D02*
X0604109Y0374682D01*
X0604596Y0373684D02*
X0601617Y0373684D01*
X0600618Y0372685D02*
X0605594Y0372685D01*
X0607253Y0370524D02*
X0605678Y0369871D01*
X0604472Y0368665D01*
X0603819Y0367089D01*
X0603819Y0365383D01*
X0604472Y0363808D01*
X0605678Y0362602D01*
X0607253Y0361949D01*
X0608959Y0361949D01*
X0610535Y0362602D01*
X0611741Y0363808D01*
X0612394Y0365383D01*
X0612394Y0367089D01*
X0611741Y0368665D01*
X0610535Y0369871D01*
X0608959Y0370524D01*
X0607253Y0370524D01*
X0605496Y0369690D02*
X0600716Y0369690D01*
X0600535Y0369871D02*
X0598959Y0370524D01*
X0597253Y0370524D01*
X0595678Y0369871D01*
X0594472Y0368665D01*
X0593819Y0367089D01*
X0593819Y0365383D01*
X0594472Y0363808D01*
X0595678Y0362602D01*
X0597253Y0361949D01*
X0598959Y0361949D01*
X0600535Y0362602D01*
X0601741Y0363808D01*
X0602394Y0365383D01*
X0602394Y0367089D01*
X0601741Y0368665D01*
X0600535Y0369871D01*
X0601715Y0368691D02*
X0604498Y0368691D01*
X0604069Y0367693D02*
X0602144Y0367693D01*
X0602394Y0366694D02*
X0603819Y0366694D01*
X0603819Y0365696D02*
X0602394Y0365696D01*
X0602109Y0364697D02*
X0604103Y0364697D01*
X0604581Y0363699D02*
X0601632Y0363699D01*
X0600633Y0362700D02*
X0605579Y0362700D01*
X0607253Y0360524D02*
X0605678Y0359871D01*
X0604472Y0358665D01*
X0603819Y0357089D01*
X0603819Y0355383D01*
X0604472Y0353808D01*
X0605678Y0352602D01*
X0607253Y0351949D01*
X0608959Y0351949D01*
X0610535Y0352602D01*
X0611741Y0353808D01*
X0612394Y0355383D01*
X0612394Y0357089D01*
X0611741Y0358665D01*
X0610535Y0359871D01*
X0608959Y0360524D01*
X0607253Y0360524D01*
X0605511Y0359704D02*
X0600701Y0359704D01*
X0600535Y0359871D02*
X0598959Y0360524D01*
X0597253Y0360524D01*
X0595678Y0359871D01*
X0594472Y0358665D01*
X0593819Y0357089D01*
X0593819Y0355383D01*
X0594472Y0353808D01*
X0595678Y0352602D01*
X0597253Y0351949D01*
X0598959Y0351949D01*
X0600535Y0352602D01*
X0601741Y0353808D01*
X0602394Y0355383D01*
X0602394Y0357089D01*
X0601741Y0358665D01*
X0600535Y0359871D01*
X0601700Y0358706D02*
X0604513Y0358706D01*
X0604075Y0357707D02*
X0602138Y0357707D01*
X0602394Y0356709D02*
X0603819Y0356709D01*
X0603819Y0355710D02*
X0602394Y0355710D01*
X0602116Y0354712D02*
X0604097Y0354712D01*
X0604566Y0353713D02*
X0601647Y0353713D01*
X0600648Y0352715D02*
X0605564Y0352715D01*
X0607253Y0350524D02*
X0605678Y0349871D01*
X0604472Y0348665D01*
X0603819Y0347089D01*
X0603819Y0345383D01*
X0604472Y0343808D01*
X0605678Y0342602D01*
X0607253Y0341949D01*
X0608959Y0341949D01*
X0610535Y0342602D01*
X0611741Y0343808D01*
X0612394Y0345383D01*
X0612394Y0347089D01*
X0611741Y0348665D01*
X0610535Y0349871D01*
X0608959Y0350524D01*
X0607253Y0350524D01*
X0605526Y0349719D02*
X0600686Y0349719D01*
X0600535Y0349871D02*
X0598959Y0350524D01*
X0597253Y0350524D01*
X0595678Y0349871D01*
X0594472Y0348665D01*
X0593819Y0347089D01*
X0593819Y0345383D01*
X0594472Y0343808D01*
X0595678Y0342602D01*
X0597253Y0341949D01*
X0598959Y0341949D01*
X0600535Y0342602D01*
X0601741Y0343808D01*
X0602394Y0345383D01*
X0602394Y0347089D01*
X0601741Y0348665D01*
X0600535Y0349871D01*
X0601685Y0348721D02*
X0604528Y0348721D01*
X0604081Y0347722D02*
X0602131Y0347722D01*
X0602394Y0346724D02*
X0603819Y0346724D01*
X0603819Y0345725D02*
X0602394Y0345725D01*
X0602122Y0344727D02*
X0604091Y0344727D01*
X0604551Y0343728D02*
X0601662Y0343728D01*
X0600663Y0342730D02*
X0605549Y0342730D01*
X0607253Y0340524D02*
X0605678Y0339871D01*
X0604472Y0338665D01*
X0603819Y0337089D01*
X0603819Y0335383D01*
X0604472Y0333808D01*
X0605678Y0332602D01*
X0607253Y0331949D01*
X0608959Y0331949D01*
X0610535Y0332602D01*
X0611741Y0333808D01*
X0612394Y0335383D01*
X0612394Y0337089D01*
X0611741Y0338665D01*
X0610535Y0339871D01*
X0608959Y0340524D01*
X0607253Y0340524D01*
X0605541Y0339734D02*
X0600672Y0339734D01*
X0600535Y0339871D02*
X0598959Y0340524D01*
X0597253Y0340524D01*
X0595678Y0339871D01*
X0594472Y0338665D01*
X0593819Y0337089D01*
X0593819Y0335383D01*
X0594472Y0333808D01*
X0595678Y0332602D01*
X0597253Y0331949D01*
X0598959Y0331949D01*
X0600535Y0332602D01*
X0601741Y0333808D01*
X0602394Y0335383D01*
X0602394Y0337089D01*
X0601741Y0338665D01*
X0600535Y0339871D01*
X0601670Y0338736D02*
X0604543Y0338736D01*
X0604087Y0337737D02*
X0602125Y0337737D01*
X0602394Y0336739D02*
X0603819Y0336739D01*
X0603819Y0335740D02*
X0602394Y0335740D01*
X0602128Y0334742D02*
X0604085Y0334742D01*
X0604536Y0333743D02*
X0601677Y0333743D01*
X0600678Y0332745D02*
X0605535Y0332745D01*
X0607253Y0330524D02*
X0605678Y0329871D01*
X0604472Y0328665D01*
X0603819Y0327089D01*
X0603819Y0325383D01*
X0604472Y0323808D01*
X0605678Y0322602D01*
X0607253Y0321949D01*
X0608959Y0321949D01*
X0610535Y0322602D01*
X0611741Y0323808D01*
X0612394Y0325383D01*
X0612394Y0327089D01*
X0611741Y0328665D01*
X0610535Y0329871D01*
X0608959Y0330524D01*
X0607253Y0330524D01*
X0605556Y0329749D02*
X0600657Y0329749D01*
X0600535Y0329871D02*
X0598959Y0330524D01*
X0597253Y0330524D01*
X0595678Y0329871D01*
X0594472Y0328665D01*
X0593819Y0327089D01*
X0593819Y0325383D01*
X0594472Y0323808D01*
X0595678Y0322602D01*
X0597253Y0321949D01*
X0598959Y0321949D01*
X0600535Y0322602D01*
X0601741Y0323808D01*
X0602394Y0325383D01*
X0602394Y0327089D01*
X0601741Y0328665D01*
X0600535Y0329871D01*
X0601655Y0328751D02*
X0604557Y0328751D01*
X0604094Y0327752D02*
X0602119Y0327752D01*
X0602394Y0326754D02*
X0603819Y0326754D01*
X0603819Y0325755D02*
X0602394Y0325755D01*
X0602134Y0324757D02*
X0604079Y0324757D01*
X0604521Y0323758D02*
X0601691Y0323758D01*
X0600693Y0322760D02*
X0605520Y0322760D01*
X0610693Y0322760D02*
X0615520Y0322760D01*
X0615678Y0322602D02*
X0617253Y0321949D01*
X0618959Y0321949D01*
X0620535Y0322602D01*
X0621741Y0323808D01*
X0622394Y0325383D01*
X0622394Y0327089D01*
X0621741Y0328665D01*
X0620535Y0329871D01*
X0618959Y0330524D01*
X0617253Y0330524D01*
X0615678Y0329871D01*
X0614472Y0328665D01*
X0613819Y0327089D01*
X0613819Y0325383D01*
X0614472Y0323808D01*
X0615678Y0322602D01*
X0614521Y0323758D02*
X0611691Y0323758D01*
X0612134Y0324757D02*
X0614079Y0324757D01*
X0613819Y0325755D02*
X0612394Y0325755D01*
X0612394Y0326754D02*
X0613819Y0326754D01*
X0614094Y0327752D02*
X0612119Y0327752D01*
X0611655Y0328751D02*
X0614557Y0328751D01*
X0615556Y0329749D02*
X0610657Y0329749D01*
X0610678Y0332745D02*
X0615535Y0332745D01*
X0615678Y0332602D02*
X0617253Y0331949D01*
X0618959Y0331949D01*
X0620535Y0332602D01*
X0621741Y0333808D01*
X0622394Y0335383D01*
X0622394Y0337089D01*
X0621741Y0338665D01*
X0620535Y0339871D01*
X0618959Y0340524D01*
X0617253Y0340524D01*
X0615678Y0339871D01*
X0614472Y0338665D01*
X0613819Y0337089D01*
X0613819Y0335383D01*
X0614472Y0333808D01*
X0615678Y0332602D01*
X0614536Y0333743D02*
X0611677Y0333743D01*
X0612128Y0334742D02*
X0614085Y0334742D01*
X0613819Y0335740D02*
X0612394Y0335740D01*
X0612394Y0336739D02*
X0613819Y0336739D01*
X0614087Y0337737D02*
X0612125Y0337737D01*
X0611670Y0338736D02*
X0614543Y0338736D01*
X0615541Y0339734D02*
X0610672Y0339734D01*
X0610663Y0342730D02*
X0615549Y0342730D01*
X0615678Y0342602D02*
X0617253Y0341949D01*
X0618959Y0341949D01*
X0620535Y0342602D01*
X0621741Y0343808D01*
X0622394Y0345383D01*
X0622394Y0347089D01*
X0621741Y0348665D01*
X0620535Y0349871D01*
X0618959Y0350524D01*
X0617253Y0350524D01*
X0615678Y0349871D01*
X0614472Y0348665D01*
X0613819Y0347089D01*
X0613819Y0345383D01*
X0614472Y0343808D01*
X0615678Y0342602D01*
X0614551Y0343728D02*
X0611662Y0343728D01*
X0612122Y0344727D02*
X0614091Y0344727D01*
X0613819Y0345725D02*
X0612394Y0345725D01*
X0612394Y0346724D02*
X0613819Y0346724D01*
X0614081Y0347722D02*
X0612131Y0347722D01*
X0611685Y0348721D02*
X0614528Y0348721D01*
X0615526Y0349719D02*
X0610686Y0349719D01*
X0610648Y0352715D02*
X0615564Y0352715D01*
X0615678Y0352602D02*
X0617253Y0351949D01*
X0618959Y0351949D01*
X0620535Y0352602D01*
X0621741Y0353808D01*
X0622394Y0355383D01*
X0622394Y0357089D01*
X0621741Y0358665D01*
X0620535Y0359871D01*
X0618959Y0360524D01*
X0617253Y0360524D01*
X0615678Y0359871D01*
X0614472Y0358665D01*
X0613819Y0357089D01*
X0613819Y0355383D01*
X0614472Y0353808D01*
X0615678Y0352602D01*
X0614566Y0353713D02*
X0611647Y0353713D01*
X0612116Y0354712D02*
X0614097Y0354712D01*
X0613819Y0355710D02*
X0612394Y0355710D01*
X0612394Y0356709D02*
X0613819Y0356709D01*
X0614075Y0357707D02*
X0612138Y0357707D01*
X0611700Y0358706D02*
X0614513Y0358706D01*
X0615511Y0359704D02*
X0610701Y0359704D01*
X0610633Y0362700D02*
X0615579Y0362700D01*
X0615678Y0362602D02*
X0617253Y0361949D01*
X0618959Y0361949D01*
X0620535Y0362602D01*
X0621741Y0363808D01*
X0622394Y0365383D01*
X0622394Y0367089D01*
X0621741Y0368665D01*
X0620535Y0369871D01*
X0618959Y0370524D01*
X0617253Y0370524D01*
X0615678Y0369871D01*
X0614472Y0368665D01*
X0613819Y0367089D01*
X0613819Y0365383D01*
X0614472Y0363808D01*
X0615678Y0362602D01*
X0614581Y0363699D02*
X0611632Y0363699D01*
X0612109Y0364697D02*
X0614103Y0364697D01*
X0613819Y0365696D02*
X0612394Y0365696D01*
X0612394Y0366694D02*
X0613819Y0366694D01*
X0614069Y0367693D02*
X0612144Y0367693D01*
X0611715Y0368691D02*
X0614498Y0368691D01*
X0615496Y0369690D02*
X0610716Y0369690D01*
X0610618Y0372685D02*
X0615594Y0372685D01*
X0615678Y0372602D02*
X0617253Y0371949D01*
X0618959Y0371949D01*
X0620535Y0372602D01*
X0621741Y0373808D01*
X0622394Y0375383D01*
X0622394Y0377089D01*
X0621741Y0378665D01*
X0620535Y0379871D01*
X0618959Y0380524D01*
X0617253Y0380524D01*
X0615678Y0379871D01*
X0614472Y0378665D01*
X0613819Y0377089D01*
X0613819Y0375383D01*
X0614472Y0373808D01*
X0615678Y0372602D01*
X0614596Y0373684D02*
X0611617Y0373684D01*
X0612103Y0374682D02*
X0614109Y0374682D01*
X0613819Y0375681D02*
X0612394Y0375681D01*
X0612394Y0376679D02*
X0613819Y0376679D01*
X0614063Y0377678D02*
X0612150Y0377678D01*
X0611730Y0378676D02*
X0614483Y0378676D01*
X0615481Y0379675D02*
X0610731Y0379675D01*
X0610604Y0382670D02*
X0615609Y0382670D01*
X0615678Y0382602D02*
X0617253Y0381949D01*
X0618959Y0381949D01*
X0620535Y0382602D01*
X0621741Y0383808D01*
X0622394Y0385383D01*
X0622394Y0387089D01*
X0621741Y0388665D01*
X0620535Y0389871D01*
X0618959Y0390524D01*
X0617253Y0390524D01*
X0615678Y0389871D01*
X0614472Y0388665D01*
X0613819Y0387089D01*
X0613819Y0385383D01*
X0614472Y0383808D01*
X0615678Y0382602D01*
X0614610Y0383669D02*
X0611602Y0383669D01*
X0612097Y0384667D02*
X0614116Y0384667D01*
X0613819Y0385666D02*
X0612394Y0385666D01*
X0612394Y0386664D02*
X0613819Y0386664D01*
X0614057Y0387663D02*
X0612156Y0387663D01*
X0611742Y0388661D02*
X0614470Y0388661D01*
X0615467Y0389660D02*
X0610746Y0389660D01*
X0610589Y0392655D02*
X0615624Y0392655D01*
X0615678Y0392602D02*
X0617253Y0391949D01*
X0618959Y0391949D01*
X0620535Y0392602D01*
X0621741Y0393808D01*
X0622394Y0395383D01*
X0622394Y0397089D01*
X0621741Y0398665D01*
X0620535Y0399871D01*
X0618959Y0400524D01*
X0617253Y0400524D01*
X0615678Y0399871D01*
X0614472Y0398665D01*
X0613819Y0397089D01*
X0613819Y0395383D01*
X0614472Y0393808D01*
X0615678Y0392602D01*
X0614625Y0393654D02*
X0611587Y0393654D01*
X0612091Y0394652D02*
X0614122Y0394652D01*
X0613819Y0395651D02*
X0612394Y0395651D01*
X0612394Y0396649D02*
X0613819Y0396649D01*
X0614050Y0397648D02*
X0612162Y0397648D01*
X0611749Y0398646D02*
X0614464Y0398646D01*
X0615452Y0399645D02*
X0610761Y0399645D01*
X0610574Y0402640D02*
X0615639Y0402640D01*
X0615678Y0402602D02*
X0617253Y0401949D01*
X0618959Y0401949D01*
X0620535Y0402602D01*
X0621741Y0403808D01*
X0622394Y0405383D01*
X0622394Y0407089D01*
X0621741Y0408665D01*
X0620535Y0409871D01*
X0618959Y0410524D01*
X0617253Y0410524D01*
X0615678Y0409871D01*
X0614472Y0408665D01*
X0613819Y0407089D01*
X0613819Y0405383D01*
X0614472Y0403808D01*
X0615678Y0402602D01*
X0614640Y0403639D02*
X0611572Y0403639D01*
X0612085Y0404637D02*
X0614128Y0404637D01*
X0613819Y0405636D02*
X0612394Y0405636D01*
X0612394Y0406634D02*
X0613819Y0406634D01*
X0614044Y0407633D02*
X0612168Y0407633D01*
X0611755Y0408632D02*
X0614458Y0408632D01*
X0615437Y0409630D02*
X0610776Y0409630D01*
X0610559Y0412626D02*
X0615654Y0412626D01*
X0615678Y0412602D02*
X0617253Y0411949D01*
X0618959Y0411949D01*
X0620535Y0412602D01*
X0621741Y0413808D01*
X0622394Y0415383D01*
X0622394Y0417089D01*
X0621741Y0418665D01*
X0620535Y0419871D01*
X0618959Y0420524D01*
X0617253Y0420524D01*
X0615678Y0419871D01*
X0614472Y0418665D01*
X0613819Y0417089D01*
X0613819Y0415383D01*
X0614472Y0413808D01*
X0615678Y0412602D01*
X0614655Y0413624D02*
X0611557Y0413624D01*
X0612079Y0414623D02*
X0614134Y0414623D01*
X0613819Y0415621D02*
X0612394Y0415621D01*
X0612394Y0416620D02*
X0613819Y0416620D01*
X0614038Y0417618D02*
X0612175Y0417618D01*
X0611761Y0418617D02*
X0614452Y0418617D01*
X0615422Y0419615D02*
X0610791Y0419615D01*
X0610544Y0422611D02*
X0615669Y0422611D01*
X0615678Y0422602D02*
X0617253Y0421949D01*
X0618959Y0421949D01*
X0620535Y0422602D01*
X0621741Y0423808D01*
X0622394Y0425383D01*
X0622394Y0427089D01*
X0621741Y0428665D01*
X0620535Y0429871D01*
X0618959Y0430524D01*
X0617253Y0430524D01*
X0615678Y0429871D01*
X0614472Y0428665D01*
X0613819Y0427089D01*
X0613819Y0425383D01*
X0614472Y0423808D01*
X0615678Y0422602D01*
X0614670Y0423609D02*
X0611543Y0423609D01*
X0612072Y0424608D02*
X0614140Y0424608D01*
X0613819Y0425606D02*
X0612394Y0425606D01*
X0612394Y0426605D02*
X0613819Y0426605D01*
X0614032Y0427603D02*
X0612181Y0427603D01*
X0611767Y0428602D02*
X0614445Y0428602D01*
X0615407Y0429600D02*
X0610806Y0429600D01*
X0610521Y0432596D02*
X0615692Y0432596D01*
X0615678Y0432602D02*
X0617253Y0431949D01*
X0618959Y0431949D01*
X0620535Y0432602D01*
X0621741Y0433808D01*
X0622394Y0435383D01*
X0622394Y0437089D01*
X0621741Y0438665D01*
X0620535Y0439871D01*
X0618959Y0440524D01*
X0617253Y0440524D01*
X0615678Y0439871D01*
X0614472Y0438665D01*
X0613819Y0437089D01*
X0613819Y0435383D01*
X0614472Y0433808D01*
X0615678Y0432602D01*
X0614685Y0433594D02*
X0611528Y0433594D01*
X0612066Y0434593D02*
X0614146Y0434593D01*
X0613819Y0435591D02*
X0612394Y0435591D01*
X0612394Y0436590D02*
X0613819Y0436590D01*
X0614026Y0437588D02*
X0612187Y0437588D01*
X0611773Y0438587D02*
X0614439Y0438587D01*
X0615392Y0439585D02*
X0610820Y0439585D01*
X0610485Y0442581D02*
X0615727Y0442581D01*
X0615678Y0442602D02*
X0617253Y0441949D01*
X0618959Y0441949D01*
X0620535Y0442602D01*
X0621741Y0443808D01*
X0622394Y0445383D01*
X0622394Y0447089D01*
X0621741Y0448665D01*
X0620535Y0449871D01*
X0618959Y0450524D01*
X0617253Y0450524D01*
X0615678Y0449871D01*
X0614472Y0448665D01*
X0613819Y0447089D01*
X0613819Y0445383D01*
X0614472Y0443808D01*
X0615678Y0442602D01*
X0614700Y0443579D02*
X0611513Y0443579D01*
X0612060Y0444578D02*
X0614153Y0444578D01*
X0613819Y0445576D02*
X0612394Y0445576D01*
X0612394Y0446575D02*
X0613819Y0446575D01*
X0614020Y0447573D02*
X0612193Y0447573D01*
X0611779Y0448572D02*
X0614433Y0448572D01*
X0615377Y0449570D02*
X0610835Y0449570D01*
X0610449Y0452566D02*
X0615763Y0452566D01*
X0615678Y0452602D02*
X0617253Y0451949D01*
X0618959Y0451949D01*
X0620535Y0452602D01*
X0621741Y0453808D01*
X0622394Y0455383D01*
X0622394Y0457089D01*
X0621741Y0458665D01*
X0620535Y0459871D01*
X0618959Y0460524D01*
X0617253Y0460524D01*
X0615678Y0459871D01*
X0614472Y0458665D01*
X0613819Y0457089D01*
X0613819Y0455383D01*
X0614472Y0453808D01*
X0615678Y0452602D01*
X0614715Y0453565D02*
X0611498Y0453565D01*
X0612054Y0454563D02*
X0614159Y0454563D01*
X0613819Y0455562D02*
X0612394Y0455562D01*
X0612394Y0456560D02*
X0613819Y0456560D01*
X0614013Y0457559D02*
X0612199Y0457559D01*
X0611786Y0458557D02*
X0614427Y0458557D01*
X0615362Y0459556D02*
X0610850Y0459556D01*
X0610413Y0462551D02*
X0615799Y0462551D01*
X0615678Y0462602D02*
X0617253Y0461949D01*
X0618959Y0461949D01*
X0620535Y0462602D01*
X0621741Y0463808D01*
X0622394Y0465383D01*
X0622394Y0467089D01*
X0621741Y0468665D01*
X0620535Y0469871D01*
X0618959Y0470524D01*
X0617253Y0470524D01*
X0615678Y0469871D01*
X0614472Y0468665D01*
X0613819Y0467089D01*
X0613819Y0465383D01*
X0614472Y0463808D01*
X0615678Y0462602D01*
X0614730Y0463550D02*
X0611483Y0463550D01*
X0612048Y0464548D02*
X0614165Y0464548D01*
X0613819Y0465547D02*
X0612394Y0465547D01*
X0612394Y0466545D02*
X0613819Y0466545D01*
X0614007Y0467544D02*
X0612205Y0467544D01*
X0611792Y0468542D02*
X0614421Y0468542D01*
X0615348Y0469541D02*
X0610865Y0469541D01*
X0610377Y0472536D02*
X0615835Y0472536D01*
X0615678Y0472602D02*
X0617253Y0471949D01*
X0618959Y0471949D01*
X0620535Y0472602D01*
X0621741Y0473808D01*
X0622394Y0475383D01*
X0622394Y0477089D01*
X0621741Y0478665D01*
X0620535Y0479871D01*
X0618959Y0480524D01*
X0617253Y0480524D01*
X0615678Y0479871D01*
X0614472Y0478665D01*
X0613819Y0477089D01*
X0613819Y0475383D01*
X0614472Y0473808D01*
X0615678Y0472602D01*
X0614744Y0473535D02*
X0611468Y0473535D01*
X0612042Y0474533D02*
X0614171Y0474533D01*
X0613819Y0475532D02*
X0612394Y0475532D01*
X0612394Y0476530D02*
X0613819Y0476530D01*
X0614001Y0477529D02*
X0612212Y0477529D01*
X0611798Y0478527D02*
X0614415Y0478527D01*
X0615333Y0479526D02*
X0610880Y0479526D01*
X0610341Y0482521D02*
X0615871Y0482521D01*
X0614759Y0483520D02*
X0611453Y0483520D01*
X0612035Y0484518D02*
X0614177Y0484518D01*
X0613819Y0485517D02*
X0612394Y0485517D01*
X0612394Y0486515D02*
X0613819Y0486515D01*
X0613995Y0487514D02*
X0612218Y0487514D01*
X0611804Y0488512D02*
X0614409Y0488512D01*
X0615318Y0489511D02*
X0610895Y0489511D01*
X0605907Y0492506D02*
X0600305Y0492506D01*
X0601438Y0493505D02*
X0604774Y0493505D01*
X0604183Y0494503D02*
X0602029Y0494503D01*
X0602394Y0495502D02*
X0603819Y0495502D01*
X0603819Y0496501D02*
X0602394Y0496501D01*
X0602224Y0497499D02*
X0603989Y0497499D01*
X0604402Y0498498D02*
X0601810Y0498498D01*
X0600910Y0499496D02*
X0605303Y0499496D01*
X0610269Y0502492D02*
X0615943Y0502492D01*
X0614789Y0503490D02*
X0611423Y0503490D01*
X0612023Y0504489D02*
X0614190Y0504489D01*
X0613819Y0505487D02*
X0612394Y0505487D01*
X0612394Y0506486D02*
X0613819Y0506486D01*
X0613983Y0507484D02*
X0612230Y0507484D01*
X0611816Y0508483D02*
X0614396Y0508483D01*
X0615288Y0509481D02*
X0610925Y0509481D01*
X0610704Y0518468D02*
X0621793Y0518468D01*
X0622015Y0518396D02*
X0622524Y0518315D01*
X0622524Y0522047D01*
X0623492Y0522047D01*
X0623492Y0523016D01*
X0622524Y0523016D01*
X0622524Y0526748D01*
X0622015Y0526667D01*
X0621380Y0526461D01*
X0620786Y0526158D01*
X0620246Y0525766D01*
X0619774Y0525294D01*
X0619381Y0524754D01*
X0619078Y0524159D01*
X0618872Y0523524D01*
X0618792Y0523016D01*
X0622524Y0523016D01*
X0622524Y0522047D01*
X0618792Y0522047D01*
X0618872Y0521539D01*
X0619078Y0520904D01*
X0619381Y0520309D01*
X0619774Y0519769D01*
X0620246Y0519297D01*
X0620786Y0518905D01*
X0621380Y0518602D01*
X0622015Y0518396D01*
X0622524Y0518468D02*
X0623492Y0518468D01*
X0623492Y0519466D02*
X0622524Y0519466D01*
X0622524Y0520465D02*
X0623492Y0520465D01*
X0623492Y0521463D02*
X0622524Y0521463D01*
X0622524Y0522462D02*
X0618075Y0522462D01*
X0618075Y0521727D02*
X0617459Y0520241D01*
X0616322Y0519104D01*
X0614836Y0518488D01*
X0613227Y0518488D01*
X0611741Y0519104D01*
X0610604Y0520241D01*
X0609988Y0521727D01*
X0609988Y0523336D01*
X0610604Y0524822D01*
X0611741Y0525959D01*
X0613227Y0526575D01*
X0614836Y0526575D01*
X0616322Y0525959D01*
X0617459Y0524822D01*
X0618075Y0523336D01*
X0618075Y0521727D01*
X0617965Y0521463D02*
X0618897Y0521463D01*
X0619302Y0520465D02*
X0617552Y0520465D01*
X0616684Y0519466D02*
X0620077Y0519466D01*
X0618862Y0523460D02*
X0618023Y0523460D01*
X0617610Y0524459D02*
X0619231Y0524459D01*
X0619937Y0525457D02*
X0616824Y0525457D01*
X0615123Y0526456D02*
X0621370Y0526456D01*
X0622524Y0526456D02*
X0623492Y0526456D01*
X0623492Y0526748D02*
X0624001Y0526667D01*
X0624636Y0526461D01*
X0625230Y0526158D01*
X0625770Y0525766D01*
X0626242Y0525294D01*
X0626634Y0524754D01*
X0626937Y0524159D01*
X0627144Y0523524D01*
X0627224Y0523016D01*
X0623492Y0523016D01*
X0623492Y0526748D01*
X0624646Y0526456D02*
X0631402Y0526456D01*
X0629937Y0525457D02*
X0626078Y0525457D01*
X0626785Y0524459D02*
X0629217Y0524459D01*
X0628803Y0523460D02*
X0627154Y0523460D01*
X0623492Y0523460D02*
X0622524Y0523460D01*
X0622524Y0524459D02*
X0623492Y0524459D01*
X0623492Y0525457D02*
X0622524Y0525457D01*
X0612940Y0526456D02*
X0609098Y0526456D01*
X0609098Y0527454D02*
X0656917Y0527454D01*
X0656917Y0526456D02*
X0653076Y0526456D01*
X0652789Y0526575D02*
X0651180Y0526575D01*
X0649694Y0525959D01*
X0648556Y0524822D01*
X0647941Y0523336D01*
X0647941Y0521727D01*
X0648556Y0520241D01*
X0649694Y0519104D01*
X0651180Y0518488D01*
X0652789Y0518488D01*
X0654275Y0519104D01*
X0655412Y0520241D01*
X0656028Y0521727D01*
X0656028Y0523336D01*
X0655412Y0524822D01*
X0654275Y0525959D01*
X0652789Y0526575D01*
X0650893Y0526456D02*
X0644614Y0526456D01*
X0646078Y0525457D02*
X0649192Y0525457D01*
X0648406Y0524459D02*
X0646799Y0524459D01*
X0647213Y0523460D02*
X0647993Y0523460D01*
X0647941Y0522462D02*
X0647248Y0522462D01*
X0647155Y0521463D02*
X0648050Y0521463D01*
X0648464Y0520465D02*
X0646741Y0520465D01*
X0646295Y0519466D02*
X0649331Y0519466D01*
X0646295Y0518468D02*
X0655312Y0518468D01*
X0655624Y0519009D02*
X0655624Y0519009D01*
X0655624Y0519009D01*
X0656416Y0519466D02*
X0654637Y0519466D01*
X0655505Y0520465D02*
X0656917Y0520465D01*
X0656917Y0521463D02*
X0655918Y0521463D01*
X0656028Y0522462D02*
X0656917Y0522462D01*
X0656917Y0523460D02*
X0655976Y0523460D01*
X0655562Y0524459D02*
X0656917Y0524459D01*
X0656917Y0525457D02*
X0654776Y0525457D01*
X0656917Y0528453D02*
X0609098Y0528453D01*
X0609098Y0529451D02*
X0656917Y0529451D01*
X0656917Y0530450D02*
X0609098Y0530450D01*
X0609098Y0525457D02*
X0611239Y0525457D01*
X0610453Y0524459D02*
X0609098Y0524459D01*
X0609098Y0523460D02*
X0610040Y0523460D01*
X0609988Y0522462D02*
X0609098Y0522462D01*
X0609098Y0521463D02*
X0610098Y0521463D01*
X0610511Y0520465D02*
X0609098Y0520465D01*
X0609600Y0519466D02*
X0611379Y0519466D01*
X0610391Y0519009D02*
X0610391Y0519009D01*
X0610391Y0519009D01*
X0620925Y0509481D02*
X0625288Y0509481D01*
X0624396Y0508483D02*
X0621816Y0508483D01*
X0622230Y0507484D02*
X0623983Y0507484D01*
X0623819Y0506486D02*
X0622394Y0506486D01*
X0622394Y0505487D02*
X0623819Y0505487D01*
X0624190Y0504489D02*
X0622023Y0504489D01*
X0621423Y0503490D02*
X0624789Y0503490D01*
X0625943Y0502492D02*
X0620269Y0502492D01*
X0620910Y0499496D02*
X0625303Y0499496D01*
X0624402Y0498498D02*
X0621810Y0498498D01*
X0622224Y0497499D02*
X0623989Y0497499D01*
X0623819Y0496501D02*
X0622394Y0496501D01*
X0622394Y0495502D02*
X0623819Y0495502D01*
X0624183Y0494503D02*
X0622029Y0494503D01*
X0621438Y0493505D02*
X0624774Y0493505D01*
X0625907Y0492506D02*
X0620305Y0492506D01*
X0620895Y0489511D02*
X0625318Y0489511D01*
X0624409Y0488512D02*
X0621804Y0488512D01*
X0622218Y0487514D02*
X0623995Y0487514D01*
X0623819Y0486515D02*
X0622394Y0486515D01*
X0622394Y0485517D02*
X0623819Y0485517D01*
X0624177Y0484518D02*
X0622035Y0484518D01*
X0621453Y0483520D02*
X0624759Y0483520D01*
X0625871Y0482521D02*
X0620341Y0482521D01*
X0620880Y0479526D02*
X0625333Y0479526D01*
X0625678Y0479871D02*
X0624472Y0478665D01*
X0623819Y0477089D01*
X0623819Y0475383D01*
X0624472Y0473808D01*
X0625678Y0472602D01*
X0627253Y0471949D01*
X0628959Y0471949D01*
X0630535Y0472602D01*
X0631741Y0473808D01*
X0632394Y0475383D01*
X0632394Y0477089D01*
X0631741Y0478665D01*
X0630535Y0479871D01*
X0628959Y0480524D01*
X0627253Y0480524D01*
X0625678Y0479871D01*
X0624415Y0478527D02*
X0621798Y0478527D01*
X0622212Y0477529D02*
X0624001Y0477529D01*
X0623819Y0476530D02*
X0622394Y0476530D01*
X0622394Y0475532D02*
X0623819Y0475532D01*
X0624171Y0474533D02*
X0622042Y0474533D01*
X0621468Y0473535D02*
X0624744Y0473535D01*
X0625835Y0472536D02*
X0620377Y0472536D01*
X0620865Y0469541D02*
X0625348Y0469541D01*
X0625678Y0469871D02*
X0624472Y0468665D01*
X0623819Y0467089D01*
X0623819Y0465383D01*
X0624472Y0463808D01*
X0625678Y0462602D01*
X0627253Y0461949D01*
X0628959Y0461949D01*
X0630535Y0462602D01*
X0631741Y0463808D01*
X0632394Y0465383D01*
X0632394Y0467089D01*
X0631741Y0468665D01*
X0630535Y0469871D01*
X0628959Y0470524D01*
X0627253Y0470524D01*
X0625678Y0469871D01*
X0624421Y0468542D02*
X0621792Y0468542D01*
X0622205Y0467544D02*
X0624007Y0467544D01*
X0623819Y0466545D02*
X0622394Y0466545D01*
X0622394Y0465547D02*
X0623819Y0465547D01*
X0624165Y0464548D02*
X0622048Y0464548D01*
X0621483Y0463550D02*
X0624730Y0463550D01*
X0625799Y0462551D02*
X0620413Y0462551D01*
X0620850Y0459556D02*
X0625362Y0459556D01*
X0625678Y0459871D02*
X0624472Y0458665D01*
X0623819Y0457089D01*
X0623819Y0455383D01*
X0624472Y0453808D01*
X0625678Y0452602D01*
X0627253Y0451949D01*
X0628959Y0451949D01*
X0630535Y0452602D01*
X0631741Y0453808D01*
X0632394Y0455383D01*
X0632394Y0457089D01*
X0631741Y0458665D01*
X0630535Y0459871D01*
X0628959Y0460524D01*
X0627253Y0460524D01*
X0625678Y0459871D01*
X0624427Y0458557D02*
X0621786Y0458557D01*
X0622199Y0457559D02*
X0624013Y0457559D01*
X0623819Y0456560D02*
X0622394Y0456560D01*
X0622394Y0455562D02*
X0623819Y0455562D01*
X0624159Y0454563D02*
X0622054Y0454563D01*
X0621498Y0453565D02*
X0624715Y0453565D01*
X0625763Y0452566D02*
X0620449Y0452566D01*
X0620835Y0449570D02*
X0625377Y0449570D01*
X0625678Y0449871D02*
X0624472Y0448665D01*
X0623819Y0447089D01*
X0623819Y0445383D01*
X0624472Y0443808D01*
X0625678Y0442602D01*
X0627253Y0441949D01*
X0628959Y0441949D01*
X0630535Y0442602D01*
X0631741Y0443808D01*
X0632394Y0445383D01*
X0632394Y0447089D01*
X0631741Y0448665D01*
X0630535Y0449871D01*
X0628959Y0450524D01*
X0627253Y0450524D01*
X0625678Y0449871D01*
X0624433Y0448572D02*
X0621779Y0448572D01*
X0622193Y0447573D02*
X0624020Y0447573D01*
X0623819Y0446575D02*
X0622394Y0446575D01*
X0622394Y0445576D02*
X0623819Y0445576D01*
X0624153Y0444578D02*
X0622060Y0444578D01*
X0621513Y0443579D02*
X0624700Y0443579D01*
X0625727Y0442581D02*
X0620485Y0442581D01*
X0620820Y0439585D02*
X0625392Y0439585D01*
X0625678Y0439871D02*
X0624472Y0438665D01*
X0623819Y0437089D01*
X0623819Y0435383D01*
X0624472Y0433808D01*
X0625678Y0432602D01*
X0627253Y0431949D01*
X0628959Y0431949D01*
X0630535Y0432602D01*
X0631741Y0433808D01*
X0632394Y0435383D01*
X0632394Y0437089D01*
X0631741Y0438665D01*
X0630535Y0439871D01*
X0628959Y0440524D01*
X0627253Y0440524D01*
X0625678Y0439871D01*
X0624439Y0438587D02*
X0621773Y0438587D01*
X0622187Y0437588D02*
X0624026Y0437588D01*
X0623819Y0436590D02*
X0622394Y0436590D01*
X0622394Y0435591D02*
X0623819Y0435591D01*
X0624146Y0434593D02*
X0622066Y0434593D01*
X0621528Y0433594D02*
X0624685Y0433594D01*
X0625692Y0432596D02*
X0620521Y0432596D01*
X0620806Y0429600D02*
X0625407Y0429600D01*
X0625678Y0429871D02*
X0624472Y0428665D01*
X0623819Y0427089D01*
X0623819Y0425383D01*
X0624472Y0423808D01*
X0625678Y0422602D01*
X0627253Y0421949D01*
X0628959Y0421949D01*
X0630535Y0422602D01*
X0631741Y0423808D01*
X0632394Y0425383D01*
X0632394Y0427089D01*
X0631741Y0428665D01*
X0630535Y0429871D01*
X0628959Y0430524D01*
X0627253Y0430524D01*
X0625678Y0429871D01*
X0624445Y0428602D02*
X0621767Y0428602D01*
X0622181Y0427603D02*
X0624032Y0427603D01*
X0623819Y0426605D02*
X0622394Y0426605D01*
X0622394Y0425606D02*
X0623819Y0425606D01*
X0624140Y0424608D02*
X0622072Y0424608D01*
X0621543Y0423609D02*
X0624670Y0423609D01*
X0625669Y0422611D02*
X0620544Y0422611D01*
X0620791Y0419615D02*
X0625422Y0419615D01*
X0625678Y0419871D02*
X0624472Y0418665D01*
X0623819Y0417089D01*
X0623819Y0415383D01*
X0624472Y0413808D01*
X0625678Y0412602D01*
X0627253Y0411949D01*
X0628959Y0411949D01*
X0630535Y0412602D01*
X0631741Y0413808D01*
X0632394Y0415383D01*
X0632394Y0417089D01*
X0631741Y0418665D01*
X0630535Y0419871D01*
X0628959Y0420524D01*
X0627253Y0420524D01*
X0625678Y0419871D01*
X0624452Y0418617D02*
X0621761Y0418617D01*
X0622175Y0417618D02*
X0624038Y0417618D01*
X0623819Y0416620D02*
X0622394Y0416620D01*
X0622394Y0415621D02*
X0623819Y0415621D01*
X0624134Y0414623D02*
X0622079Y0414623D01*
X0621557Y0413624D02*
X0624655Y0413624D01*
X0625654Y0412626D02*
X0620559Y0412626D01*
X0620776Y0409630D02*
X0625437Y0409630D01*
X0625678Y0409871D02*
X0624472Y0408665D01*
X0623819Y0407089D01*
X0623819Y0405383D01*
X0624472Y0403808D01*
X0625678Y0402602D01*
X0627253Y0401949D01*
X0628959Y0401949D01*
X0630535Y0402602D01*
X0631741Y0403808D01*
X0632394Y0405383D01*
X0632394Y0407089D01*
X0631741Y0408665D01*
X0630535Y0409871D01*
X0628959Y0410524D01*
X0627253Y0410524D01*
X0625678Y0409871D01*
X0624458Y0408632D02*
X0621755Y0408632D01*
X0622168Y0407633D02*
X0624044Y0407633D01*
X0623819Y0406634D02*
X0622394Y0406634D01*
X0622394Y0405636D02*
X0623819Y0405636D01*
X0624128Y0404637D02*
X0622085Y0404637D01*
X0621572Y0403639D02*
X0624640Y0403639D01*
X0625639Y0402640D02*
X0620574Y0402640D01*
X0620761Y0399645D02*
X0625452Y0399645D01*
X0625678Y0399871D02*
X0624472Y0398665D01*
X0623819Y0397089D01*
X0623819Y0395383D01*
X0624472Y0393808D01*
X0625678Y0392602D01*
X0627253Y0391949D01*
X0628959Y0391949D01*
X0630535Y0392602D01*
X0631741Y0393808D01*
X0632394Y0395383D01*
X0632394Y0397089D01*
X0631741Y0398665D01*
X0630535Y0399871D01*
X0628959Y0400524D01*
X0627253Y0400524D01*
X0625678Y0399871D01*
X0624464Y0398646D02*
X0621749Y0398646D01*
X0622162Y0397648D02*
X0624050Y0397648D01*
X0623819Y0396649D02*
X0622394Y0396649D01*
X0622394Y0395651D02*
X0623819Y0395651D01*
X0624122Y0394652D02*
X0622091Y0394652D01*
X0621587Y0393654D02*
X0624625Y0393654D01*
X0625624Y0392655D02*
X0620589Y0392655D01*
X0620746Y0389660D02*
X0625467Y0389660D01*
X0625678Y0389871D02*
X0624472Y0388665D01*
X0623819Y0387089D01*
X0623819Y0385383D01*
X0624472Y0383808D01*
X0625678Y0382602D01*
X0627253Y0381949D01*
X0628959Y0381949D01*
X0630535Y0382602D01*
X0631741Y0383808D01*
X0632394Y0385383D01*
X0632394Y0387089D01*
X0631741Y0388665D01*
X0630535Y0389871D01*
X0628959Y0390524D01*
X0627253Y0390524D01*
X0625678Y0389871D01*
X0624470Y0388661D02*
X0621742Y0388661D01*
X0622156Y0387663D02*
X0624057Y0387663D01*
X0623819Y0386664D02*
X0622394Y0386664D01*
X0622394Y0385666D02*
X0623819Y0385666D01*
X0624116Y0384667D02*
X0622097Y0384667D01*
X0621602Y0383669D02*
X0624610Y0383669D01*
X0625609Y0382670D02*
X0620604Y0382670D01*
X0620731Y0379675D02*
X0625481Y0379675D01*
X0625678Y0379871D02*
X0624472Y0378665D01*
X0623819Y0377089D01*
X0623819Y0375383D01*
X0624472Y0373808D01*
X0625678Y0372602D01*
X0627253Y0371949D01*
X0628959Y0371949D01*
X0630535Y0372602D01*
X0631741Y0373808D01*
X0632394Y0375383D01*
X0632394Y0377089D01*
X0631741Y0378665D01*
X0630535Y0379871D01*
X0628959Y0380524D01*
X0627253Y0380524D01*
X0625678Y0379871D01*
X0624483Y0378676D02*
X0621730Y0378676D01*
X0622150Y0377678D02*
X0624063Y0377678D01*
X0623819Y0376679D02*
X0622394Y0376679D01*
X0622394Y0375681D02*
X0623819Y0375681D01*
X0624109Y0374682D02*
X0622103Y0374682D01*
X0621617Y0373684D02*
X0624596Y0373684D01*
X0625594Y0372685D02*
X0620618Y0372685D01*
X0620716Y0369690D02*
X0625496Y0369690D01*
X0625678Y0369871D02*
X0624472Y0368665D01*
X0623819Y0367089D01*
X0623819Y0365383D01*
X0624472Y0363808D01*
X0625678Y0362602D01*
X0627253Y0361949D01*
X0628959Y0361949D01*
X0630535Y0362602D01*
X0631741Y0363808D01*
X0632394Y0365383D01*
X0632394Y0367089D01*
X0631741Y0368665D01*
X0630535Y0369871D01*
X0628959Y0370524D01*
X0627253Y0370524D01*
X0625678Y0369871D01*
X0624498Y0368691D02*
X0621715Y0368691D01*
X0622144Y0367693D02*
X0624069Y0367693D01*
X0623819Y0366694D02*
X0622394Y0366694D01*
X0622394Y0365696D02*
X0623819Y0365696D01*
X0624103Y0364697D02*
X0622109Y0364697D01*
X0621632Y0363699D02*
X0624581Y0363699D01*
X0625579Y0362700D02*
X0620633Y0362700D01*
X0620701Y0359704D02*
X0625511Y0359704D01*
X0625678Y0359871D02*
X0624472Y0358665D01*
X0623819Y0357089D01*
X0623819Y0355383D01*
X0624472Y0353808D01*
X0625678Y0352602D01*
X0627253Y0351949D01*
X0628959Y0351949D01*
X0630535Y0352602D01*
X0631741Y0353808D01*
X0632394Y0355383D01*
X0632394Y0357089D01*
X0631741Y0358665D01*
X0630535Y0359871D01*
X0628959Y0360524D01*
X0627253Y0360524D01*
X0625678Y0359871D01*
X0624513Y0358706D02*
X0621700Y0358706D01*
X0622138Y0357707D02*
X0624075Y0357707D01*
X0623819Y0356709D02*
X0622394Y0356709D01*
X0622394Y0355710D02*
X0623819Y0355710D01*
X0624097Y0354712D02*
X0622116Y0354712D01*
X0621647Y0353713D02*
X0624566Y0353713D01*
X0625564Y0352715D02*
X0620648Y0352715D01*
X0620686Y0349719D02*
X0625526Y0349719D01*
X0625678Y0349871D02*
X0624472Y0348665D01*
X0623819Y0347089D01*
X0623819Y0345383D01*
X0624472Y0343808D01*
X0625678Y0342602D01*
X0627253Y0341949D01*
X0628959Y0341949D01*
X0630535Y0342602D01*
X0631741Y0343808D01*
X0632394Y0345383D01*
X0632394Y0347089D01*
X0631741Y0348665D01*
X0630535Y0349871D01*
X0628959Y0350524D01*
X0627253Y0350524D01*
X0625678Y0349871D01*
X0624528Y0348721D02*
X0621685Y0348721D01*
X0622131Y0347722D02*
X0624081Y0347722D01*
X0623819Y0346724D02*
X0622394Y0346724D01*
X0622394Y0345725D02*
X0623819Y0345725D01*
X0624091Y0344727D02*
X0622122Y0344727D01*
X0621662Y0343728D02*
X0624551Y0343728D01*
X0625549Y0342730D02*
X0620663Y0342730D01*
X0620672Y0339734D02*
X0625541Y0339734D01*
X0625678Y0339871D02*
X0624472Y0338665D01*
X0623819Y0337089D01*
X0623819Y0335383D01*
X0624472Y0333808D01*
X0625678Y0332602D01*
X0627253Y0331949D01*
X0628959Y0331949D01*
X0630535Y0332602D01*
X0631741Y0333808D01*
X0632394Y0335383D01*
X0632394Y0337089D01*
X0631741Y0338665D01*
X0630535Y0339871D01*
X0628959Y0340524D01*
X0627253Y0340524D01*
X0625678Y0339871D01*
X0624543Y0338736D02*
X0621670Y0338736D01*
X0622125Y0337737D02*
X0624087Y0337737D01*
X0623819Y0336739D02*
X0622394Y0336739D01*
X0622394Y0335740D02*
X0623819Y0335740D01*
X0624085Y0334742D02*
X0622128Y0334742D01*
X0621677Y0333743D02*
X0624536Y0333743D01*
X0625535Y0332745D02*
X0620678Y0332745D01*
X0620657Y0329749D02*
X0625556Y0329749D01*
X0625678Y0329871D02*
X0624472Y0328665D01*
X0623819Y0327089D01*
X0623819Y0325383D01*
X0624472Y0323808D01*
X0625678Y0322602D01*
X0627253Y0321949D01*
X0627365Y0321949D01*
X0629740Y0319101D01*
X0629740Y0315067D01*
X0629413Y0314740D01*
X0628768Y0313182D01*
X0628768Y0311495D01*
X0629413Y0309937D01*
X0630606Y0308744D01*
X0632164Y0308098D01*
X0633851Y0308098D01*
X0635410Y0308744D01*
X0636602Y0309937D01*
X0637248Y0311495D01*
X0637248Y0313182D01*
X0636602Y0314740D01*
X0636315Y0315028D01*
X0636315Y0320143D01*
X0636361Y0320646D01*
X0636315Y0320792D01*
X0636315Y0320945D01*
X0636122Y0321412D01*
X0635971Y0321894D01*
X0635873Y0322012D01*
X0635814Y0322153D01*
X0635457Y0322511D01*
X0635108Y0322929D01*
X0635350Y0322929D01*
X0635678Y0322602D01*
X0637253Y0321949D01*
X0638959Y0321949D01*
X0640535Y0322602D01*
X0641741Y0323808D01*
X0642394Y0325383D01*
X0642394Y0327089D01*
X0641741Y0328665D01*
X0640535Y0329871D01*
X0638959Y0330524D01*
X0637253Y0330524D01*
X0635678Y0329871D01*
X0635311Y0329504D01*
X0630902Y0329504D01*
X0630535Y0329871D01*
X0628959Y0330524D01*
X0627253Y0330524D01*
X0625678Y0329871D01*
X0624557Y0328751D02*
X0621655Y0328751D01*
X0622119Y0327752D02*
X0624094Y0327752D01*
X0623819Y0326754D02*
X0622394Y0326754D01*
X0622394Y0325755D02*
X0623819Y0325755D01*
X0624079Y0324757D02*
X0622134Y0324757D01*
X0621691Y0323758D02*
X0624521Y0323758D01*
X0625520Y0322760D02*
X0620693Y0322760D01*
X0622015Y0316474D02*
X0621380Y0316268D01*
X0620786Y0315965D01*
X0620246Y0315573D01*
X0619774Y0315101D01*
X0619381Y0314561D01*
X0619078Y0313966D01*
X0618872Y0313331D01*
X0618792Y0312823D01*
X0622524Y0312823D01*
X0622524Y0316555D01*
X0622015Y0316474D01*
X0622524Y0315770D02*
X0623492Y0315770D01*
X0623492Y0316555D02*
X0624001Y0316474D01*
X0624636Y0316268D01*
X0625230Y0315965D01*
X0625770Y0315573D01*
X0626242Y0315101D01*
X0626634Y0314561D01*
X0626937Y0313966D01*
X0627144Y0313331D01*
X0627224Y0312823D01*
X0623492Y0312823D01*
X0622524Y0312823D01*
X0622524Y0311854D01*
X0623492Y0311854D01*
X0623492Y0308122D01*
X0624001Y0308203D01*
X0624636Y0308409D01*
X0625230Y0308712D01*
X0625770Y0309104D01*
X0626242Y0309576D01*
X0626634Y0310116D01*
X0626937Y0310711D01*
X0627144Y0311346D01*
X0627224Y0311854D01*
X0623492Y0311854D01*
X0623492Y0312823D01*
X0623492Y0316555D01*
X0623492Y0314771D02*
X0622524Y0314771D01*
X0622524Y0313773D02*
X0623492Y0313773D01*
X0623492Y0312774D02*
X0628768Y0312774D01*
X0628768Y0311776D02*
X0627212Y0311776D01*
X0626959Y0310777D02*
X0629065Y0310777D01*
X0629571Y0309779D02*
X0626389Y0309779D01*
X0625324Y0308780D02*
X0630570Y0308780D01*
X0629585Y0306955D02*
X0627418Y0306955D01*
X0626951Y0306488D01*
X0626080Y0305617D01*
X0626080Y0302516D01*
X0626547Y0302049D01*
X0627418Y0301178D01*
X0629585Y0301178D01*
X0630178Y0301771D01*
X0630232Y0301611D01*
X0630339Y0301557D01*
X0630393Y0301449D01*
X0630877Y0301288D01*
X0631334Y0301059D01*
X0631448Y0301097D01*
X0631562Y0301059D01*
X0632019Y0301288D01*
X0632503Y0301449D01*
X0632557Y0301557D01*
X0632664Y0301611D01*
X0632718Y0301771D01*
X0633311Y0301178D01*
X0635478Y0301178D01*
X0635945Y0301645D01*
X0636323Y0302023D01*
X0637168Y0301178D01*
X0638400Y0301178D01*
X0639271Y0302049D01*
X0639271Y0305150D01*
X0638400Y0306021D01*
X0635767Y0306021D01*
X0635622Y0305876D01*
X0635478Y0306021D01*
X0633311Y0306021D01*
X0633119Y0305828D01*
X0632496Y0306140D01*
X0631448Y0305790D01*
X0630400Y0306139D01*
X0629585Y0306955D01*
X0629756Y0306783D02*
X0648555Y0306783D01*
X0648556Y0306781D02*
X0649694Y0305643D01*
X0651180Y0305028D01*
X0652789Y0305028D01*
X0654275Y0305643D01*
X0655412Y0306781D01*
X0656028Y0308267D01*
X0656028Y0309875D01*
X0655412Y0311361D01*
X0654275Y0312499D01*
X0652789Y0313114D01*
X0651180Y0313114D01*
X0649694Y0312499D01*
X0648556Y0311361D01*
X0647941Y0309875D01*
X0647941Y0308267D01*
X0648556Y0306781D01*
X0648142Y0307782D02*
X0617874Y0307782D01*
X0618075Y0308267D02*
X0617459Y0306781D01*
X0616322Y0305643D01*
X0614836Y0305028D01*
X0613227Y0305028D01*
X0611741Y0305643D01*
X0610604Y0306781D01*
X0609988Y0308267D01*
X0609988Y0309875D01*
X0610604Y0311361D01*
X0611741Y0312499D01*
X0613227Y0313114D01*
X0614836Y0313114D01*
X0616322Y0312499D01*
X0617459Y0311361D01*
X0618075Y0309875D01*
X0618075Y0308267D01*
X0618075Y0308780D02*
X0620692Y0308780D01*
X0620786Y0308712D02*
X0621380Y0308409D01*
X0622015Y0308203D01*
X0622524Y0308122D01*
X0622524Y0311854D01*
X0618792Y0311854D01*
X0618872Y0311346D01*
X0619078Y0310711D01*
X0619381Y0310116D01*
X0619774Y0309576D01*
X0620246Y0309104D01*
X0620786Y0308712D01*
X0619626Y0309779D02*
X0618075Y0309779D01*
X0617701Y0310777D02*
X0619057Y0310777D01*
X0618804Y0311776D02*
X0617045Y0311776D01*
X0615656Y0312774D02*
X0622524Y0312774D01*
X0622524Y0311776D02*
X0623492Y0311776D01*
X0623492Y0310777D02*
X0622524Y0310777D01*
X0622524Y0309779D02*
X0623492Y0309779D01*
X0623492Y0308780D02*
X0622524Y0308780D01*
X0626248Y0305785D02*
X0616464Y0305785D01*
X0617460Y0306783D02*
X0627246Y0306783D01*
X0626080Y0304786D02*
X0609098Y0304786D01*
X0609098Y0303788D02*
X0626080Y0303788D01*
X0626080Y0302789D02*
X0609098Y0302789D01*
X0609098Y0301791D02*
X0626805Y0301791D01*
X0636090Y0301791D02*
X0636555Y0301791D01*
X0639013Y0301791D02*
X0656917Y0301791D01*
X0656917Y0302789D02*
X0639271Y0302789D01*
X0639271Y0303788D02*
X0656917Y0303788D01*
X0656917Y0304786D02*
X0639271Y0304786D01*
X0638636Y0305785D02*
X0649552Y0305785D01*
X0647941Y0308780D02*
X0645446Y0308780D01*
X0646445Y0309779D02*
X0647941Y0309779D01*
X0648315Y0310777D02*
X0646951Y0310777D01*
X0647248Y0311776D02*
X0648971Y0311776D01*
X0650360Y0312774D02*
X0647248Y0312774D01*
X0647003Y0313773D02*
X0654943Y0313773D01*
X0654752Y0314771D02*
X0646571Y0314771D01*
X0646354Y0315770D02*
X0654752Y0315770D01*
X0655283Y0316768D02*
X0646354Y0316768D01*
X0646354Y0317767D02*
X0656330Y0317767D01*
X0655624Y0317360D02*
X0655624Y0317360D01*
X0655624Y0317360D01*
X0655520Y0312774D02*
X0653609Y0312774D01*
X0654997Y0311776D02*
X0656917Y0311776D01*
X0656917Y0310777D02*
X0655654Y0310777D01*
X0656028Y0309779D02*
X0656917Y0309779D01*
X0656917Y0308780D02*
X0656028Y0308780D01*
X0655827Y0307782D02*
X0656917Y0307782D01*
X0656917Y0306783D02*
X0655413Y0306783D01*
X0654416Y0305785D02*
X0656917Y0305785D01*
X0640570Y0308780D02*
X0635446Y0308780D01*
X0636445Y0309779D02*
X0639571Y0309779D01*
X0639065Y0310777D02*
X0636951Y0310777D01*
X0637248Y0311776D02*
X0638768Y0311776D01*
X0638768Y0312774D02*
X0637248Y0312774D01*
X0637003Y0313773D02*
X0639013Y0313773D01*
X0639444Y0314771D02*
X0636571Y0314771D01*
X0636315Y0315770D02*
X0639780Y0315770D01*
X0639780Y0316768D02*
X0636315Y0316768D01*
X0636315Y0317767D02*
X0639780Y0317767D01*
X0639780Y0318766D02*
X0636315Y0318766D01*
X0636315Y0319764D02*
X0639780Y0319764D01*
X0639780Y0320763D02*
X0636324Y0320763D01*
X0636013Y0321761D02*
X0640105Y0321761D01*
X0640693Y0322760D02*
X0640900Y0322760D01*
X0641691Y0323758D02*
X0641746Y0323758D01*
X0642134Y0324757D02*
X0642592Y0324757D01*
X0642394Y0325755D02*
X0643438Y0325755D01*
X0643819Y0326754D02*
X0642394Y0326754D01*
X0642119Y0327752D02*
X0644094Y0327752D01*
X0644557Y0328751D02*
X0641655Y0328751D01*
X0640657Y0329749D02*
X0645556Y0329749D01*
X0647253Y0331949D02*
X0648959Y0331949D01*
X0650535Y0332602D01*
X0651741Y0333808D01*
X0652394Y0335383D01*
X0652394Y0337089D01*
X0651741Y0338665D01*
X0650535Y0339871D01*
X0648959Y0340524D01*
X0647253Y0340524D01*
X0645678Y0339871D01*
X0644472Y0338665D01*
X0643819Y0337089D01*
X0643819Y0335383D01*
X0644472Y0333808D01*
X0645678Y0332602D01*
X0647253Y0331949D01*
X0645535Y0332745D02*
X0640678Y0332745D01*
X0640535Y0332602D02*
X0641741Y0333808D01*
X0642394Y0335383D01*
X0642394Y0337089D01*
X0641741Y0338665D01*
X0640535Y0339871D01*
X0638959Y0340524D01*
X0637253Y0340524D01*
X0635678Y0339871D01*
X0634472Y0338665D01*
X0633819Y0337089D01*
X0633819Y0335383D01*
X0634472Y0333808D01*
X0635678Y0332602D01*
X0637253Y0331949D01*
X0638959Y0331949D01*
X0640535Y0332602D01*
X0641677Y0333743D02*
X0644536Y0333743D01*
X0644085Y0334742D02*
X0642128Y0334742D01*
X0642394Y0335740D02*
X0643819Y0335740D01*
X0643819Y0336739D02*
X0642394Y0336739D01*
X0642125Y0337737D02*
X0644087Y0337737D01*
X0644543Y0338736D02*
X0641670Y0338736D01*
X0640672Y0339734D02*
X0645541Y0339734D01*
X0647253Y0341949D02*
X0648959Y0341949D01*
X0650535Y0342602D01*
X0651741Y0343808D01*
X0652394Y0345383D01*
X0652394Y0347089D01*
X0651741Y0348665D01*
X0650535Y0349871D01*
X0648959Y0350524D01*
X0647253Y0350524D01*
X0645678Y0349871D01*
X0644472Y0348665D01*
X0643819Y0347089D01*
X0643819Y0345383D01*
X0644472Y0343808D01*
X0645678Y0342602D01*
X0647253Y0341949D01*
X0645549Y0342730D02*
X0640663Y0342730D01*
X0640535Y0342602D02*
X0641741Y0343808D01*
X0642394Y0345383D01*
X0642394Y0347089D01*
X0641741Y0348665D01*
X0640535Y0349871D01*
X0638959Y0350524D01*
X0637253Y0350524D01*
X0635678Y0349871D01*
X0634472Y0348665D01*
X0633819Y0347089D01*
X0633819Y0345383D01*
X0634472Y0343808D01*
X0635678Y0342602D01*
X0637253Y0341949D01*
X0638959Y0341949D01*
X0640535Y0342602D01*
X0641662Y0343728D02*
X0644551Y0343728D01*
X0644091Y0344727D02*
X0642122Y0344727D01*
X0642394Y0345725D02*
X0643819Y0345725D01*
X0643819Y0346724D02*
X0642394Y0346724D01*
X0642131Y0347722D02*
X0644081Y0347722D01*
X0644528Y0348721D02*
X0641685Y0348721D01*
X0640686Y0349719D02*
X0645526Y0349719D01*
X0647253Y0351949D02*
X0648959Y0351949D01*
X0650535Y0352602D01*
X0651741Y0353808D01*
X0652394Y0355383D01*
X0652394Y0357089D01*
X0651741Y0358665D01*
X0650535Y0359871D01*
X0648959Y0360524D01*
X0647253Y0360524D01*
X0645678Y0359871D01*
X0644472Y0358665D01*
X0643819Y0357089D01*
X0643819Y0355383D01*
X0644472Y0353808D01*
X0645678Y0352602D01*
X0647253Y0351949D01*
X0645564Y0352715D02*
X0640648Y0352715D01*
X0640535Y0352602D02*
X0641741Y0353808D01*
X0642394Y0355383D01*
X0642394Y0357089D01*
X0641741Y0358665D01*
X0640535Y0359871D01*
X0638959Y0360524D01*
X0637253Y0360524D01*
X0635678Y0359871D01*
X0634472Y0358665D01*
X0633819Y0357089D01*
X0633819Y0355383D01*
X0634472Y0353808D01*
X0635678Y0352602D01*
X0637253Y0351949D01*
X0638959Y0351949D01*
X0640535Y0352602D01*
X0641647Y0353713D02*
X0644566Y0353713D01*
X0644097Y0354712D02*
X0642116Y0354712D01*
X0642394Y0355710D02*
X0643819Y0355710D01*
X0643819Y0356709D02*
X0642394Y0356709D01*
X0642138Y0357707D02*
X0644075Y0357707D01*
X0644513Y0358706D02*
X0641700Y0358706D01*
X0640701Y0359704D02*
X0645511Y0359704D01*
X0647253Y0361949D02*
X0648959Y0361949D01*
X0650535Y0362602D01*
X0651741Y0363808D01*
X0652394Y0365383D01*
X0652394Y0367089D01*
X0651741Y0368665D01*
X0650535Y0369871D01*
X0648959Y0370524D01*
X0647253Y0370524D01*
X0645678Y0369871D01*
X0644472Y0368665D01*
X0643819Y0367089D01*
X0643819Y0365383D01*
X0644472Y0363808D01*
X0645678Y0362602D01*
X0647253Y0361949D01*
X0645579Y0362700D02*
X0640633Y0362700D01*
X0640535Y0362602D02*
X0641741Y0363808D01*
X0642394Y0365383D01*
X0642394Y0367089D01*
X0641741Y0368665D01*
X0640535Y0369871D01*
X0638959Y0370524D01*
X0637253Y0370524D01*
X0635678Y0369871D01*
X0634472Y0368665D01*
X0633819Y0367089D01*
X0633819Y0365383D01*
X0634472Y0363808D01*
X0635678Y0362602D01*
X0637253Y0361949D01*
X0638959Y0361949D01*
X0640535Y0362602D01*
X0641632Y0363699D02*
X0644581Y0363699D01*
X0644103Y0364697D02*
X0642109Y0364697D01*
X0642394Y0365696D02*
X0643819Y0365696D01*
X0643819Y0366694D02*
X0642394Y0366694D01*
X0642144Y0367693D02*
X0644069Y0367693D01*
X0644498Y0368691D02*
X0641715Y0368691D01*
X0640716Y0369690D02*
X0645496Y0369690D01*
X0647253Y0371949D02*
X0648959Y0371949D01*
X0650535Y0372602D01*
X0651741Y0373808D01*
X0652394Y0375383D01*
X0652394Y0377089D01*
X0651741Y0378665D01*
X0650535Y0379871D01*
X0648959Y0380524D01*
X0647253Y0380524D01*
X0645678Y0379871D01*
X0644472Y0378665D01*
X0643819Y0377089D01*
X0643819Y0375383D01*
X0644472Y0373808D01*
X0645678Y0372602D01*
X0647253Y0371949D01*
X0645594Y0372685D02*
X0640618Y0372685D01*
X0640535Y0372602D02*
X0641741Y0373808D01*
X0642394Y0375383D01*
X0642394Y0377089D01*
X0641741Y0378665D01*
X0640535Y0379871D01*
X0638959Y0380524D01*
X0637253Y0380524D01*
X0635678Y0379871D01*
X0634472Y0378665D01*
X0633819Y0377089D01*
X0633819Y0375383D01*
X0634472Y0373808D01*
X0635678Y0372602D01*
X0637253Y0371949D01*
X0638959Y0371949D01*
X0640535Y0372602D01*
X0641617Y0373684D02*
X0644596Y0373684D01*
X0644109Y0374682D02*
X0642103Y0374682D01*
X0642394Y0375681D02*
X0643819Y0375681D01*
X0643819Y0376679D02*
X0642394Y0376679D01*
X0642150Y0377678D02*
X0644063Y0377678D01*
X0644483Y0378676D02*
X0641730Y0378676D01*
X0640731Y0379675D02*
X0645481Y0379675D01*
X0647253Y0381949D02*
X0648959Y0381949D01*
X0650535Y0382602D01*
X0651741Y0383808D01*
X0652394Y0385383D01*
X0652394Y0387089D01*
X0651741Y0388665D01*
X0650535Y0389871D01*
X0648959Y0390524D01*
X0647253Y0390524D01*
X0645678Y0389871D01*
X0644472Y0388665D01*
X0643819Y0387089D01*
X0643819Y0385383D01*
X0644472Y0383808D01*
X0645678Y0382602D01*
X0647253Y0381949D01*
X0645609Y0382670D02*
X0640604Y0382670D01*
X0640535Y0382602D02*
X0641741Y0383808D01*
X0642394Y0385383D01*
X0642394Y0387089D01*
X0641741Y0388665D01*
X0640535Y0389871D01*
X0638959Y0390524D01*
X0637253Y0390524D01*
X0635678Y0389871D01*
X0634472Y0388665D01*
X0633819Y0387089D01*
X0633819Y0385383D01*
X0634472Y0383808D01*
X0635678Y0382602D01*
X0637253Y0381949D01*
X0638959Y0381949D01*
X0640535Y0382602D01*
X0641602Y0383669D02*
X0644610Y0383669D01*
X0644116Y0384667D02*
X0642097Y0384667D01*
X0642394Y0385666D02*
X0643819Y0385666D01*
X0643819Y0386664D02*
X0642394Y0386664D01*
X0642156Y0387663D02*
X0644057Y0387663D01*
X0644470Y0388661D02*
X0641742Y0388661D01*
X0640746Y0389660D02*
X0645467Y0389660D01*
X0647253Y0391949D02*
X0648959Y0391949D01*
X0650535Y0392602D01*
X0651741Y0393808D01*
X0652394Y0395383D01*
X0652394Y0397089D01*
X0651741Y0398665D01*
X0650535Y0399871D01*
X0648959Y0400524D01*
X0647253Y0400524D01*
X0645678Y0399871D01*
X0644472Y0398665D01*
X0643819Y0397089D01*
X0643819Y0395383D01*
X0644472Y0393808D01*
X0645678Y0392602D01*
X0647253Y0391949D01*
X0645624Y0392655D02*
X0640589Y0392655D01*
X0640535Y0392602D02*
X0641741Y0393808D01*
X0642394Y0395383D01*
X0642394Y0397089D01*
X0641741Y0398665D01*
X0640535Y0399871D01*
X0638959Y0400524D01*
X0637253Y0400524D01*
X0635678Y0399871D01*
X0634472Y0398665D01*
X0633819Y0397089D01*
X0633819Y0395383D01*
X0634472Y0393808D01*
X0635678Y0392602D01*
X0637253Y0391949D01*
X0638959Y0391949D01*
X0640535Y0392602D01*
X0641587Y0393654D02*
X0644625Y0393654D01*
X0644122Y0394652D02*
X0642091Y0394652D01*
X0642394Y0395651D02*
X0643819Y0395651D01*
X0643819Y0396649D02*
X0642394Y0396649D01*
X0642162Y0397648D02*
X0644050Y0397648D01*
X0644464Y0398646D02*
X0641749Y0398646D01*
X0640761Y0399645D02*
X0645452Y0399645D01*
X0647253Y0401949D02*
X0648959Y0401949D01*
X0650535Y0402602D01*
X0651741Y0403808D01*
X0652394Y0405383D01*
X0652394Y0407089D01*
X0651741Y0408665D01*
X0650535Y0409871D01*
X0648959Y0410524D01*
X0647253Y0410524D01*
X0645678Y0409871D01*
X0644472Y0408665D01*
X0643819Y0407089D01*
X0643819Y0405383D01*
X0644472Y0403808D01*
X0645678Y0402602D01*
X0647253Y0401949D01*
X0645639Y0402640D02*
X0640574Y0402640D01*
X0640535Y0402602D02*
X0641741Y0403808D01*
X0642394Y0405383D01*
X0642394Y0407089D01*
X0641741Y0408665D01*
X0640535Y0409871D01*
X0638959Y0410524D01*
X0637253Y0410524D01*
X0635678Y0409871D01*
X0634472Y0408665D01*
X0633819Y0407089D01*
X0633819Y0405383D01*
X0634472Y0403808D01*
X0635678Y0402602D01*
X0637253Y0401949D01*
X0638959Y0401949D01*
X0640535Y0402602D01*
X0641572Y0403639D02*
X0644640Y0403639D01*
X0644128Y0404637D02*
X0642085Y0404637D01*
X0642394Y0405636D02*
X0643819Y0405636D01*
X0643819Y0406634D02*
X0642394Y0406634D01*
X0642168Y0407633D02*
X0644044Y0407633D01*
X0644458Y0408632D02*
X0641755Y0408632D01*
X0640776Y0409630D02*
X0645437Y0409630D01*
X0647253Y0411949D02*
X0648959Y0411949D01*
X0650535Y0412602D01*
X0651741Y0413808D01*
X0652394Y0415383D01*
X0652394Y0417089D01*
X0651741Y0418665D01*
X0650535Y0419871D01*
X0648959Y0420524D01*
X0647253Y0420524D01*
X0645678Y0419871D01*
X0644472Y0418665D01*
X0643819Y0417089D01*
X0643819Y0415383D01*
X0644472Y0413808D01*
X0645678Y0412602D01*
X0647253Y0411949D01*
X0645654Y0412626D02*
X0640559Y0412626D01*
X0640535Y0412602D02*
X0641741Y0413808D01*
X0642394Y0415383D01*
X0642394Y0417089D01*
X0641741Y0418665D01*
X0640535Y0419871D01*
X0638959Y0420524D01*
X0637253Y0420524D01*
X0635678Y0419871D01*
X0634472Y0418665D01*
X0633819Y0417089D01*
X0633819Y0415383D01*
X0634472Y0413808D01*
X0635678Y0412602D01*
X0637253Y0411949D01*
X0638959Y0411949D01*
X0640535Y0412602D01*
X0641557Y0413624D02*
X0644655Y0413624D01*
X0644134Y0414623D02*
X0642079Y0414623D01*
X0642394Y0415621D02*
X0643819Y0415621D01*
X0643819Y0416620D02*
X0642394Y0416620D01*
X0642175Y0417618D02*
X0644038Y0417618D01*
X0644452Y0418617D02*
X0641761Y0418617D01*
X0640791Y0419615D02*
X0645422Y0419615D01*
X0647253Y0421949D02*
X0648959Y0421949D01*
X0650535Y0422602D01*
X0651741Y0423808D01*
X0652394Y0425383D01*
X0652394Y0427089D01*
X0651741Y0428665D01*
X0650535Y0429871D01*
X0648959Y0430524D01*
X0647253Y0430524D01*
X0645678Y0429871D01*
X0644472Y0428665D01*
X0643819Y0427089D01*
X0643819Y0425383D01*
X0644472Y0423808D01*
X0645678Y0422602D01*
X0647253Y0421949D01*
X0645669Y0422611D02*
X0640544Y0422611D01*
X0640535Y0422602D02*
X0641741Y0423808D01*
X0642394Y0425383D01*
X0642394Y0427089D01*
X0641741Y0428665D01*
X0640535Y0429871D01*
X0638959Y0430524D01*
X0637253Y0430524D01*
X0635678Y0429871D01*
X0634472Y0428665D01*
X0633819Y0427089D01*
X0633819Y0425383D01*
X0634472Y0423808D01*
X0635678Y0422602D01*
X0637253Y0421949D01*
X0638959Y0421949D01*
X0640535Y0422602D01*
X0641543Y0423609D02*
X0644670Y0423609D01*
X0644140Y0424608D02*
X0642072Y0424608D01*
X0642394Y0425606D02*
X0643819Y0425606D01*
X0643819Y0426605D02*
X0642394Y0426605D01*
X0642181Y0427603D02*
X0644032Y0427603D01*
X0644445Y0428602D02*
X0641767Y0428602D01*
X0640806Y0429600D02*
X0645407Y0429600D01*
X0647253Y0431949D02*
X0648959Y0431949D01*
X0650535Y0432602D01*
X0651741Y0433808D01*
X0652394Y0435383D01*
X0652394Y0437089D01*
X0651741Y0438665D01*
X0650535Y0439871D01*
X0648959Y0440524D01*
X0647253Y0440524D01*
X0645678Y0439871D01*
X0644472Y0438665D01*
X0643819Y0437089D01*
X0643819Y0435383D01*
X0644472Y0433808D01*
X0645678Y0432602D01*
X0647253Y0431949D01*
X0645692Y0432596D02*
X0640521Y0432596D01*
X0640535Y0432602D02*
X0641741Y0433808D01*
X0642394Y0435383D01*
X0642394Y0437089D01*
X0641741Y0438665D01*
X0640535Y0439871D01*
X0638959Y0440524D01*
X0637253Y0440524D01*
X0635678Y0439871D01*
X0634472Y0438665D01*
X0633819Y0437089D01*
X0633819Y0435383D01*
X0634472Y0433808D01*
X0635678Y0432602D01*
X0637253Y0431949D01*
X0638959Y0431949D01*
X0640535Y0432602D01*
X0641528Y0433594D02*
X0644685Y0433594D01*
X0644146Y0434593D02*
X0642066Y0434593D01*
X0642394Y0435591D02*
X0643819Y0435591D01*
X0643819Y0436590D02*
X0642394Y0436590D01*
X0642187Y0437588D02*
X0644026Y0437588D01*
X0644439Y0438587D02*
X0641773Y0438587D01*
X0640820Y0439585D02*
X0645392Y0439585D01*
X0647253Y0441949D02*
X0648959Y0441949D01*
X0650535Y0442602D01*
X0651741Y0443808D01*
X0652394Y0445383D01*
X0652394Y0447089D01*
X0651741Y0448665D01*
X0650535Y0449871D01*
X0648959Y0450524D01*
X0647253Y0450524D01*
X0645678Y0449871D01*
X0644472Y0448665D01*
X0643819Y0447089D01*
X0643819Y0445383D01*
X0644472Y0443808D01*
X0645678Y0442602D01*
X0647253Y0441949D01*
X0645727Y0442581D02*
X0640485Y0442581D01*
X0640535Y0442602D02*
X0641741Y0443808D01*
X0642394Y0445383D01*
X0642394Y0447089D01*
X0641741Y0448665D01*
X0640535Y0449871D01*
X0638959Y0450524D01*
X0637253Y0450524D01*
X0635678Y0449871D01*
X0634472Y0448665D01*
X0633819Y0447089D01*
X0633819Y0445383D01*
X0634472Y0443808D01*
X0635678Y0442602D01*
X0637253Y0441949D01*
X0638959Y0441949D01*
X0640535Y0442602D01*
X0641513Y0443579D02*
X0644700Y0443579D01*
X0644153Y0444578D02*
X0642060Y0444578D01*
X0642394Y0445576D02*
X0643819Y0445576D01*
X0643819Y0446575D02*
X0642394Y0446575D01*
X0642193Y0447573D02*
X0644020Y0447573D01*
X0644433Y0448572D02*
X0641779Y0448572D01*
X0640835Y0449570D02*
X0645377Y0449570D01*
X0645763Y0452566D02*
X0640449Y0452566D01*
X0640535Y0452602D02*
X0641741Y0453808D01*
X0642394Y0455383D01*
X0642394Y0457089D01*
X0641741Y0458665D01*
X0640535Y0459871D01*
X0638959Y0460524D01*
X0637253Y0460524D01*
X0635678Y0459871D01*
X0634472Y0458665D01*
X0633819Y0457089D01*
X0633819Y0455383D01*
X0634472Y0453808D01*
X0635678Y0452602D01*
X0637253Y0451949D01*
X0638959Y0451949D01*
X0640535Y0452602D01*
X0641498Y0453565D02*
X0644715Y0453565D01*
X0644472Y0453808D02*
X0645678Y0452602D01*
X0647253Y0451949D01*
X0648959Y0451949D01*
X0650535Y0452602D01*
X0651741Y0453808D01*
X0652394Y0455383D01*
X0652394Y0457089D01*
X0651741Y0458665D01*
X0650535Y0459871D01*
X0648959Y0460524D01*
X0647253Y0460524D01*
X0645678Y0459871D01*
X0644472Y0458665D01*
X0643819Y0457089D01*
X0643819Y0455383D01*
X0644472Y0453808D01*
X0644159Y0454563D02*
X0642054Y0454563D01*
X0642394Y0455562D02*
X0643819Y0455562D01*
X0643819Y0456560D02*
X0642394Y0456560D01*
X0642199Y0457559D02*
X0644013Y0457559D01*
X0644427Y0458557D02*
X0641786Y0458557D01*
X0640850Y0459556D02*
X0645362Y0459556D01*
X0645799Y0462551D02*
X0640413Y0462551D01*
X0640535Y0462602D02*
X0641741Y0463808D01*
X0642394Y0465383D01*
X0642394Y0467089D01*
X0641741Y0468665D01*
X0640535Y0469871D01*
X0638959Y0470524D01*
X0637253Y0470524D01*
X0635678Y0469871D01*
X0634472Y0468665D01*
X0633819Y0467089D01*
X0633819Y0465383D01*
X0634472Y0463808D01*
X0635678Y0462602D01*
X0637253Y0461949D01*
X0638959Y0461949D01*
X0640535Y0462602D01*
X0641483Y0463550D02*
X0644730Y0463550D01*
X0644472Y0463808D02*
X0645678Y0462602D01*
X0647253Y0461949D01*
X0648959Y0461949D01*
X0650535Y0462602D01*
X0651741Y0463808D01*
X0652394Y0465383D01*
X0652394Y0467089D01*
X0651741Y0468665D01*
X0650535Y0469871D01*
X0648959Y0470524D01*
X0647253Y0470524D01*
X0645678Y0469871D01*
X0644472Y0468665D01*
X0643819Y0467089D01*
X0643819Y0465383D01*
X0644472Y0463808D01*
X0644165Y0464548D02*
X0642048Y0464548D01*
X0642394Y0465547D02*
X0643819Y0465547D01*
X0643819Y0466545D02*
X0642394Y0466545D01*
X0642205Y0467544D02*
X0644007Y0467544D01*
X0644421Y0468542D02*
X0641792Y0468542D01*
X0640865Y0469541D02*
X0645348Y0469541D01*
X0645835Y0472536D02*
X0640377Y0472536D01*
X0640535Y0472602D02*
X0641741Y0473808D01*
X0642394Y0475383D01*
X0642394Y0477089D01*
X0641741Y0478665D01*
X0640535Y0479871D01*
X0638959Y0480524D01*
X0637253Y0480524D01*
X0635678Y0479871D01*
X0634472Y0478665D01*
X0633819Y0477089D01*
X0633819Y0475383D01*
X0634472Y0473808D01*
X0635678Y0472602D01*
X0637253Y0471949D01*
X0638959Y0471949D01*
X0640535Y0472602D01*
X0641468Y0473535D02*
X0644744Y0473535D01*
X0644472Y0473808D02*
X0645678Y0472602D01*
X0647253Y0471949D01*
X0648959Y0471949D01*
X0650535Y0472602D01*
X0651741Y0473808D01*
X0652394Y0475383D01*
X0652394Y0477089D01*
X0651741Y0478665D01*
X0650535Y0479871D01*
X0648959Y0480524D01*
X0647253Y0480524D01*
X0645678Y0479871D01*
X0644472Y0478665D01*
X0643819Y0477089D01*
X0643819Y0475383D01*
X0644472Y0473808D01*
X0644171Y0474533D02*
X0642042Y0474533D01*
X0642394Y0475532D02*
X0643819Y0475532D01*
X0643819Y0476530D02*
X0642394Y0476530D01*
X0642212Y0477529D02*
X0644001Y0477529D01*
X0644415Y0478527D02*
X0641798Y0478527D01*
X0640880Y0479526D02*
X0645333Y0479526D01*
X0645871Y0482521D02*
X0640341Y0482521D01*
X0641453Y0483520D02*
X0644759Y0483520D01*
X0644177Y0484518D02*
X0642035Y0484518D01*
X0642394Y0485517D02*
X0643819Y0485517D01*
X0643819Y0486515D02*
X0642394Y0486515D01*
X0642218Y0487514D02*
X0643995Y0487514D01*
X0644409Y0488512D02*
X0641804Y0488512D01*
X0640895Y0489511D02*
X0645318Y0489511D01*
X0645907Y0492506D02*
X0640305Y0492506D01*
X0641438Y0493505D02*
X0644774Y0493505D01*
X0644183Y0494503D02*
X0642029Y0494503D01*
X0642394Y0495502D02*
X0643819Y0495502D01*
X0643819Y0496501D02*
X0642394Y0496501D01*
X0642224Y0497499D02*
X0643989Y0497499D01*
X0644402Y0498498D02*
X0641810Y0498498D01*
X0640910Y0499496D02*
X0645303Y0499496D01*
X0645943Y0502492D02*
X0640269Y0502492D01*
X0641423Y0503490D02*
X0644789Y0503490D01*
X0644190Y0504489D02*
X0642023Y0504489D01*
X0642394Y0505487D02*
X0643819Y0505487D01*
X0643491Y0506486D02*
X0642394Y0506486D01*
X0642230Y0507484D02*
X0642659Y0507484D01*
X0641827Y0508483D02*
X0641816Y0508483D01*
X0640995Y0509481D02*
X0640925Y0509481D01*
X0640163Y0510480D02*
X0639065Y0510480D01*
X0639749Y0511478D02*
X0638092Y0511478D01*
X0637255Y0512477D02*
X0639720Y0512477D01*
X0639720Y0513475D02*
X0636418Y0513475D01*
X0636335Y0514474D02*
X0639720Y0514474D01*
X0639720Y0515472D02*
X0636335Y0515472D01*
X0636335Y0516471D02*
X0639720Y0516471D01*
X0639720Y0517469D02*
X0636335Y0517469D01*
X0636335Y0518468D02*
X0639720Y0518468D01*
X0639720Y0519466D02*
X0636335Y0519466D01*
X0636741Y0520465D02*
X0639274Y0520465D01*
X0638861Y0521463D02*
X0637155Y0521463D01*
X0637248Y0522462D02*
X0638768Y0522462D01*
X0638803Y0523460D02*
X0637213Y0523460D01*
X0636799Y0524459D02*
X0639217Y0524459D01*
X0639937Y0525457D02*
X0636078Y0525457D01*
X0634614Y0526456D02*
X0641402Y0526456D01*
X0646295Y0517469D02*
X0654752Y0517469D01*
X0654752Y0516471D02*
X0646295Y0516471D01*
X0646295Y0515472D02*
X0654914Y0515472D01*
X0655491Y0514474D02*
X0646295Y0514474D01*
X0646295Y0513475D02*
X0656953Y0513475D01*
X0657147Y0510480D02*
X0649065Y0510480D01*
X0647889Y0511478D02*
X0679923Y0511478D01*
X0679371Y0510480D02*
X0681058Y0510480D01*
X0680925Y0509481D02*
X0681783Y0509481D01*
X0681816Y0508483D02*
X0682428Y0508483D01*
X0682230Y0507484D02*
X0682752Y0507484D01*
X0683077Y0506486D02*
X0682394Y0506486D01*
X0682394Y0505487D02*
X0683241Y0505487D01*
X0683295Y0504489D02*
X0682023Y0504489D01*
X0681423Y0503490D02*
X0683295Y0503490D01*
X0683295Y0502492D02*
X0681414Y0502492D01*
X0681414Y0501493D02*
X0683295Y0501493D01*
X0683295Y0500495D02*
X0681414Y0500495D01*
X0681414Y0499496D02*
X0683295Y0499496D01*
X0683295Y0498498D02*
X0681810Y0498498D01*
X0682224Y0497499D02*
X0683295Y0497499D01*
X0683295Y0496501D02*
X0682394Y0496501D01*
X0682394Y0495502D02*
X0683295Y0495502D01*
X0683295Y0494503D02*
X0682029Y0494503D01*
X0681438Y0493505D02*
X0683295Y0493505D01*
X0683295Y0492506D02*
X0681415Y0492506D01*
X0681415Y0491508D02*
X0683295Y0491508D01*
X0683295Y0490509D02*
X0681415Y0490509D01*
X0681416Y0489511D02*
X0683295Y0489511D01*
X0683295Y0488512D02*
X0681804Y0488512D01*
X0682218Y0487514D02*
X0683295Y0487514D01*
X0683295Y0486515D02*
X0682394Y0486515D01*
X0682394Y0485517D02*
X0683295Y0485517D01*
X0683295Y0484518D02*
X0682035Y0484518D01*
X0681453Y0483520D02*
X0683295Y0483520D01*
X0683295Y0482521D02*
X0681416Y0482521D01*
X0681417Y0481523D02*
X0683295Y0481523D01*
X0683295Y0480524D02*
X0681417Y0480524D01*
X0681417Y0479526D02*
X0683295Y0479526D01*
X0683295Y0478527D02*
X0681798Y0478527D01*
X0682212Y0477529D02*
X0683295Y0477529D01*
X0683295Y0476530D02*
X0682394Y0476530D01*
X0682394Y0475532D02*
X0683295Y0475532D01*
X0683295Y0474533D02*
X0682042Y0474533D01*
X0681468Y0473535D02*
X0683295Y0473535D01*
X0683295Y0472536D02*
X0681418Y0472536D01*
X0681418Y0471538D02*
X0683295Y0471538D01*
X0683295Y0470539D02*
X0681418Y0470539D01*
X0681418Y0469541D02*
X0683295Y0469541D01*
X0683295Y0468542D02*
X0681792Y0468542D01*
X0682205Y0467544D02*
X0683295Y0467544D01*
X0683295Y0466545D02*
X0682394Y0466545D01*
X0682394Y0465547D02*
X0683295Y0465547D01*
X0683295Y0464548D02*
X0682048Y0464548D01*
X0681483Y0463550D02*
X0683295Y0463550D01*
X0683295Y0462551D02*
X0681419Y0462551D01*
X0681419Y0461553D02*
X0683295Y0461553D01*
X0683295Y0460554D02*
X0681419Y0460554D01*
X0681419Y0459556D02*
X0683295Y0459556D01*
X0683295Y0458557D02*
X0681786Y0458557D01*
X0682199Y0457559D02*
X0683295Y0457559D01*
X0683295Y0456560D02*
X0682394Y0456560D01*
X0682394Y0455562D02*
X0683295Y0455562D01*
X0683295Y0454563D02*
X0682054Y0454563D01*
X0681498Y0453565D02*
X0683295Y0453565D01*
X0683295Y0452566D02*
X0681420Y0452566D01*
X0681420Y0451568D02*
X0683295Y0451568D01*
X0683295Y0450569D02*
X0681420Y0450569D01*
X0681420Y0449570D02*
X0683295Y0449570D01*
X0683295Y0448572D02*
X0681779Y0448572D01*
X0682193Y0447573D02*
X0683295Y0447573D01*
X0683295Y0446575D02*
X0682394Y0446575D01*
X0682394Y0445576D02*
X0683295Y0445576D01*
X0683295Y0444578D02*
X0682060Y0444578D01*
X0681513Y0443579D02*
X0683295Y0443579D01*
X0683295Y0442581D02*
X0681421Y0442581D01*
X0681421Y0441582D02*
X0683295Y0441582D01*
X0683295Y0440584D02*
X0681422Y0440584D01*
X0681422Y0439585D02*
X0683295Y0439585D01*
X0683295Y0438587D02*
X0681422Y0438587D01*
X0681422Y0437588D02*
X0683295Y0437588D01*
X0683295Y0436590D02*
X0681422Y0436590D01*
X0681422Y0435591D02*
X0683295Y0435591D01*
X0683295Y0434593D02*
X0681422Y0434593D01*
X0681422Y0433594D02*
X0683295Y0433594D01*
X0683295Y0432596D02*
X0681423Y0432596D01*
X0681423Y0431597D02*
X0683295Y0431597D01*
X0683295Y0430599D02*
X0681423Y0430599D01*
X0681423Y0429600D02*
X0683295Y0429600D01*
X0683295Y0428602D02*
X0681423Y0428602D01*
X0681423Y0427603D02*
X0683295Y0427603D01*
X0683295Y0426605D02*
X0681423Y0426605D01*
X0681423Y0425606D02*
X0683295Y0425606D01*
X0683295Y0424608D02*
X0681424Y0424608D01*
X0681424Y0423609D02*
X0683295Y0423609D01*
X0683295Y0422611D02*
X0681424Y0422611D01*
X0681424Y0421612D02*
X0683295Y0421612D01*
X0683295Y0420614D02*
X0681424Y0420614D01*
X0681424Y0419615D02*
X0683295Y0419615D01*
X0683295Y0418617D02*
X0681424Y0418617D01*
X0681424Y0417618D02*
X0683295Y0417618D01*
X0683295Y0416620D02*
X0681425Y0416620D01*
X0681425Y0415621D02*
X0683295Y0415621D01*
X0683295Y0414623D02*
X0681425Y0414623D01*
X0681425Y0413624D02*
X0683295Y0413624D01*
X0683295Y0412626D02*
X0681425Y0412626D01*
X0681425Y0411627D02*
X0683295Y0411627D01*
X0683295Y0410629D02*
X0681425Y0410629D01*
X0681425Y0409630D02*
X0683295Y0409630D01*
X0683295Y0408632D02*
X0681426Y0408632D01*
X0681426Y0407633D02*
X0683295Y0407633D01*
X0683295Y0406634D02*
X0681426Y0406634D01*
X0681426Y0405636D02*
X0683295Y0405636D01*
X0683295Y0404637D02*
X0681426Y0404637D01*
X0681426Y0403639D02*
X0683295Y0403639D01*
X0683295Y0402640D02*
X0681426Y0402640D01*
X0681426Y0401642D02*
X0683295Y0401642D01*
X0683295Y0400643D02*
X0681427Y0400643D01*
X0681427Y0399645D02*
X0683295Y0399645D01*
X0683295Y0398646D02*
X0681427Y0398646D01*
X0681427Y0397648D02*
X0683295Y0397648D01*
X0683295Y0396649D02*
X0681427Y0396649D01*
X0681427Y0395651D02*
X0683295Y0395651D01*
X0683295Y0394652D02*
X0681427Y0394652D01*
X0681427Y0393654D02*
X0683295Y0393654D01*
X0683295Y0392655D02*
X0681427Y0392655D01*
X0681428Y0391657D02*
X0683295Y0391657D01*
X0683295Y0390658D02*
X0681428Y0390658D01*
X0681428Y0389660D02*
X0683295Y0389660D01*
X0683295Y0388661D02*
X0681742Y0388661D01*
X0682156Y0387663D02*
X0683295Y0387663D01*
X0683295Y0386664D02*
X0682394Y0386664D01*
X0682394Y0385666D02*
X0683295Y0385666D01*
X0683295Y0384667D02*
X0682097Y0384667D01*
X0681602Y0383669D02*
X0683295Y0383669D01*
X0683295Y0382670D02*
X0681429Y0382670D01*
X0681429Y0381672D02*
X0683295Y0381672D01*
X0683295Y0380673D02*
X0681429Y0380673D01*
X0681429Y0379675D02*
X0683295Y0379675D01*
X0683295Y0378676D02*
X0681730Y0378676D01*
X0682150Y0377678D02*
X0683295Y0377678D01*
X0683295Y0376679D02*
X0682394Y0376679D01*
X0682394Y0375681D02*
X0683295Y0375681D01*
X0683295Y0374682D02*
X0682103Y0374682D01*
X0681617Y0373684D02*
X0683295Y0373684D01*
X0683295Y0372685D02*
X0681430Y0372685D01*
X0681430Y0371687D02*
X0683295Y0371687D01*
X0683295Y0370688D02*
X0681430Y0370688D01*
X0681430Y0369690D02*
X0683295Y0369690D01*
X0683295Y0368691D02*
X0681715Y0368691D01*
X0682144Y0367693D02*
X0683295Y0367693D01*
X0683295Y0366694D02*
X0682394Y0366694D01*
X0682394Y0365696D02*
X0683295Y0365696D01*
X0683295Y0364697D02*
X0682109Y0364697D01*
X0681632Y0363699D02*
X0683295Y0363699D01*
X0683295Y0362700D02*
X0681431Y0362700D01*
X0681431Y0361701D02*
X0683295Y0361701D01*
X0683295Y0360703D02*
X0681431Y0360703D01*
X0681432Y0359704D02*
X0683295Y0359704D01*
X0683295Y0358706D02*
X0681700Y0358706D01*
X0682138Y0357707D02*
X0683295Y0357707D01*
X0683295Y0356709D02*
X0682394Y0356709D01*
X0682394Y0355710D02*
X0683295Y0355710D01*
X0683295Y0354712D02*
X0682116Y0354712D01*
X0681647Y0353713D02*
X0683295Y0353713D01*
X0683295Y0352715D02*
X0681432Y0352715D01*
X0681433Y0351716D02*
X0683295Y0351716D01*
X0683295Y0350718D02*
X0681433Y0350718D01*
X0681433Y0349719D02*
X0683295Y0349719D01*
X0683295Y0348721D02*
X0681685Y0348721D01*
X0682131Y0347722D02*
X0683295Y0347722D01*
X0683295Y0346724D02*
X0682394Y0346724D01*
X0682394Y0345725D02*
X0683295Y0345725D01*
X0683295Y0344727D02*
X0682122Y0344727D01*
X0681662Y0343728D02*
X0683295Y0343728D01*
X0683295Y0342730D02*
X0681531Y0342730D01*
X0681531Y0341731D02*
X0683295Y0341731D01*
X0683295Y0340733D02*
X0681531Y0340733D01*
X0681531Y0339734D02*
X0683295Y0339734D01*
X0683295Y0338736D02*
X0681531Y0338736D01*
X0681531Y0337737D02*
X0683295Y0337737D01*
X0683295Y0336739D02*
X0681531Y0336739D01*
X0681531Y0335740D02*
X0683295Y0335740D01*
X0683295Y0334742D02*
X0681531Y0334742D01*
X0681531Y0333743D02*
X0683295Y0333743D01*
X0683295Y0332745D02*
X0681531Y0332745D01*
X0681531Y0331746D02*
X0683295Y0331746D01*
X0683295Y0330748D02*
X0681531Y0330748D01*
X0681496Y0329749D02*
X0683295Y0329749D01*
X0683295Y0328751D02*
X0681083Y0328751D01*
X0680157Y0327752D02*
X0683295Y0327752D01*
X0683293Y0326754D02*
X0679159Y0326754D01*
X0678160Y0325755D02*
X0683214Y0325755D01*
X0682965Y0324757D02*
X0677162Y0324757D01*
X0676163Y0323758D02*
X0682641Y0323758D01*
X0682258Y0322760D02*
X0670693Y0322760D01*
X0665520Y0322760D02*
X0660693Y0322760D01*
X0655520Y0322760D02*
X0650693Y0322760D01*
X0648671Y0321761D02*
X0681533Y0321761D01*
X0680807Y0320763D02*
X0647825Y0320763D01*
X0646979Y0319764D02*
X0679449Y0319764D01*
X0677395Y0318766D02*
X0646354Y0318766D01*
X0635520Y0322760D02*
X0635250Y0322760D01*
X0629187Y0319764D02*
X0586567Y0319764D01*
X0585208Y0320763D02*
X0628354Y0320763D01*
X0627522Y0321761D02*
X0584483Y0321761D01*
X0583757Y0322760D02*
X0585520Y0322760D01*
X0585678Y0322602D02*
X0587253Y0321949D01*
X0588959Y0321949D01*
X0590535Y0322602D01*
X0591741Y0323808D01*
X0592394Y0325383D01*
X0592394Y0327089D01*
X0591741Y0328665D01*
X0590535Y0329871D01*
X0588959Y0330524D01*
X0587253Y0330524D01*
X0585678Y0329871D01*
X0584472Y0328665D01*
X0583819Y0327089D01*
X0583819Y0325383D01*
X0584472Y0323808D01*
X0585678Y0322602D01*
X0584521Y0323758D02*
X0583375Y0323758D01*
X0583051Y0324757D02*
X0584079Y0324757D01*
X0583819Y0325755D02*
X0582802Y0325755D01*
X0582723Y0326754D02*
X0583819Y0326754D01*
X0584094Y0327752D02*
X0582720Y0327752D01*
X0582720Y0328751D02*
X0584557Y0328751D01*
X0585556Y0329749D02*
X0582720Y0329749D01*
X0582720Y0330748D02*
X0673854Y0330748D01*
X0672856Y0329749D02*
X0670657Y0329749D01*
X0668959Y0331949D02*
X0667253Y0331949D01*
X0665678Y0332602D01*
X0664472Y0333808D01*
X0663819Y0335383D01*
X0663819Y0337089D01*
X0664472Y0338665D01*
X0665678Y0339871D01*
X0667253Y0340524D01*
X0668959Y0340524D01*
X0670535Y0339871D01*
X0671741Y0338665D01*
X0672394Y0337089D01*
X0672394Y0335383D01*
X0671741Y0333808D01*
X0670535Y0332602D01*
X0668959Y0331949D01*
X0670678Y0332745D02*
X0674957Y0332745D01*
X0674957Y0333743D02*
X0671677Y0333743D01*
X0672128Y0334742D02*
X0674957Y0334742D01*
X0674957Y0335740D02*
X0672394Y0335740D01*
X0672394Y0336739D02*
X0674957Y0336739D01*
X0674957Y0337737D02*
X0672125Y0337737D01*
X0671670Y0338736D02*
X0674957Y0338736D01*
X0674957Y0339734D02*
X0670672Y0339734D01*
X0668959Y0341949D02*
X0670535Y0342602D01*
X0671741Y0343808D01*
X0672394Y0345383D01*
X0672394Y0347089D01*
X0671741Y0348665D01*
X0670535Y0349871D01*
X0668959Y0350524D01*
X0667253Y0350524D01*
X0665678Y0349871D01*
X0664472Y0348665D01*
X0663819Y0347089D01*
X0663819Y0345383D01*
X0664472Y0343808D01*
X0665678Y0342602D01*
X0667253Y0341949D01*
X0668959Y0341949D01*
X0670663Y0342730D02*
X0674957Y0342730D01*
X0674957Y0341731D02*
X0582720Y0341731D01*
X0582720Y0340733D02*
X0674957Y0340733D01*
X0674551Y0343728D02*
X0671662Y0343728D01*
X0672122Y0344727D02*
X0674091Y0344727D01*
X0673819Y0345725D02*
X0672394Y0345725D01*
X0672394Y0346724D02*
X0673819Y0346724D01*
X0674081Y0347722D02*
X0672131Y0347722D01*
X0671685Y0348721D02*
X0674528Y0348721D01*
X0674858Y0349719D02*
X0670686Y0349719D01*
X0668959Y0351949D02*
X0670535Y0352602D01*
X0671741Y0353808D01*
X0672394Y0355383D01*
X0672394Y0357089D01*
X0671741Y0358665D01*
X0670535Y0359871D01*
X0668959Y0360524D01*
X0667253Y0360524D01*
X0665678Y0359871D01*
X0664472Y0358665D01*
X0663819Y0357089D01*
X0663819Y0355383D01*
X0664472Y0353808D01*
X0665678Y0352602D01*
X0667253Y0351949D01*
X0668959Y0351949D01*
X0670648Y0352715D02*
X0674858Y0352715D01*
X0674858Y0351716D02*
X0582720Y0351716D01*
X0582720Y0350718D02*
X0674858Y0350718D01*
X0674566Y0353713D02*
X0671647Y0353713D01*
X0672116Y0354712D02*
X0674097Y0354712D01*
X0673819Y0355710D02*
X0672394Y0355710D01*
X0672394Y0356709D02*
X0673819Y0356709D01*
X0674075Y0357707D02*
X0672138Y0357707D01*
X0671700Y0358706D02*
X0674513Y0358706D01*
X0674857Y0359704D02*
X0670701Y0359704D01*
X0668959Y0361949D02*
X0667253Y0361949D01*
X0665678Y0362602D01*
X0664472Y0363808D01*
X0663819Y0365383D01*
X0663819Y0367089D01*
X0664472Y0368665D01*
X0665678Y0369871D01*
X0667253Y0370524D01*
X0668959Y0370524D01*
X0670535Y0369871D01*
X0671741Y0368665D01*
X0672394Y0367089D01*
X0672394Y0365383D01*
X0671741Y0363808D01*
X0670535Y0362602D01*
X0668959Y0361949D01*
X0670633Y0362700D02*
X0674856Y0362700D01*
X0674856Y0361701D02*
X0582720Y0361701D01*
X0582720Y0360703D02*
X0674857Y0360703D01*
X0674581Y0363699D02*
X0671632Y0363699D01*
X0672109Y0364697D02*
X0674103Y0364697D01*
X0673819Y0365696D02*
X0672394Y0365696D01*
X0672394Y0366694D02*
X0673819Y0366694D01*
X0674069Y0367693D02*
X0672144Y0367693D01*
X0671715Y0368691D02*
X0674498Y0368691D01*
X0674856Y0369690D02*
X0670716Y0369690D01*
X0668959Y0371949D02*
X0670535Y0372602D01*
X0671741Y0373808D01*
X0672394Y0375383D01*
X0672394Y0377089D01*
X0671741Y0378665D01*
X0670535Y0379871D01*
X0668959Y0380524D01*
X0667253Y0380524D01*
X0665678Y0379871D01*
X0664472Y0378665D01*
X0663819Y0377089D01*
X0663819Y0375383D01*
X0664472Y0373808D01*
X0665678Y0372602D01*
X0667253Y0371949D01*
X0668959Y0371949D01*
X0670618Y0372685D02*
X0674855Y0372685D01*
X0674855Y0371687D02*
X0582720Y0371687D01*
X0582720Y0372685D02*
X0585594Y0372685D01*
X0585678Y0372602D02*
X0587253Y0371949D01*
X0588959Y0371949D01*
X0590535Y0372602D01*
X0591741Y0373808D01*
X0592394Y0375383D01*
X0592394Y0377089D01*
X0591741Y0378665D01*
X0590535Y0379871D01*
X0588959Y0380524D01*
X0587253Y0380524D01*
X0585678Y0379871D01*
X0584472Y0378665D01*
X0583819Y0377089D01*
X0583819Y0375383D01*
X0584472Y0373808D01*
X0585678Y0372602D01*
X0584596Y0373684D02*
X0582720Y0373684D01*
X0582720Y0374682D02*
X0584109Y0374682D01*
X0583819Y0375681D02*
X0582720Y0375681D01*
X0582720Y0376679D02*
X0583819Y0376679D01*
X0584063Y0377678D02*
X0582720Y0377678D01*
X0582720Y0378676D02*
X0584483Y0378676D01*
X0585481Y0379675D02*
X0582720Y0379675D01*
X0582720Y0380673D02*
X0674854Y0380673D01*
X0674854Y0379675D02*
X0670731Y0379675D01*
X0671730Y0378676D02*
X0674483Y0378676D01*
X0674063Y0377678D02*
X0672150Y0377678D01*
X0672394Y0376679D02*
X0673819Y0376679D01*
X0673819Y0375681D02*
X0672394Y0375681D01*
X0672103Y0374682D02*
X0674109Y0374682D01*
X0674596Y0373684D02*
X0671617Y0373684D01*
X0674855Y0370688D02*
X0582720Y0370688D01*
X0582720Y0369690D02*
X0585496Y0369690D01*
X0585678Y0369871D02*
X0584472Y0368665D01*
X0583819Y0367089D01*
X0583819Y0365383D01*
X0584472Y0363808D01*
X0585678Y0362602D01*
X0587253Y0361949D01*
X0588959Y0361949D01*
X0590535Y0362602D01*
X0591741Y0363808D01*
X0592394Y0365383D01*
X0592394Y0367089D01*
X0591741Y0368665D01*
X0590535Y0369871D01*
X0588959Y0370524D01*
X0587253Y0370524D01*
X0585678Y0369871D01*
X0584498Y0368691D02*
X0582720Y0368691D01*
X0582720Y0367693D02*
X0584069Y0367693D01*
X0583819Y0366694D02*
X0582720Y0366694D01*
X0582720Y0365696D02*
X0583819Y0365696D01*
X0584103Y0364697D02*
X0582720Y0364697D01*
X0582720Y0363699D02*
X0584581Y0363699D01*
X0585579Y0362700D02*
X0582720Y0362700D01*
X0582720Y0359704D02*
X0585511Y0359704D01*
X0585678Y0359871D02*
X0584472Y0358665D01*
X0583819Y0357089D01*
X0583819Y0355383D01*
X0584472Y0353808D01*
X0585678Y0352602D01*
X0587253Y0351949D01*
X0588959Y0351949D01*
X0590535Y0352602D01*
X0591741Y0353808D01*
X0592394Y0355383D01*
X0592394Y0357089D01*
X0591741Y0358665D01*
X0590535Y0359871D01*
X0588959Y0360524D01*
X0587253Y0360524D01*
X0585678Y0359871D01*
X0584513Y0358706D02*
X0582720Y0358706D01*
X0582720Y0357707D02*
X0584075Y0357707D01*
X0583819Y0356709D02*
X0582720Y0356709D01*
X0582720Y0355710D02*
X0583819Y0355710D01*
X0584097Y0354712D02*
X0582720Y0354712D01*
X0582720Y0353713D02*
X0584566Y0353713D01*
X0585564Y0352715D02*
X0582720Y0352715D01*
X0582720Y0349719D02*
X0585526Y0349719D01*
X0585678Y0349871D02*
X0584472Y0348665D01*
X0583819Y0347089D01*
X0583819Y0345383D01*
X0584472Y0343808D01*
X0585678Y0342602D01*
X0587253Y0341949D01*
X0588959Y0341949D01*
X0590535Y0342602D01*
X0591741Y0343808D01*
X0592394Y0345383D01*
X0592394Y0347089D01*
X0591741Y0348665D01*
X0590535Y0349871D01*
X0588959Y0350524D01*
X0587253Y0350524D01*
X0585678Y0349871D01*
X0584528Y0348721D02*
X0582720Y0348721D01*
X0582720Y0347722D02*
X0584081Y0347722D01*
X0583819Y0346724D02*
X0582720Y0346724D01*
X0582720Y0345725D02*
X0583819Y0345725D01*
X0584091Y0344727D02*
X0582720Y0344727D01*
X0582720Y0343728D02*
X0584551Y0343728D01*
X0585549Y0342730D02*
X0582720Y0342730D01*
X0582720Y0339734D02*
X0585541Y0339734D01*
X0585678Y0339871D02*
X0584472Y0338665D01*
X0583819Y0337089D01*
X0583819Y0335383D01*
X0584472Y0333808D01*
X0585678Y0332602D01*
X0587253Y0331949D01*
X0588959Y0331949D01*
X0590535Y0332602D01*
X0591741Y0333808D01*
X0592394Y0335383D01*
X0592394Y0337089D01*
X0591741Y0338665D01*
X0590535Y0339871D01*
X0588959Y0340524D01*
X0587253Y0340524D01*
X0585678Y0339871D01*
X0584543Y0338736D02*
X0582720Y0338736D01*
X0582720Y0337737D02*
X0584087Y0337737D01*
X0583819Y0336739D02*
X0582720Y0336739D01*
X0582720Y0335740D02*
X0583819Y0335740D01*
X0584085Y0334742D02*
X0582720Y0334742D01*
X0582720Y0333743D02*
X0584536Y0333743D01*
X0585535Y0332745D02*
X0582720Y0332745D01*
X0582720Y0331746D02*
X0674853Y0331746D01*
X0665535Y0332745D02*
X0660678Y0332745D01*
X0660535Y0332602D02*
X0661741Y0333808D01*
X0662394Y0335383D01*
X0662394Y0337089D01*
X0661741Y0338665D01*
X0660535Y0339871D01*
X0658959Y0340524D01*
X0657253Y0340524D01*
X0655678Y0339871D01*
X0654472Y0338665D01*
X0653819Y0337089D01*
X0653819Y0335383D01*
X0654472Y0333808D01*
X0655678Y0332602D01*
X0657253Y0331949D01*
X0658959Y0331949D01*
X0660535Y0332602D01*
X0661677Y0333743D02*
X0664536Y0333743D01*
X0664085Y0334742D02*
X0662128Y0334742D01*
X0662394Y0335740D02*
X0663819Y0335740D01*
X0663819Y0336739D02*
X0662394Y0336739D01*
X0662125Y0337737D02*
X0664087Y0337737D01*
X0664543Y0338736D02*
X0661670Y0338736D01*
X0660672Y0339734D02*
X0665541Y0339734D01*
X0665549Y0342730D02*
X0660663Y0342730D01*
X0660535Y0342602D02*
X0661741Y0343808D01*
X0662394Y0345383D01*
X0662394Y0347089D01*
X0661741Y0348665D01*
X0660535Y0349871D01*
X0658959Y0350524D01*
X0657253Y0350524D01*
X0655678Y0349871D01*
X0654472Y0348665D01*
X0653819Y0347089D01*
X0653819Y0345383D01*
X0654472Y0343808D01*
X0655678Y0342602D01*
X0657253Y0341949D01*
X0658959Y0341949D01*
X0660535Y0342602D01*
X0661662Y0343728D02*
X0664551Y0343728D01*
X0664091Y0344727D02*
X0662122Y0344727D01*
X0662394Y0345725D02*
X0663819Y0345725D01*
X0663819Y0346724D02*
X0662394Y0346724D01*
X0662131Y0347722D02*
X0664081Y0347722D01*
X0664528Y0348721D02*
X0661685Y0348721D01*
X0660686Y0349719D02*
X0665526Y0349719D01*
X0665564Y0352715D02*
X0660648Y0352715D01*
X0660535Y0352602D02*
X0661741Y0353808D01*
X0662394Y0355383D01*
X0662394Y0357089D01*
X0661741Y0358665D01*
X0660535Y0359871D01*
X0658959Y0360524D01*
X0657253Y0360524D01*
X0655678Y0359871D01*
X0654472Y0358665D01*
X0653819Y0357089D01*
X0653819Y0355383D01*
X0654472Y0353808D01*
X0655678Y0352602D01*
X0657253Y0351949D01*
X0658959Y0351949D01*
X0660535Y0352602D01*
X0661647Y0353713D02*
X0664566Y0353713D01*
X0664097Y0354712D02*
X0662116Y0354712D01*
X0662394Y0355710D02*
X0663819Y0355710D01*
X0663819Y0356709D02*
X0662394Y0356709D01*
X0662138Y0357707D02*
X0664075Y0357707D01*
X0664513Y0358706D02*
X0661700Y0358706D01*
X0660701Y0359704D02*
X0665511Y0359704D01*
X0665579Y0362700D02*
X0660633Y0362700D01*
X0660535Y0362602D02*
X0661741Y0363808D01*
X0662394Y0365383D01*
X0662394Y0367089D01*
X0661741Y0368665D01*
X0660535Y0369871D01*
X0658959Y0370524D01*
X0657253Y0370524D01*
X0655678Y0369871D01*
X0654472Y0368665D01*
X0653819Y0367089D01*
X0653819Y0365383D01*
X0654472Y0363808D01*
X0655678Y0362602D01*
X0657253Y0361949D01*
X0658959Y0361949D01*
X0660535Y0362602D01*
X0661632Y0363699D02*
X0664581Y0363699D01*
X0664103Y0364697D02*
X0662109Y0364697D01*
X0662394Y0365696D02*
X0663819Y0365696D01*
X0663819Y0366694D02*
X0662394Y0366694D01*
X0662144Y0367693D02*
X0664069Y0367693D01*
X0664498Y0368691D02*
X0661715Y0368691D01*
X0660716Y0369690D02*
X0665496Y0369690D01*
X0665594Y0372685D02*
X0660618Y0372685D01*
X0660535Y0372602D02*
X0661741Y0373808D01*
X0662394Y0375383D01*
X0662394Y0377089D01*
X0661741Y0378665D01*
X0660535Y0379871D01*
X0658959Y0380524D01*
X0657253Y0380524D01*
X0655678Y0379871D01*
X0654472Y0378665D01*
X0653819Y0377089D01*
X0653819Y0375383D01*
X0654472Y0373808D01*
X0655678Y0372602D01*
X0657253Y0371949D01*
X0658959Y0371949D01*
X0660535Y0372602D01*
X0661617Y0373684D02*
X0664596Y0373684D01*
X0664109Y0374682D02*
X0662103Y0374682D01*
X0662394Y0375681D02*
X0663819Y0375681D01*
X0663819Y0376679D02*
X0662394Y0376679D01*
X0662150Y0377678D02*
X0664063Y0377678D01*
X0664483Y0378676D02*
X0661730Y0378676D01*
X0660731Y0379675D02*
X0665481Y0379675D01*
X0667253Y0381949D02*
X0668959Y0381949D01*
X0670535Y0382602D01*
X0671741Y0383808D01*
X0672394Y0385383D01*
X0672394Y0387089D01*
X0671741Y0388665D01*
X0670535Y0389871D01*
X0668959Y0390524D01*
X0667253Y0390524D01*
X0665678Y0389871D01*
X0664472Y0388665D01*
X0663819Y0387089D01*
X0663819Y0385383D01*
X0664472Y0383808D01*
X0665678Y0382602D01*
X0667253Y0381949D01*
X0665609Y0382670D02*
X0660604Y0382670D01*
X0660535Y0382602D02*
X0661741Y0383808D01*
X0662394Y0385383D01*
X0662394Y0387089D01*
X0661741Y0388665D01*
X0660535Y0389871D01*
X0658959Y0390524D01*
X0657253Y0390524D01*
X0655678Y0389871D01*
X0654472Y0388665D01*
X0653819Y0387089D01*
X0653819Y0385383D01*
X0654472Y0383808D01*
X0655678Y0382602D01*
X0657253Y0381949D01*
X0658959Y0381949D01*
X0660535Y0382602D01*
X0661602Y0383669D02*
X0664610Y0383669D01*
X0664116Y0384667D02*
X0662097Y0384667D01*
X0662394Y0385666D02*
X0663819Y0385666D01*
X0663819Y0386664D02*
X0662394Y0386664D01*
X0662156Y0387663D02*
X0664057Y0387663D01*
X0664470Y0388661D02*
X0661742Y0388661D01*
X0660746Y0389660D02*
X0665467Y0389660D01*
X0667253Y0391949D02*
X0668959Y0391949D01*
X0670535Y0392602D01*
X0671741Y0393808D01*
X0672394Y0395383D01*
X0672394Y0397089D01*
X0671741Y0398665D01*
X0670535Y0399871D01*
X0668959Y0400524D01*
X0667253Y0400524D01*
X0665678Y0399871D01*
X0664472Y0398665D01*
X0663819Y0397089D01*
X0663819Y0395383D01*
X0664472Y0393808D01*
X0665678Y0392602D01*
X0667253Y0391949D01*
X0665624Y0392655D02*
X0660589Y0392655D01*
X0660535Y0392602D02*
X0661741Y0393808D01*
X0662394Y0395383D01*
X0662394Y0397089D01*
X0661741Y0398665D01*
X0660535Y0399871D01*
X0658959Y0400524D01*
X0657253Y0400524D01*
X0655678Y0399871D01*
X0654472Y0398665D01*
X0653819Y0397089D01*
X0653819Y0395383D01*
X0654472Y0393808D01*
X0655678Y0392602D01*
X0657253Y0391949D01*
X0658959Y0391949D01*
X0660535Y0392602D01*
X0661587Y0393654D02*
X0664625Y0393654D01*
X0664122Y0394652D02*
X0662091Y0394652D01*
X0662394Y0395651D02*
X0663819Y0395651D01*
X0663819Y0396649D02*
X0662394Y0396649D01*
X0662162Y0397648D02*
X0664050Y0397648D01*
X0664464Y0398646D02*
X0661749Y0398646D01*
X0660761Y0399645D02*
X0665452Y0399645D01*
X0667253Y0401949D02*
X0668959Y0401949D01*
X0670535Y0402602D01*
X0671741Y0403808D01*
X0672394Y0405383D01*
X0672394Y0407089D01*
X0671741Y0408665D01*
X0670535Y0409871D01*
X0668959Y0410524D01*
X0667253Y0410524D01*
X0665678Y0409871D01*
X0664472Y0408665D01*
X0663819Y0407089D01*
X0663819Y0405383D01*
X0664472Y0403808D01*
X0665678Y0402602D01*
X0667253Y0401949D01*
X0665639Y0402640D02*
X0660574Y0402640D01*
X0660535Y0402602D02*
X0661741Y0403808D01*
X0662394Y0405383D01*
X0662394Y0407089D01*
X0661741Y0408665D01*
X0660535Y0409871D01*
X0658959Y0410524D01*
X0657253Y0410524D01*
X0655678Y0409871D01*
X0654472Y0408665D01*
X0653819Y0407089D01*
X0653819Y0405383D01*
X0654472Y0403808D01*
X0655678Y0402602D01*
X0657253Y0401949D01*
X0658959Y0401949D01*
X0660535Y0402602D01*
X0661572Y0403639D02*
X0664640Y0403639D01*
X0664128Y0404637D02*
X0662085Y0404637D01*
X0662394Y0405636D02*
X0663819Y0405636D01*
X0663819Y0406634D02*
X0662394Y0406634D01*
X0662168Y0407633D02*
X0664044Y0407633D01*
X0664458Y0408632D02*
X0661755Y0408632D01*
X0660776Y0409630D02*
X0665437Y0409630D01*
X0667253Y0411949D02*
X0668959Y0411949D01*
X0670535Y0412602D01*
X0671741Y0413808D01*
X0672394Y0415383D01*
X0672394Y0417089D01*
X0671741Y0418665D01*
X0670535Y0419871D01*
X0668959Y0420524D01*
X0667253Y0420524D01*
X0665678Y0419871D01*
X0664472Y0418665D01*
X0663819Y0417089D01*
X0663819Y0415383D01*
X0664472Y0413808D01*
X0665678Y0412602D01*
X0667253Y0411949D01*
X0665654Y0412626D02*
X0660559Y0412626D01*
X0660535Y0412602D02*
X0661741Y0413808D01*
X0662394Y0415383D01*
X0662394Y0417089D01*
X0661741Y0418665D01*
X0660535Y0419871D01*
X0658959Y0420524D01*
X0657253Y0420524D01*
X0655678Y0419871D01*
X0654472Y0418665D01*
X0653819Y0417089D01*
X0653819Y0415383D01*
X0654472Y0413808D01*
X0655678Y0412602D01*
X0657253Y0411949D01*
X0658959Y0411949D01*
X0660535Y0412602D01*
X0661557Y0413624D02*
X0664655Y0413624D01*
X0664134Y0414623D02*
X0662079Y0414623D01*
X0662394Y0415621D02*
X0663819Y0415621D01*
X0663819Y0416620D02*
X0662394Y0416620D01*
X0662175Y0417618D02*
X0664038Y0417618D01*
X0664452Y0418617D02*
X0661761Y0418617D01*
X0660791Y0419615D02*
X0665422Y0419615D01*
X0667253Y0421949D02*
X0668959Y0421949D01*
X0670535Y0422602D01*
X0671741Y0423808D01*
X0672394Y0425383D01*
X0672394Y0427089D01*
X0671741Y0428665D01*
X0670535Y0429871D01*
X0668959Y0430524D01*
X0667253Y0430524D01*
X0665678Y0429871D01*
X0664472Y0428665D01*
X0663819Y0427089D01*
X0663819Y0425383D01*
X0664472Y0423808D01*
X0665678Y0422602D01*
X0667253Y0421949D01*
X0665669Y0422611D02*
X0660544Y0422611D01*
X0660535Y0422602D02*
X0661741Y0423808D01*
X0662394Y0425383D01*
X0662394Y0427089D01*
X0661741Y0428665D01*
X0660535Y0429871D01*
X0658959Y0430524D01*
X0657253Y0430524D01*
X0655678Y0429871D01*
X0654472Y0428665D01*
X0653819Y0427089D01*
X0653819Y0425383D01*
X0654472Y0423808D01*
X0655678Y0422602D01*
X0657253Y0421949D01*
X0658959Y0421949D01*
X0660535Y0422602D01*
X0661543Y0423609D02*
X0664670Y0423609D01*
X0664140Y0424608D02*
X0662072Y0424608D01*
X0662394Y0425606D02*
X0663819Y0425606D01*
X0663819Y0426605D02*
X0662394Y0426605D01*
X0662181Y0427603D02*
X0664032Y0427603D01*
X0664445Y0428602D02*
X0661767Y0428602D01*
X0660806Y0429600D02*
X0665407Y0429600D01*
X0667253Y0431949D02*
X0668959Y0431949D01*
X0670535Y0432602D01*
X0671741Y0433808D01*
X0672394Y0435383D01*
X0672394Y0437089D01*
X0671741Y0438665D01*
X0670535Y0439871D01*
X0668959Y0440524D01*
X0667253Y0440524D01*
X0665678Y0439871D01*
X0664472Y0438665D01*
X0663819Y0437089D01*
X0663819Y0435383D01*
X0664472Y0433808D01*
X0665678Y0432602D01*
X0667253Y0431949D01*
X0665692Y0432596D02*
X0660521Y0432596D01*
X0660535Y0432602D02*
X0661741Y0433808D01*
X0662394Y0435383D01*
X0662394Y0437089D01*
X0661741Y0438665D01*
X0660535Y0439871D01*
X0658959Y0440524D01*
X0657253Y0440524D01*
X0655678Y0439871D01*
X0654472Y0438665D01*
X0653819Y0437089D01*
X0653819Y0435383D01*
X0654472Y0433808D01*
X0655678Y0432602D01*
X0657253Y0431949D01*
X0658959Y0431949D01*
X0660535Y0432602D01*
X0661528Y0433594D02*
X0664685Y0433594D01*
X0664146Y0434593D02*
X0662066Y0434593D01*
X0662394Y0435591D02*
X0663819Y0435591D01*
X0663819Y0436590D02*
X0662394Y0436590D01*
X0662187Y0437588D02*
X0664026Y0437588D01*
X0664439Y0438587D02*
X0661773Y0438587D01*
X0660820Y0439585D02*
X0665392Y0439585D01*
X0667253Y0441949D02*
X0668959Y0441949D01*
X0670535Y0442602D01*
X0671741Y0443808D01*
X0672394Y0445383D01*
X0672394Y0447089D01*
X0671741Y0448665D01*
X0670535Y0449871D01*
X0668959Y0450524D01*
X0667253Y0450524D01*
X0665678Y0449871D01*
X0664472Y0448665D01*
X0663819Y0447089D01*
X0663819Y0445383D01*
X0664472Y0443808D01*
X0665678Y0442602D01*
X0667253Y0441949D01*
X0665727Y0442581D02*
X0660485Y0442581D01*
X0660535Y0442602D02*
X0661741Y0443808D01*
X0662394Y0445383D01*
X0662394Y0447089D01*
X0661741Y0448665D01*
X0660535Y0449871D01*
X0658959Y0450524D01*
X0657253Y0450524D01*
X0655678Y0449871D01*
X0654472Y0448665D01*
X0653819Y0447089D01*
X0653819Y0445383D01*
X0654472Y0443808D01*
X0655678Y0442602D01*
X0657253Y0441949D01*
X0658959Y0441949D01*
X0660535Y0442602D01*
X0661513Y0443579D02*
X0664700Y0443579D01*
X0664153Y0444578D02*
X0662060Y0444578D01*
X0662394Y0445576D02*
X0663819Y0445576D01*
X0663819Y0446575D02*
X0662394Y0446575D01*
X0662193Y0447573D02*
X0664020Y0447573D01*
X0664433Y0448572D02*
X0661779Y0448572D01*
X0660835Y0449570D02*
X0665377Y0449570D01*
X0665763Y0452566D02*
X0660449Y0452566D01*
X0660535Y0452602D02*
X0661741Y0453808D01*
X0662394Y0455383D01*
X0662394Y0457089D01*
X0661741Y0458665D01*
X0660535Y0459871D01*
X0658959Y0460524D01*
X0657253Y0460524D01*
X0655678Y0459871D01*
X0654472Y0458665D01*
X0653819Y0457089D01*
X0653819Y0455383D01*
X0654472Y0453808D01*
X0655678Y0452602D01*
X0657253Y0451949D01*
X0658959Y0451949D01*
X0660535Y0452602D01*
X0661498Y0453565D02*
X0664715Y0453565D01*
X0664472Y0453808D02*
X0665678Y0452602D01*
X0667253Y0451949D01*
X0668959Y0451949D01*
X0670535Y0452602D01*
X0671741Y0453808D01*
X0672394Y0455383D01*
X0672394Y0457089D01*
X0671741Y0458665D01*
X0670535Y0459871D01*
X0668959Y0460524D01*
X0667253Y0460524D01*
X0665678Y0459871D01*
X0664472Y0458665D01*
X0663819Y0457089D01*
X0663819Y0455383D01*
X0664472Y0453808D01*
X0664159Y0454563D02*
X0662054Y0454563D01*
X0662394Y0455562D02*
X0663819Y0455562D01*
X0663819Y0456560D02*
X0662394Y0456560D01*
X0662199Y0457559D02*
X0664013Y0457559D01*
X0664427Y0458557D02*
X0661786Y0458557D01*
X0660850Y0459556D02*
X0665362Y0459556D01*
X0665799Y0462551D02*
X0660413Y0462551D01*
X0660535Y0462602D02*
X0661741Y0463808D01*
X0662394Y0465383D01*
X0662394Y0467089D01*
X0661741Y0468665D01*
X0660535Y0469871D01*
X0658959Y0470524D01*
X0657253Y0470524D01*
X0655678Y0469871D01*
X0654472Y0468665D01*
X0653819Y0467089D01*
X0653819Y0465383D01*
X0654472Y0463808D01*
X0655678Y0462602D01*
X0657253Y0461949D01*
X0658959Y0461949D01*
X0660535Y0462602D01*
X0661483Y0463550D02*
X0664730Y0463550D01*
X0664472Y0463808D02*
X0665678Y0462602D01*
X0667253Y0461949D01*
X0668959Y0461949D01*
X0670535Y0462602D01*
X0671741Y0463808D01*
X0672394Y0465383D01*
X0672394Y0467089D01*
X0671741Y0468665D01*
X0670535Y0469871D01*
X0668959Y0470524D01*
X0667253Y0470524D01*
X0665678Y0469871D01*
X0664472Y0468665D01*
X0663819Y0467089D01*
X0663819Y0465383D01*
X0664472Y0463808D01*
X0664165Y0464548D02*
X0662048Y0464548D01*
X0662394Y0465547D02*
X0663819Y0465547D01*
X0663819Y0466545D02*
X0662394Y0466545D01*
X0662205Y0467544D02*
X0664007Y0467544D01*
X0664421Y0468542D02*
X0661792Y0468542D01*
X0660865Y0469541D02*
X0665348Y0469541D01*
X0665835Y0472536D02*
X0660377Y0472536D01*
X0660535Y0472602D02*
X0661741Y0473808D01*
X0662394Y0475383D01*
X0662394Y0477089D01*
X0661741Y0478665D01*
X0660535Y0479871D01*
X0658959Y0480524D01*
X0657253Y0480524D01*
X0655678Y0479871D01*
X0654472Y0478665D01*
X0653819Y0477089D01*
X0653819Y0475383D01*
X0654472Y0473808D01*
X0655678Y0472602D01*
X0657253Y0471949D01*
X0658959Y0471949D01*
X0660535Y0472602D01*
X0661468Y0473535D02*
X0664744Y0473535D01*
X0664472Y0473808D02*
X0665678Y0472602D01*
X0667253Y0471949D01*
X0668959Y0471949D01*
X0670535Y0472602D01*
X0671741Y0473808D01*
X0672394Y0475383D01*
X0672394Y0477089D01*
X0671741Y0478665D01*
X0670535Y0479871D01*
X0668959Y0480524D01*
X0667253Y0480524D01*
X0665678Y0479871D01*
X0664472Y0478665D01*
X0663819Y0477089D01*
X0663819Y0475383D01*
X0664472Y0473808D01*
X0664171Y0474533D02*
X0662042Y0474533D01*
X0662394Y0475532D02*
X0663819Y0475532D01*
X0663819Y0476530D02*
X0662394Y0476530D01*
X0662212Y0477529D02*
X0664001Y0477529D01*
X0664415Y0478527D02*
X0661798Y0478527D01*
X0660880Y0479526D02*
X0665333Y0479526D01*
X0665871Y0482521D02*
X0660341Y0482521D01*
X0661453Y0483520D02*
X0664759Y0483520D01*
X0664177Y0484518D02*
X0662035Y0484518D01*
X0662394Y0485517D02*
X0663819Y0485517D01*
X0663819Y0486515D02*
X0662394Y0486515D01*
X0662218Y0487514D02*
X0663995Y0487514D01*
X0664409Y0488512D02*
X0661804Y0488512D01*
X0660895Y0489511D02*
X0665318Y0489511D01*
X0665907Y0492506D02*
X0660305Y0492506D01*
X0661438Y0493505D02*
X0664774Y0493505D01*
X0664183Y0494503D02*
X0662029Y0494503D01*
X0662394Y0495502D02*
X0663819Y0495502D01*
X0663819Y0496501D02*
X0662394Y0496501D01*
X0662224Y0497499D02*
X0663989Y0497499D01*
X0664402Y0498498D02*
X0661810Y0498498D01*
X0660910Y0499496D02*
X0665303Y0499496D01*
X0665943Y0502492D02*
X0660269Y0502492D01*
X0655943Y0502492D02*
X0650269Y0502492D01*
X0650910Y0499496D02*
X0655303Y0499496D01*
X0654402Y0498498D02*
X0651810Y0498498D01*
X0652224Y0497499D02*
X0653989Y0497499D01*
X0653819Y0496501D02*
X0652394Y0496501D01*
X0652394Y0495502D02*
X0653819Y0495502D01*
X0654183Y0494503D02*
X0652029Y0494503D01*
X0651438Y0493505D02*
X0654774Y0493505D01*
X0655907Y0492506D02*
X0650305Y0492506D01*
X0650895Y0489511D02*
X0655318Y0489511D01*
X0654409Y0488512D02*
X0651804Y0488512D01*
X0652218Y0487514D02*
X0653995Y0487514D01*
X0653819Y0486515D02*
X0652394Y0486515D01*
X0652394Y0485517D02*
X0653819Y0485517D01*
X0654177Y0484518D02*
X0652035Y0484518D01*
X0651453Y0483520D02*
X0654759Y0483520D01*
X0655871Y0482521D02*
X0650341Y0482521D01*
X0650880Y0479526D02*
X0655333Y0479526D01*
X0654415Y0478527D02*
X0651798Y0478527D01*
X0652212Y0477529D02*
X0654001Y0477529D01*
X0653819Y0476530D02*
X0652394Y0476530D01*
X0652394Y0475532D02*
X0653819Y0475532D01*
X0654171Y0474533D02*
X0652042Y0474533D01*
X0651468Y0473535D02*
X0654744Y0473535D01*
X0655835Y0472536D02*
X0650377Y0472536D01*
X0650865Y0469541D02*
X0655348Y0469541D01*
X0654421Y0468542D02*
X0651792Y0468542D01*
X0652205Y0467544D02*
X0654007Y0467544D01*
X0653819Y0466545D02*
X0652394Y0466545D01*
X0652394Y0465547D02*
X0653819Y0465547D01*
X0654165Y0464548D02*
X0652048Y0464548D01*
X0651483Y0463550D02*
X0654730Y0463550D01*
X0655799Y0462551D02*
X0650413Y0462551D01*
X0650850Y0459556D02*
X0655362Y0459556D01*
X0654427Y0458557D02*
X0651786Y0458557D01*
X0652199Y0457559D02*
X0654013Y0457559D01*
X0653819Y0456560D02*
X0652394Y0456560D01*
X0652394Y0455562D02*
X0653819Y0455562D01*
X0654159Y0454563D02*
X0652054Y0454563D01*
X0651498Y0453565D02*
X0654715Y0453565D01*
X0655763Y0452566D02*
X0650449Y0452566D01*
X0650835Y0449570D02*
X0655377Y0449570D01*
X0654433Y0448572D02*
X0651779Y0448572D01*
X0652193Y0447573D02*
X0654020Y0447573D01*
X0653819Y0446575D02*
X0652394Y0446575D01*
X0652394Y0445576D02*
X0653819Y0445576D01*
X0654153Y0444578D02*
X0652060Y0444578D01*
X0651513Y0443579D02*
X0654700Y0443579D01*
X0655727Y0442581D02*
X0650485Y0442581D01*
X0650820Y0439585D02*
X0655392Y0439585D01*
X0654439Y0438587D02*
X0651773Y0438587D01*
X0652187Y0437588D02*
X0654026Y0437588D01*
X0653819Y0436590D02*
X0652394Y0436590D01*
X0652394Y0435591D02*
X0653819Y0435591D01*
X0654146Y0434593D02*
X0652066Y0434593D01*
X0651528Y0433594D02*
X0654685Y0433594D01*
X0655692Y0432596D02*
X0650521Y0432596D01*
X0650806Y0429600D02*
X0655407Y0429600D01*
X0654445Y0428602D02*
X0651767Y0428602D01*
X0652181Y0427603D02*
X0654032Y0427603D01*
X0653819Y0426605D02*
X0652394Y0426605D01*
X0652394Y0425606D02*
X0653819Y0425606D01*
X0654140Y0424608D02*
X0652072Y0424608D01*
X0651543Y0423609D02*
X0654670Y0423609D01*
X0655669Y0422611D02*
X0650544Y0422611D01*
X0650791Y0419615D02*
X0655422Y0419615D01*
X0654452Y0418617D02*
X0651761Y0418617D01*
X0652175Y0417618D02*
X0654038Y0417618D01*
X0653819Y0416620D02*
X0652394Y0416620D01*
X0652394Y0415621D02*
X0653819Y0415621D01*
X0654134Y0414623D02*
X0652079Y0414623D01*
X0651557Y0413624D02*
X0654655Y0413624D01*
X0655654Y0412626D02*
X0650559Y0412626D01*
X0650776Y0409630D02*
X0655437Y0409630D01*
X0654458Y0408632D02*
X0651755Y0408632D01*
X0652168Y0407633D02*
X0654044Y0407633D01*
X0653819Y0406634D02*
X0652394Y0406634D01*
X0652394Y0405636D02*
X0653819Y0405636D01*
X0654128Y0404637D02*
X0652085Y0404637D01*
X0651572Y0403639D02*
X0654640Y0403639D01*
X0655639Y0402640D02*
X0650574Y0402640D01*
X0650761Y0399645D02*
X0655452Y0399645D01*
X0654464Y0398646D02*
X0651749Y0398646D01*
X0652162Y0397648D02*
X0654050Y0397648D01*
X0653819Y0396649D02*
X0652394Y0396649D01*
X0652394Y0395651D02*
X0653819Y0395651D01*
X0654122Y0394652D02*
X0652091Y0394652D01*
X0651587Y0393654D02*
X0654625Y0393654D01*
X0655624Y0392655D02*
X0650589Y0392655D01*
X0650746Y0389660D02*
X0655467Y0389660D01*
X0654470Y0388661D02*
X0651742Y0388661D01*
X0652156Y0387663D02*
X0654057Y0387663D01*
X0653819Y0386664D02*
X0652394Y0386664D01*
X0652394Y0385666D02*
X0653819Y0385666D01*
X0654116Y0384667D02*
X0652097Y0384667D01*
X0651602Y0383669D02*
X0654610Y0383669D01*
X0655609Y0382670D02*
X0650604Y0382670D01*
X0650731Y0379675D02*
X0655481Y0379675D01*
X0654483Y0378676D02*
X0651730Y0378676D01*
X0652150Y0377678D02*
X0654063Y0377678D01*
X0653819Y0376679D02*
X0652394Y0376679D01*
X0652394Y0375681D02*
X0653819Y0375681D01*
X0654109Y0374682D02*
X0652103Y0374682D01*
X0651617Y0373684D02*
X0654596Y0373684D01*
X0655594Y0372685D02*
X0650618Y0372685D01*
X0650716Y0369690D02*
X0655496Y0369690D01*
X0654498Y0368691D02*
X0651715Y0368691D01*
X0652144Y0367693D02*
X0654069Y0367693D01*
X0653819Y0366694D02*
X0652394Y0366694D01*
X0652394Y0365696D02*
X0653819Y0365696D01*
X0654103Y0364697D02*
X0652109Y0364697D01*
X0651632Y0363699D02*
X0654581Y0363699D01*
X0655579Y0362700D02*
X0650633Y0362700D01*
X0650701Y0359704D02*
X0655511Y0359704D01*
X0654513Y0358706D02*
X0651700Y0358706D01*
X0652138Y0357707D02*
X0654075Y0357707D01*
X0653819Y0356709D02*
X0652394Y0356709D01*
X0652394Y0355710D02*
X0653819Y0355710D01*
X0654097Y0354712D02*
X0652116Y0354712D01*
X0651647Y0353713D02*
X0654566Y0353713D01*
X0655564Y0352715D02*
X0650648Y0352715D01*
X0650686Y0349719D02*
X0655526Y0349719D01*
X0654528Y0348721D02*
X0651685Y0348721D01*
X0652131Y0347722D02*
X0654081Y0347722D01*
X0653819Y0346724D02*
X0652394Y0346724D01*
X0652394Y0345725D02*
X0653819Y0345725D01*
X0654091Y0344727D02*
X0652122Y0344727D01*
X0651662Y0343728D02*
X0654551Y0343728D01*
X0655549Y0342730D02*
X0650663Y0342730D01*
X0650672Y0339734D02*
X0655541Y0339734D01*
X0654543Y0338736D02*
X0651670Y0338736D01*
X0652125Y0337737D02*
X0654087Y0337737D01*
X0653819Y0336739D02*
X0652394Y0336739D01*
X0652394Y0335740D02*
X0653819Y0335740D01*
X0654085Y0334742D02*
X0652128Y0334742D01*
X0651677Y0333743D02*
X0654536Y0333743D01*
X0655535Y0332745D02*
X0650678Y0332745D01*
X0650657Y0329749D02*
X0655556Y0329749D01*
X0660657Y0329749D02*
X0665556Y0329749D01*
X0635556Y0329749D02*
X0630657Y0329749D01*
X0630678Y0332745D02*
X0635535Y0332745D01*
X0634536Y0333743D02*
X0631677Y0333743D01*
X0632128Y0334742D02*
X0634085Y0334742D01*
X0633819Y0335740D02*
X0632394Y0335740D01*
X0632394Y0336739D02*
X0633819Y0336739D01*
X0634087Y0337737D02*
X0632125Y0337737D01*
X0631670Y0338736D02*
X0634543Y0338736D01*
X0635541Y0339734D02*
X0630672Y0339734D01*
X0630663Y0342730D02*
X0635549Y0342730D01*
X0634551Y0343728D02*
X0631662Y0343728D01*
X0632122Y0344727D02*
X0634091Y0344727D01*
X0633819Y0345725D02*
X0632394Y0345725D01*
X0632394Y0346724D02*
X0633819Y0346724D01*
X0634081Y0347722D02*
X0632131Y0347722D01*
X0631685Y0348721D02*
X0634528Y0348721D01*
X0635526Y0349719D02*
X0630686Y0349719D01*
X0630648Y0352715D02*
X0635564Y0352715D01*
X0634566Y0353713D02*
X0631647Y0353713D01*
X0632116Y0354712D02*
X0634097Y0354712D01*
X0633819Y0355710D02*
X0632394Y0355710D01*
X0632394Y0356709D02*
X0633819Y0356709D01*
X0634075Y0357707D02*
X0632138Y0357707D01*
X0631700Y0358706D02*
X0634513Y0358706D01*
X0635511Y0359704D02*
X0630701Y0359704D01*
X0630633Y0362700D02*
X0635579Y0362700D01*
X0634581Y0363699D02*
X0631632Y0363699D01*
X0632109Y0364697D02*
X0634103Y0364697D01*
X0633819Y0365696D02*
X0632394Y0365696D01*
X0632394Y0366694D02*
X0633819Y0366694D01*
X0634069Y0367693D02*
X0632144Y0367693D01*
X0631715Y0368691D02*
X0634498Y0368691D01*
X0635496Y0369690D02*
X0630716Y0369690D01*
X0630618Y0372685D02*
X0635594Y0372685D01*
X0634596Y0373684D02*
X0631617Y0373684D01*
X0632103Y0374682D02*
X0634109Y0374682D01*
X0633819Y0375681D02*
X0632394Y0375681D01*
X0632394Y0376679D02*
X0633819Y0376679D01*
X0634063Y0377678D02*
X0632150Y0377678D01*
X0631730Y0378676D02*
X0634483Y0378676D01*
X0635481Y0379675D02*
X0630731Y0379675D01*
X0630604Y0382670D02*
X0635609Y0382670D01*
X0634610Y0383669D02*
X0631602Y0383669D01*
X0632097Y0384667D02*
X0634116Y0384667D01*
X0633819Y0385666D02*
X0632394Y0385666D01*
X0632394Y0386664D02*
X0633819Y0386664D01*
X0634057Y0387663D02*
X0632156Y0387663D01*
X0631742Y0388661D02*
X0634470Y0388661D01*
X0635467Y0389660D02*
X0630746Y0389660D01*
X0630589Y0392655D02*
X0635624Y0392655D01*
X0634625Y0393654D02*
X0631587Y0393654D01*
X0632091Y0394652D02*
X0634122Y0394652D01*
X0633819Y0395651D02*
X0632394Y0395651D01*
X0632394Y0396649D02*
X0633819Y0396649D01*
X0634050Y0397648D02*
X0632162Y0397648D01*
X0631749Y0398646D02*
X0634464Y0398646D01*
X0635452Y0399645D02*
X0630761Y0399645D01*
X0630574Y0402640D02*
X0635639Y0402640D01*
X0634640Y0403639D02*
X0631572Y0403639D01*
X0632085Y0404637D02*
X0634128Y0404637D01*
X0633819Y0405636D02*
X0632394Y0405636D01*
X0632394Y0406634D02*
X0633819Y0406634D01*
X0634044Y0407633D02*
X0632168Y0407633D01*
X0631755Y0408632D02*
X0634458Y0408632D01*
X0635437Y0409630D02*
X0630776Y0409630D01*
X0630559Y0412626D02*
X0635654Y0412626D01*
X0634655Y0413624D02*
X0631557Y0413624D01*
X0632079Y0414623D02*
X0634134Y0414623D01*
X0633819Y0415621D02*
X0632394Y0415621D01*
X0632394Y0416620D02*
X0633819Y0416620D01*
X0634038Y0417618D02*
X0632175Y0417618D01*
X0631761Y0418617D02*
X0634452Y0418617D01*
X0635422Y0419615D02*
X0630791Y0419615D01*
X0630544Y0422611D02*
X0635669Y0422611D01*
X0634670Y0423609D02*
X0631543Y0423609D01*
X0632072Y0424608D02*
X0634140Y0424608D01*
X0633819Y0425606D02*
X0632394Y0425606D01*
X0632394Y0426605D02*
X0633819Y0426605D01*
X0634032Y0427603D02*
X0632181Y0427603D01*
X0631767Y0428602D02*
X0634445Y0428602D01*
X0635407Y0429600D02*
X0630806Y0429600D01*
X0630521Y0432596D02*
X0635692Y0432596D01*
X0634685Y0433594D02*
X0631528Y0433594D01*
X0632066Y0434593D02*
X0634146Y0434593D01*
X0633819Y0435591D02*
X0632394Y0435591D01*
X0632394Y0436590D02*
X0633819Y0436590D01*
X0634026Y0437588D02*
X0632187Y0437588D01*
X0631773Y0438587D02*
X0634439Y0438587D01*
X0635392Y0439585D02*
X0630820Y0439585D01*
X0630485Y0442581D02*
X0635727Y0442581D01*
X0634700Y0443579D02*
X0631513Y0443579D01*
X0632060Y0444578D02*
X0634153Y0444578D01*
X0633819Y0445576D02*
X0632394Y0445576D01*
X0632394Y0446575D02*
X0633819Y0446575D01*
X0634020Y0447573D02*
X0632193Y0447573D01*
X0631779Y0448572D02*
X0634433Y0448572D01*
X0635377Y0449570D02*
X0630835Y0449570D01*
X0630449Y0452566D02*
X0635763Y0452566D01*
X0634715Y0453565D02*
X0631498Y0453565D01*
X0632054Y0454563D02*
X0634159Y0454563D01*
X0633819Y0455562D02*
X0632394Y0455562D01*
X0632394Y0456560D02*
X0633819Y0456560D01*
X0634013Y0457559D02*
X0632199Y0457559D01*
X0631786Y0458557D02*
X0634427Y0458557D01*
X0635362Y0459556D02*
X0630850Y0459556D01*
X0630413Y0462551D02*
X0635799Y0462551D01*
X0634730Y0463550D02*
X0631483Y0463550D01*
X0632048Y0464548D02*
X0634165Y0464548D01*
X0633819Y0465547D02*
X0632394Y0465547D01*
X0632394Y0466545D02*
X0633819Y0466545D01*
X0634007Y0467544D02*
X0632205Y0467544D01*
X0631792Y0468542D02*
X0634421Y0468542D01*
X0635348Y0469541D02*
X0630865Y0469541D01*
X0630377Y0472536D02*
X0635835Y0472536D01*
X0634744Y0473535D02*
X0631468Y0473535D01*
X0632042Y0474533D02*
X0634171Y0474533D01*
X0633819Y0475532D02*
X0632394Y0475532D01*
X0632394Y0476530D02*
X0633819Y0476530D01*
X0634001Y0477529D02*
X0632212Y0477529D01*
X0631798Y0478527D02*
X0634415Y0478527D01*
X0635333Y0479526D02*
X0630880Y0479526D01*
X0630341Y0482521D02*
X0635871Y0482521D01*
X0634759Y0483520D02*
X0631453Y0483520D01*
X0632035Y0484518D02*
X0634177Y0484518D01*
X0633819Y0485517D02*
X0632394Y0485517D01*
X0632394Y0486515D02*
X0633819Y0486515D01*
X0633995Y0487514D02*
X0632218Y0487514D01*
X0631804Y0488512D02*
X0634409Y0488512D01*
X0635318Y0489511D02*
X0630895Y0489511D01*
X0630305Y0492506D02*
X0635907Y0492506D01*
X0634774Y0493505D02*
X0631438Y0493505D01*
X0632029Y0494503D02*
X0634183Y0494503D01*
X0633819Y0495502D02*
X0632394Y0495502D01*
X0632394Y0496501D02*
X0633819Y0496501D01*
X0633989Y0497499D02*
X0632224Y0497499D01*
X0631810Y0498498D02*
X0634402Y0498498D01*
X0635303Y0499496D02*
X0630910Y0499496D01*
X0630269Y0502492D02*
X0635943Y0502492D01*
X0629756Y0512477D02*
X0587560Y0512477D01*
X0584233Y0509481D02*
X0595288Y0509481D01*
X0594396Y0508483D02*
X0583588Y0508483D01*
X0583263Y0507484D02*
X0593983Y0507484D01*
X0593819Y0506486D02*
X0582939Y0506486D01*
X0582775Y0505487D02*
X0593819Y0505487D01*
X0594190Y0504489D02*
X0582720Y0504489D01*
X0582720Y0503490D02*
X0594789Y0503490D01*
X0595943Y0502492D02*
X0582720Y0502492D01*
X0582720Y0499496D02*
X0595303Y0499496D01*
X0594402Y0498498D02*
X0582720Y0498498D01*
X0582720Y0497499D02*
X0593989Y0497499D01*
X0593819Y0496501D02*
X0582720Y0496501D01*
X0582720Y0495502D02*
X0593819Y0495502D01*
X0594183Y0494503D02*
X0582720Y0494503D01*
X0582720Y0493505D02*
X0594774Y0493505D01*
X0595907Y0492506D02*
X0582720Y0492506D01*
X0582720Y0491508D02*
X0674841Y0491508D01*
X0674840Y0492506D02*
X0670305Y0492506D01*
X0671438Y0493505D02*
X0674774Y0493505D01*
X0674183Y0494503D02*
X0672029Y0494503D01*
X0672394Y0495502D02*
X0673819Y0495502D01*
X0673819Y0496501D02*
X0672394Y0496501D01*
X0672224Y0497499D02*
X0673989Y0497499D01*
X0674402Y0498498D02*
X0671810Y0498498D01*
X0670910Y0499496D02*
X0674840Y0499496D01*
X0674839Y0502492D02*
X0670269Y0502492D01*
X0669065Y0510480D02*
X0676881Y0510480D01*
X0678455Y0512477D02*
X0647057Y0512477D01*
X0659065Y0510480D02*
X0667147Y0510480D01*
X0674842Y0480524D02*
X0582720Y0480524D01*
X0582720Y0479526D02*
X0585333Y0479526D01*
X0585678Y0479871D02*
X0584472Y0478665D01*
X0583819Y0477089D01*
X0583819Y0475383D01*
X0584472Y0473808D01*
X0585678Y0472602D01*
X0587253Y0471949D01*
X0588959Y0471949D01*
X0590535Y0472602D01*
X0591741Y0473808D01*
X0592394Y0475383D01*
X0592394Y0477089D01*
X0591741Y0478665D01*
X0590535Y0479871D01*
X0588959Y0480524D01*
X0587253Y0480524D01*
X0585678Y0479871D01*
X0584415Y0478527D02*
X0582720Y0478527D01*
X0582720Y0477529D02*
X0584001Y0477529D01*
X0583819Y0476530D02*
X0582720Y0476530D01*
X0582720Y0475532D02*
X0583819Y0475532D01*
X0584171Y0474533D02*
X0582720Y0474533D01*
X0582720Y0473535D02*
X0584744Y0473535D01*
X0585835Y0472536D02*
X0582720Y0472536D01*
X0582720Y0471538D02*
X0674843Y0471538D01*
X0674843Y0472536D02*
X0670377Y0472536D01*
X0671468Y0473535D02*
X0674744Y0473535D01*
X0674171Y0474533D02*
X0672042Y0474533D01*
X0672394Y0475532D02*
X0673819Y0475532D01*
X0673819Y0476530D02*
X0672394Y0476530D01*
X0672212Y0477529D02*
X0674001Y0477529D01*
X0674415Y0478527D02*
X0671798Y0478527D01*
X0670880Y0479526D02*
X0674842Y0479526D01*
X0674843Y0470539D02*
X0582720Y0470539D01*
X0582720Y0469541D02*
X0585348Y0469541D01*
X0585678Y0469871D02*
X0584472Y0468665D01*
X0583819Y0467089D01*
X0583819Y0465383D01*
X0584472Y0463808D01*
X0585678Y0462602D01*
X0587253Y0461949D01*
X0588959Y0461949D01*
X0590535Y0462602D01*
X0591741Y0463808D01*
X0592394Y0465383D01*
X0592394Y0467089D01*
X0591741Y0468665D01*
X0590535Y0469871D01*
X0588959Y0470524D01*
X0587253Y0470524D01*
X0585678Y0469871D01*
X0584421Y0468542D02*
X0582720Y0468542D01*
X0582720Y0467544D02*
X0584007Y0467544D01*
X0583819Y0466545D02*
X0582720Y0466545D01*
X0582720Y0465547D02*
X0583819Y0465547D01*
X0584165Y0464548D02*
X0582720Y0464548D01*
X0582720Y0463550D02*
X0584730Y0463550D01*
X0585799Y0462551D02*
X0582720Y0462551D01*
X0582720Y0461553D02*
X0674844Y0461553D01*
X0674844Y0462551D02*
X0670413Y0462551D01*
X0671483Y0463550D02*
X0674730Y0463550D01*
X0674165Y0464548D02*
X0672048Y0464548D01*
X0672394Y0465547D02*
X0673819Y0465547D01*
X0673819Y0466545D02*
X0672394Y0466545D01*
X0672205Y0467544D02*
X0674007Y0467544D01*
X0674421Y0468542D02*
X0671792Y0468542D01*
X0670865Y0469541D02*
X0674843Y0469541D01*
X0674844Y0460554D02*
X0582720Y0460554D01*
X0582720Y0459556D02*
X0585362Y0459556D01*
X0585678Y0459871D02*
X0584472Y0458665D01*
X0583819Y0457089D01*
X0583819Y0455383D01*
X0584472Y0453808D01*
X0585678Y0452602D01*
X0587253Y0451949D01*
X0588959Y0451949D01*
X0590535Y0452602D01*
X0591741Y0453808D01*
X0592394Y0455383D01*
X0592394Y0457089D01*
X0591741Y0458665D01*
X0590535Y0459871D01*
X0588959Y0460524D01*
X0587253Y0460524D01*
X0585678Y0459871D01*
X0584427Y0458557D02*
X0582720Y0458557D01*
X0582720Y0457559D02*
X0584013Y0457559D01*
X0583819Y0456560D02*
X0582720Y0456560D01*
X0582720Y0455562D02*
X0583819Y0455562D01*
X0584159Y0454563D02*
X0582720Y0454563D01*
X0582720Y0453565D02*
X0584715Y0453565D01*
X0585763Y0452566D02*
X0582720Y0452566D01*
X0582720Y0451568D02*
X0674845Y0451568D01*
X0674845Y0452566D02*
X0670449Y0452566D01*
X0671498Y0453565D02*
X0674715Y0453565D01*
X0674159Y0454563D02*
X0672054Y0454563D01*
X0672394Y0455562D02*
X0673819Y0455562D01*
X0673819Y0456560D02*
X0672394Y0456560D01*
X0672199Y0457559D02*
X0674013Y0457559D01*
X0674427Y0458557D02*
X0671786Y0458557D01*
X0670850Y0459556D02*
X0674844Y0459556D01*
X0674846Y0450569D02*
X0582720Y0450569D01*
X0582720Y0449570D02*
X0585377Y0449570D01*
X0585678Y0449871D02*
X0584472Y0448665D01*
X0583819Y0447089D01*
X0583819Y0445383D01*
X0584472Y0443808D01*
X0585678Y0442602D01*
X0587253Y0441949D01*
X0588959Y0441949D01*
X0590535Y0442602D01*
X0591741Y0443808D01*
X0592394Y0445383D01*
X0592394Y0447089D01*
X0591741Y0448665D01*
X0590535Y0449871D01*
X0588959Y0450524D01*
X0587253Y0450524D01*
X0585678Y0449871D01*
X0584433Y0448572D02*
X0582720Y0448572D01*
X0582720Y0447573D02*
X0584020Y0447573D01*
X0583819Y0446575D02*
X0582720Y0446575D01*
X0582720Y0445576D02*
X0583819Y0445576D01*
X0584153Y0444578D02*
X0582720Y0444578D01*
X0582720Y0443579D02*
X0584700Y0443579D01*
X0585727Y0442581D02*
X0582720Y0442581D01*
X0582720Y0441582D02*
X0674847Y0441582D01*
X0674847Y0440584D02*
X0582720Y0440584D01*
X0582720Y0439585D02*
X0585392Y0439585D01*
X0585678Y0439871D02*
X0584472Y0438665D01*
X0583819Y0437089D01*
X0583819Y0435383D01*
X0584472Y0433808D01*
X0585678Y0432602D01*
X0587253Y0431949D01*
X0588959Y0431949D01*
X0590535Y0432602D01*
X0591741Y0433808D01*
X0592394Y0435383D01*
X0592394Y0437089D01*
X0591741Y0438665D01*
X0590535Y0439871D01*
X0588959Y0440524D01*
X0587253Y0440524D01*
X0585678Y0439871D01*
X0584439Y0438587D02*
X0582720Y0438587D01*
X0582720Y0437588D02*
X0584026Y0437588D01*
X0583819Y0436590D02*
X0582720Y0436590D01*
X0582720Y0435591D02*
X0583819Y0435591D01*
X0584146Y0434593D02*
X0582720Y0434593D01*
X0582720Y0433594D02*
X0584685Y0433594D01*
X0585692Y0432596D02*
X0582720Y0432596D01*
X0582720Y0431597D02*
X0674848Y0431597D01*
X0674848Y0430599D02*
X0582720Y0430599D01*
X0582720Y0429600D02*
X0585407Y0429600D01*
X0585678Y0429871D02*
X0584472Y0428665D01*
X0583819Y0427089D01*
X0583819Y0425383D01*
X0584472Y0423808D01*
X0585678Y0422602D01*
X0587253Y0421949D01*
X0588959Y0421949D01*
X0590535Y0422602D01*
X0591741Y0423808D01*
X0592394Y0425383D01*
X0592394Y0427089D01*
X0591741Y0428665D01*
X0590535Y0429871D01*
X0588959Y0430524D01*
X0587253Y0430524D01*
X0585678Y0429871D01*
X0584445Y0428602D02*
X0582720Y0428602D01*
X0582720Y0427603D02*
X0584032Y0427603D01*
X0583819Y0426605D02*
X0582720Y0426605D01*
X0582720Y0425606D02*
X0583819Y0425606D01*
X0584140Y0424608D02*
X0582720Y0424608D01*
X0582720Y0423609D02*
X0584670Y0423609D01*
X0585669Y0422611D02*
X0582720Y0422611D01*
X0582720Y0421612D02*
X0674849Y0421612D01*
X0674849Y0420614D02*
X0582720Y0420614D01*
X0582720Y0419615D02*
X0585422Y0419615D01*
X0585678Y0419871D02*
X0584472Y0418665D01*
X0583819Y0417089D01*
X0583819Y0415383D01*
X0584472Y0413808D01*
X0585678Y0412602D01*
X0587253Y0411949D01*
X0588959Y0411949D01*
X0590535Y0412602D01*
X0591741Y0413808D01*
X0592394Y0415383D01*
X0592394Y0417089D01*
X0591741Y0418665D01*
X0590535Y0419871D01*
X0588959Y0420524D01*
X0587253Y0420524D01*
X0585678Y0419871D01*
X0584452Y0418617D02*
X0582720Y0418617D01*
X0582720Y0417618D02*
X0584038Y0417618D01*
X0583819Y0416620D02*
X0582720Y0416620D01*
X0582720Y0415621D02*
X0583819Y0415621D01*
X0584134Y0414623D02*
X0582720Y0414623D01*
X0582720Y0413624D02*
X0584655Y0413624D01*
X0585654Y0412626D02*
X0582720Y0412626D01*
X0582720Y0411627D02*
X0674850Y0411627D01*
X0674850Y0410629D02*
X0582720Y0410629D01*
X0582720Y0409630D02*
X0585437Y0409630D01*
X0585678Y0409871D02*
X0584472Y0408665D01*
X0583819Y0407089D01*
X0583819Y0405383D01*
X0584472Y0403808D01*
X0585678Y0402602D01*
X0587253Y0401949D01*
X0588959Y0401949D01*
X0590535Y0402602D01*
X0591741Y0403808D01*
X0592394Y0405383D01*
X0592394Y0407089D01*
X0591741Y0408665D01*
X0590535Y0409871D01*
X0588959Y0410524D01*
X0587253Y0410524D01*
X0585678Y0409871D01*
X0584458Y0408632D02*
X0582720Y0408632D01*
X0582720Y0407633D02*
X0584044Y0407633D01*
X0583819Y0406634D02*
X0582720Y0406634D01*
X0582720Y0405636D02*
X0583819Y0405636D01*
X0584128Y0404637D02*
X0582720Y0404637D01*
X0582720Y0403639D02*
X0584640Y0403639D01*
X0585639Y0402640D02*
X0582720Y0402640D01*
X0582720Y0401642D02*
X0674852Y0401642D01*
X0674851Y0402640D02*
X0670574Y0402640D01*
X0671572Y0403639D02*
X0674851Y0403639D01*
X0674851Y0404637D02*
X0672085Y0404637D01*
X0672394Y0405636D02*
X0674851Y0405636D01*
X0674851Y0406634D02*
X0672394Y0406634D01*
X0672168Y0407633D02*
X0674851Y0407633D01*
X0674851Y0408632D02*
X0671755Y0408632D01*
X0670776Y0409630D02*
X0674851Y0409630D01*
X0674850Y0412626D02*
X0670559Y0412626D01*
X0671557Y0413624D02*
X0674850Y0413624D01*
X0674850Y0414623D02*
X0672079Y0414623D01*
X0672394Y0415621D02*
X0674850Y0415621D01*
X0674850Y0416620D02*
X0672394Y0416620D01*
X0672175Y0417618D02*
X0674850Y0417618D01*
X0674850Y0418617D02*
X0671761Y0418617D01*
X0670791Y0419615D02*
X0674849Y0419615D01*
X0674849Y0422611D02*
X0670544Y0422611D01*
X0671543Y0423609D02*
X0674849Y0423609D01*
X0674849Y0424608D02*
X0672072Y0424608D01*
X0672394Y0425606D02*
X0674849Y0425606D01*
X0674849Y0426605D02*
X0672394Y0426605D01*
X0672181Y0427603D02*
X0674848Y0427603D01*
X0674848Y0428602D02*
X0671767Y0428602D01*
X0670806Y0429600D02*
X0674848Y0429600D01*
X0674848Y0432596D02*
X0670521Y0432596D01*
X0671528Y0433594D02*
X0674848Y0433594D01*
X0674848Y0434593D02*
X0672066Y0434593D01*
X0672394Y0435591D02*
X0674847Y0435591D01*
X0674847Y0436590D02*
X0672394Y0436590D01*
X0672187Y0437588D02*
X0674847Y0437588D01*
X0674847Y0438587D02*
X0671773Y0438587D01*
X0670820Y0439585D02*
X0674847Y0439585D01*
X0674847Y0442581D02*
X0670485Y0442581D01*
X0671513Y0443579D02*
X0674700Y0443579D01*
X0674153Y0444578D02*
X0672060Y0444578D01*
X0672394Y0445576D02*
X0673819Y0445576D01*
X0673819Y0446575D02*
X0672394Y0446575D01*
X0672193Y0447573D02*
X0674020Y0447573D01*
X0674433Y0448572D02*
X0671779Y0448572D01*
X0670835Y0449570D02*
X0674846Y0449570D01*
X0674852Y0400643D02*
X0582720Y0400643D01*
X0582720Y0399645D02*
X0585452Y0399645D01*
X0585678Y0399871D02*
X0584472Y0398665D01*
X0583819Y0397089D01*
X0583819Y0395383D01*
X0584472Y0393808D01*
X0585678Y0392602D01*
X0587253Y0391949D01*
X0588959Y0391949D01*
X0590535Y0392602D01*
X0591741Y0393808D01*
X0592394Y0395383D01*
X0592394Y0397089D01*
X0591741Y0398665D01*
X0590535Y0399871D01*
X0588959Y0400524D01*
X0587253Y0400524D01*
X0585678Y0399871D01*
X0584464Y0398646D02*
X0582720Y0398646D01*
X0582720Y0397648D02*
X0584050Y0397648D01*
X0583819Y0396649D02*
X0582720Y0396649D01*
X0582720Y0395651D02*
X0583819Y0395651D01*
X0584122Y0394652D02*
X0582720Y0394652D01*
X0582720Y0393654D02*
X0584625Y0393654D01*
X0585624Y0392655D02*
X0582720Y0392655D01*
X0582720Y0391657D02*
X0674853Y0391657D01*
X0674853Y0392655D02*
X0670589Y0392655D01*
X0671587Y0393654D02*
X0674853Y0393654D01*
X0674852Y0394652D02*
X0672091Y0394652D01*
X0672394Y0395651D02*
X0674852Y0395651D01*
X0674852Y0396649D02*
X0672394Y0396649D01*
X0672162Y0397648D02*
X0674852Y0397648D01*
X0674852Y0398646D02*
X0671749Y0398646D01*
X0670761Y0399645D02*
X0674852Y0399645D01*
X0674853Y0390658D02*
X0582720Y0390658D01*
X0582720Y0389660D02*
X0585467Y0389660D01*
X0585678Y0389871D02*
X0584472Y0388665D01*
X0583819Y0387089D01*
X0583819Y0385383D01*
X0584472Y0383808D01*
X0585678Y0382602D01*
X0587253Y0381949D01*
X0588959Y0381949D01*
X0590535Y0382602D01*
X0591741Y0383808D01*
X0592394Y0385383D01*
X0592394Y0387089D01*
X0591741Y0388665D01*
X0590535Y0389871D01*
X0588959Y0390524D01*
X0587253Y0390524D01*
X0585678Y0389871D01*
X0584470Y0388661D02*
X0582720Y0388661D01*
X0582720Y0387663D02*
X0584057Y0387663D01*
X0583819Y0386664D02*
X0582720Y0386664D01*
X0582720Y0385666D02*
X0583819Y0385666D01*
X0584116Y0384667D02*
X0582720Y0384667D01*
X0582720Y0383669D02*
X0584610Y0383669D01*
X0585609Y0382670D02*
X0582720Y0382670D01*
X0582720Y0381672D02*
X0674854Y0381672D01*
X0674854Y0382670D02*
X0670604Y0382670D01*
X0671602Y0383669D02*
X0674610Y0383669D01*
X0674116Y0384667D02*
X0672097Y0384667D01*
X0672394Y0385666D02*
X0673819Y0385666D01*
X0673819Y0386664D02*
X0672394Y0386664D01*
X0672156Y0387663D02*
X0674057Y0387663D01*
X0674470Y0388661D02*
X0671742Y0388661D01*
X0670746Y0389660D02*
X0674853Y0389660D01*
X0595624Y0392655D02*
X0590589Y0392655D01*
X0591587Y0393654D02*
X0594625Y0393654D01*
X0594122Y0394652D02*
X0592091Y0394652D01*
X0592394Y0395651D02*
X0593819Y0395651D01*
X0593819Y0396649D02*
X0592394Y0396649D01*
X0592162Y0397648D02*
X0594050Y0397648D01*
X0594464Y0398646D02*
X0591749Y0398646D01*
X0590761Y0399645D02*
X0595452Y0399645D01*
X0595639Y0402640D02*
X0590574Y0402640D01*
X0591572Y0403639D02*
X0594640Y0403639D01*
X0594128Y0404637D02*
X0592085Y0404637D01*
X0592394Y0405636D02*
X0593819Y0405636D01*
X0593819Y0406634D02*
X0592394Y0406634D01*
X0592168Y0407633D02*
X0594044Y0407633D01*
X0594458Y0408632D02*
X0591755Y0408632D01*
X0590776Y0409630D02*
X0595437Y0409630D01*
X0595654Y0412626D02*
X0590559Y0412626D01*
X0591557Y0413624D02*
X0594655Y0413624D01*
X0594134Y0414623D02*
X0592079Y0414623D01*
X0592394Y0415621D02*
X0593819Y0415621D01*
X0593819Y0416620D02*
X0592394Y0416620D01*
X0592175Y0417618D02*
X0594038Y0417618D01*
X0594452Y0418617D02*
X0591761Y0418617D01*
X0590791Y0419615D02*
X0595422Y0419615D01*
X0595669Y0422611D02*
X0590544Y0422611D01*
X0591543Y0423609D02*
X0594670Y0423609D01*
X0594140Y0424608D02*
X0592072Y0424608D01*
X0592394Y0425606D02*
X0593819Y0425606D01*
X0593819Y0426605D02*
X0592394Y0426605D01*
X0592181Y0427603D02*
X0594032Y0427603D01*
X0594445Y0428602D02*
X0591767Y0428602D01*
X0590806Y0429600D02*
X0595407Y0429600D01*
X0595692Y0432596D02*
X0590521Y0432596D01*
X0591528Y0433594D02*
X0594685Y0433594D01*
X0594146Y0434593D02*
X0592066Y0434593D01*
X0592394Y0435591D02*
X0593819Y0435591D01*
X0593819Y0436590D02*
X0592394Y0436590D01*
X0592187Y0437588D02*
X0594026Y0437588D01*
X0594439Y0438587D02*
X0591773Y0438587D01*
X0590820Y0439585D02*
X0595392Y0439585D01*
X0595727Y0442581D02*
X0590485Y0442581D01*
X0591513Y0443579D02*
X0594700Y0443579D01*
X0594153Y0444578D02*
X0592060Y0444578D01*
X0592394Y0445576D02*
X0593819Y0445576D01*
X0593819Y0446575D02*
X0592394Y0446575D01*
X0592193Y0447573D02*
X0594020Y0447573D01*
X0594433Y0448572D02*
X0591779Y0448572D01*
X0590835Y0449570D02*
X0595377Y0449570D01*
X0595763Y0452566D02*
X0590449Y0452566D01*
X0591498Y0453565D02*
X0594715Y0453565D01*
X0594159Y0454563D02*
X0592054Y0454563D01*
X0592394Y0455562D02*
X0593819Y0455562D01*
X0593819Y0456560D02*
X0592394Y0456560D01*
X0592199Y0457559D02*
X0594013Y0457559D01*
X0594427Y0458557D02*
X0591786Y0458557D01*
X0590850Y0459556D02*
X0595362Y0459556D01*
X0595799Y0462551D02*
X0590413Y0462551D01*
X0591483Y0463550D02*
X0594730Y0463550D01*
X0594165Y0464548D02*
X0592048Y0464548D01*
X0592394Y0465547D02*
X0593819Y0465547D01*
X0593819Y0466545D02*
X0592394Y0466545D01*
X0592205Y0467544D02*
X0594007Y0467544D01*
X0594421Y0468542D02*
X0591792Y0468542D01*
X0590865Y0469541D02*
X0595348Y0469541D01*
X0595835Y0472536D02*
X0590377Y0472536D01*
X0591468Y0473535D02*
X0594744Y0473535D01*
X0594171Y0474533D02*
X0592042Y0474533D01*
X0592394Y0475532D02*
X0593819Y0475532D01*
X0593819Y0476530D02*
X0592394Y0476530D01*
X0592212Y0477529D02*
X0594001Y0477529D01*
X0594415Y0478527D02*
X0591798Y0478527D01*
X0590880Y0479526D02*
X0595333Y0479526D01*
X0595871Y0482521D02*
X0590341Y0482521D01*
X0591453Y0483520D02*
X0594759Y0483520D01*
X0594177Y0484518D02*
X0592035Y0484518D01*
X0592394Y0485517D02*
X0593819Y0485517D01*
X0593819Y0486515D02*
X0592394Y0486515D01*
X0592218Y0487514D02*
X0593995Y0487514D01*
X0594409Y0488512D02*
X0591804Y0488512D01*
X0590895Y0489511D02*
X0595318Y0489511D01*
X0595467Y0389660D02*
X0590746Y0389660D01*
X0591742Y0388661D02*
X0594470Y0388661D01*
X0594057Y0387663D02*
X0592156Y0387663D01*
X0592394Y0386664D02*
X0593819Y0386664D01*
X0593819Y0385666D02*
X0592394Y0385666D01*
X0592097Y0384667D02*
X0594116Y0384667D01*
X0594610Y0383669D02*
X0591602Y0383669D01*
X0590604Y0382670D02*
X0595609Y0382670D01*
X0595481Y0379675D02*
X0590731Y0379675D01*
X0591730Y0378676D02*
X0594483Y0378676D01*
X0594063Y0377678D02*
X0592150Y0377678D01*
X0592394Y0376679D02*
X0593819Y0376679D01*
X0593819Y0375681D02*
X0592394Y0375681D01*
X0592103Y0374682D02*
X0594109Y0374682D01*
X0594596Y0373684D02*
X0591617Y0373684D01*
X0590618Y0372685D02*
X0595594Y0372685D01*
X0595496Y0369690D02*
X0590716Y0369690D01*
X0591715Y0368691D02*
X0594498Y0368691D01*
X0594069Y0367693D02*
X0592144Y0367693D01*
X0592394Y0366694D02*
X0593819Y0366694D01*
X0593819Y0365696D02*
X0592394Y0365696D01*
X0592109Y0364697D02*
X0594103Y0364697D01*
X0594581Y0363699D02*
X0591632Y0363699D01*
X0590633Y0362700D02*
X0595579Y0362700D01*
X0595511Y0359704D02*
X0590701Y0359704D01*
X0591700Y0358706D02*
X0594513Y0358706D01*
X0594075Y0357707D02*
X0592138Y0357707D01*
X0592394Y0356709D02*
X0593819Y0356709D01*
X0593819Y0355710D02*
X0592394Y0355710D01*
X0592116Y0354712D02*
X0594097Y0354712D01*
X0594566Y0353713D02*
X0591647Y0353713D01*
X0590648Y0352715D02*
X0595564Y0352715D01*
X0595526Y0349719D02*
X0590686Y0349719D01*
X0591685Y0348721D02*
X0594528Y0348721D01*
X0594081Y0347722D02*
X0592131Y0347722D01*
X0592394Y0346724D02*
X0593819Y0346724D01*
X0593819Y0345725D02*
X0592394Y0345725D01*
X0592122Y0344727D02*
X0594091Y0344727D01*
X0594551Y0343728D02*
X0591662Y0343728D01*
X0590663Y0342730D02*
X0595549Y0342730D01*
X0595541Y0339734D02*
X0590672Y0339734D01*
X0591670Y0338736D02*
X0594543Y0338736D01*
X0594087Y0337737D02*
X0592125Y0337737D01*
X0592394Y0336739D02*
X0593819Y0336739D01*
X0593819Y0335740D02*
X0592394Y0335740D01*
X0592128Y0334742D02*
X0594085Y0334742D01*
X0594536Y0333743D02*
X0591677Y0333743D01*
X0590678Y0332745D02*
X0595535Y0332745D01*
X0595556Y0329749D02*
X0590657Y0329749D01*
X0591655Y0328751D02*
X0594557Y0328751D01*
X0594094Y0327752D02*
X0592119Y0327752D01*
X0592394Y0326754D02*
X0593819Y0326754D01*
X0593819Y0325755D02*
X0592394Y0325755D01*
X0592134Y0324757D02*
X0594079Y0324757D01*
X0594521Y0323758D02*
X0591691Y0323758D01*
X0590693Y0322760D02*
X0595520Y0322760D01*
X0588620Y0318766D02*
X0629740Y0318766D01*
X0629740Y0317767D02*
X0609686Y0317767D01*
X0610391Y0317360D02*
X0610391Y0317360D01*
X0610391Y0317360D01*
X0610733Y0316768D02*
X0629740Y0316768D01*
X0629740Y0315770D02*
X0625499Y0315770D01*
X0626481Y0314771D02*
X0629444Y0314771D01*
X0629013Y0313773D02*
X0627000Y0313773D01*
X0620517Y0315770D02*
X0611264Y0315770D01*
X0611264Y0314771D02*
X0619534Y0314771D01*
X0619016Y0313773D02*
X0611073Y0313773D01*
X0610496Y0312774D02*
X0612407Y0312774D01*
X0611018Y0311776D02*
X0609098Y0311776D01*
X0609098Y0310777D02*
X0610362Y0310777D01*
X0609988Y0309779D02*
X0609098Y0309779D01*
X0609098Y0308780D02*
X0609988Y0308780D01*
X0610189Y0307782D02*
X0609098Y0307782D01*
X0609098Y0306783D02*
X0610603Y0306783D01*
X0611599Y0305785D02*
X0609098Y0305785D01*
X0610391Y0312593D02*
X0610391Y0312593D01*
D14*
X0622988Y0312378D02*
X0622988Y0320409D01*
X0618165Y0326217D01*
X0587949Y0326217D01*
X0588008Y0332063D01*
X0588008Y0500685D01*
X0587988Y0500744D02*
X0593323Y0506079D01*
X0618362Y0506079D01*
X0622988Y0511689D01*
X0622988Y0522496D01*
X0633047Y0522457D02*
X0633047Y0512378D01*
X0638165Y0506276D01*
X0628067Y0506276D01*
X0643008Y0512201D02*
X0647929Y0506295D01*
X0673677Y0506295D01*
X0678087Y0506217D01*
X0678126Y0507437D02*
X0678146Y0347319D01*
X0678244Y0346236D02*
X0678244Y0330488D01*
X0673913Y0326157D01*
X0668402Y0326157D01*
X0668205Y0326315D02*
X0648185Y0326295D01*
X0648205Y0326295D02*
X0643067Y0320232D01*
X0643067Y0312417D01*
X0633028Y0312417D02*
X0633028Y0320291D01*
X0628087Y0326217D01*
X0638205Y0326217D01*
X0643008Y0512201D02*
X0643008Y0522516D01*
D15*
X0642929Y0522594D01*
X0623008Y0522531D02*
X0622988Y0522496D01*
X0678126Y0507437D02*
X0678087Y0506295D01*
X0678087Y0506217D01*
D16*
X0678106Y0506236D03*
X0678106Y0496236D03*
X0668106Y0496236D03*
X0658106Y0496236D03*
X0648106Y0496236D03*
X0638106Y0496236D03*
X0628106Y0496236D03*
X0618106Y0496236D03*
X0608106Y0496236D03*
X0608106Y0506236D03*
X0618106Y0506236D03*
X0628106Y0506236D03*
X0638106Y0506236D03*
X0648106Y0506236D03*
X0658106Y0506236D03*
X0668106Y0506236D03*
X0668106Y0486236D03*
X0658106Y0486236D03*
X0648106Y0486236D03*
X0638106Y0486236D03*
X0628106Y0486236D03*
X0618106Y0486236D03*
X0608106Y0486236D03*
X0598106Y0486236D03*
X0588106Y0486236D03*
X0588106Y0476236D03*
X0588106Y0466236D03*
X0598106Y0466236D03*
X0598106Y0476236D03*
X0608106Y0476236D03*
X0608106Y0466236D03*
X0618106Y0466236D03*
X0618106Y0476236D03*
X0628106Y0476236D03*
X0628106Y0466236D03*
X0638106Y0466236D03*
X0638106Y0476236D03*
X0648106Y0476236D03*
X0648106Y0466236D03*
X0658106Y0466236D03*
X0658106Y0476236D03*
X0668106Y0476236D03*
X0668106Y0466236D03*
X0668106Y0456236D03*
X0658106Y0456236D03*
X0648106Y0456236D03*
X0638106Y0456236D03*
X0628106Y0456236D03*
X0618106Y0456236D03*
X0608106Y0456236D03*
X0598106Y0456236D03*
X0588106Y0456236D03*
X0588106Y0446236D03*
X0588106Y0436236D03*
X0598106Y0436236D03*
X0598106Y0446236D03*
X0608106Y0446236D03*
X0608106Y0436236D03*
X0618106Y0436236D03*
X0618106Y0446236D03*
X0628106Y0446236D03*
X0628106Y0436236D03*
X0638106Y0436236D03*
X0638106Y0446236D03*
X0648106Y0446236D03*
X0648106Y0436236D03*
X0658106Y0436236D03*
X0658106Y0446236D03*
X0668106Y0446236D03*
X0668106Y0436236D03*
X0668106Y0426236D03*
X0658106Y0426236D03*
X0648106Y0426236D03*
X0638106Y0426236D03*
X0628106Y0426236D03*
X0618106Y0426236D03*
X0608106Y0426236D03*
X0608106Y0416236D03*
X0618106Y0416236D03*
X0628106Y0416236D03*
X0638106Y0416236D03*
X0648106Y0416236D03*
X0658106Y0416236D03*
X0668106Y0416236D03*
X0668106Y0406236D03*
X0658106Y0406236D03*
X0648106Y0406236D03*
X0638106Y0406236D03*
X0628106Y0406236D03*
X0618106Y0406236D03*
X0608106Y0406236D03*
X0598106Y0406236D03*
X0588106Y0406236D03*
X0588106Y0396236D03*
X0588106Y0386236D03*
X0598106Y0386236D03*
X0598106Y0396236D03*
X0608106Y0396236D03*
X0608106Y0386236D03*
X0618106Y0386236D03*
X0618106Y0396236D03*
X0628106Y0396236D03*
X0628106Y0386236D03*
X0638106Y0386236D03*
X0638106Y0396236D03*
X0648106Y0396236D03*
X0648106Y0386236D03*
X0658106Y0386236D03*
X0658106Y0396236D03*
X0668106Y0396236D03*
X0668106Y0386236D03*
X0668106Y0376236D03*
X0658106Y0376236D03*
X0648106Y0376236D03*
X0638106Y0376236D03*
X0628106Y0376236D03*
X0618106Y0376236D03*
X0608106Y0376236D03*
X0598106Y0376236D03*
X0588106Y0376236D03*
X0588106Y0366236D03*
X0588106Y0356236D03*
X0598106Y0356236D03*
X0598106Y0366236D03*
X0608106Y0366236D03*
X0608106Y0356236D03*
X0618106Y0356236D03*
X0618106Y0366236D03*
X0628106Y0366236D03*
X0628106Y0356236D03*
X0638106Y0356236D03*
X0638106Y0366236D03*
X0648106Y0366236D03*
X0648106Y0356236D03*
X0658106Y0356236D03*
X0658106Y0366236D03*
X0668106Y0366236D03*
X0668106Y0356236D03*
X0668106Y0346236D03*
X0658106Y0346236D03*
X0648106Y0346236D03*
X0638106Y0346236D03*
X0628106Y0346236D03*
X0618106Y0346236D03*
X0608106Y0346236D03*
X0598106Y0346236D03*
X0588106Y0346236D03*
X0588106Y0336236D03*
X0588106Y0326236D03*
X0598106Y0326236D03*
X0598106Y0336236D03*
X0608106Y0336236D03*
X0608106Y0326236D03*
X0618106Y0326236D03*
X0618106Y0336236D03*
X0628106Y0336236D03*
X0628106Y0326236D03*
X0638106Y0326236D03*
X0638106Y0336236D03*
X0648106Y0336236D03*
X0648106Y0326236D03*
X0658106Y0326236D03*
X0658106Y0336236D03*
X0668106Y0336236D03*
X0668106Y0326236D03*
X0678106Y0346236D03*
X0678106Y0356236D03*
X0678106Y0366236D03*
X0678106Y0366236D03*
X0678106Y0376236D03*
X0678106Y0386236D03*
X0678106Y0446236D03*
X0678106Y0456236D03*
X0678106Y0466236D03*
X0678106Y0476236D03*
X0678106Y0486236D03*
X0598106Y0496236D03*
X0598106Y0506236D03*
X0598106Y0426236D03*
X0588106Y0426236D03*
X0588106Y0416236D03*
X0598106Y0416236D03*
M02*
