%
M48
M72
T01C0.03937
T02C0.04000
T03C0.05512
%
T01
X623008Y312339
X633008Y312339
X643008Y312339
X643008Y522531
X633008Y522531
X623008Y522531
T02
X588106Y326236
X588106Y336236
X598106Y336236
X598106Y326236
X608106Y326236
X608106Y336236
X618106Y336236
X618106Y326236
X628106Y326236
X628106Y336236
X638106Y336236
X638106Y326236
X648106Y326236
X648106Y336236
X658106Y336236
X658106Y326236
X668106Y326236
X668106Y336236
X668106Y346236
X658106Y346236
X648106Y346236
X638106Y346236
X628106Y346236
X618106Y346236
X608106Y346236
X598106Y346236
X588106Y346236
X588106Y356236
X588106Y366236
X598106Y366236
X598106Y356236
X608106Y356236
X608106Y366236
X618106Y366236
X618106Y356236
X628106Y356236
X628106Y366236
X638106Y366236
X638106Y356236
X648106Y356236
X648106Y366236
X658106Y366236
X658106Y356236
X668106Y356236
X668106Y366236
X668106Y376236
X658106Y376236
X648106Y376236
X638106Y376236
X628106Y376236
X618106Y376236
X608106Y376236
X598106Y376236
X588106Y376236
X588106Y386236
X588106Y396236
X598106Y396236
X598106Y386236
X608106Y386236
X608106Y396236
X618106Y396236
X618106Y386236
X628106Y386236
X628106Y396236
X638106Y396236
X638106Y386236
X648106Y386236
X648106Y396236
X658106Y396236
X658106Y386236
X668106Y386236
X668106Y396236
X668106Y406236
X658106Y406236
X648106Y406236
X638106Y406236
X628106Y406236
X618106Y406236
X608106Y406236
X598106Y406236
X588106Y406236
X588106Y416236
X588106Y426236
X598106Y426236
X598106Y416236
X608106Y416236
X608106Y426236
X618106Y426236
X618106Y416236
X628106Y416236
X628106Y426236
X638106Y426236
X638106Y416236
X648106Y416236
X648106Y426236
X658106Y426236
X658106Y416236
X668106Y416236
X668106Y426236
X668106Y436236
X658106Y436236
X648106Y436236
X638106Y436236
X628106Y436236
X618106Y436236
X608106Y436236
X608106Y446236
X618106Y446236
X628106Y446236
X638106Y446236
X648106Y446236
X658106Y446236
X668106Y446236
X668106Y456236
X658106Y456236
X648106Y456236
X638106Y456236
X628106Y456236
X618106Y456236
X608106Y456236
X598106Y456236
X588106Y456236
X588106Y446236
X588106Y436236
X598106Y436236
X598106Y446236
X598106Y466236
X588106Y466236
X588106Y476236
X598106Y476236
X598106Y486236
X588106Y486236
X598106Y496236
X598106Y506236
X608106Y506236
X608106Y496236
X618106Y496236
X618106Y506236
X628106Y506236
X628106Y496236
X638106Y496236
X638106Y506236
X648106Y506236
X648106Y496236
X658106Y496236
X658106Y506236
X668106Y506236
X668106Y496236
X668106Y486236
X658106Y486236
X648106Y486236
X638106Y486236
X628106Y486236
X618106Y486236
X608106Y486236
X608106Y476236
X608106Y466236
X618106Y466236
X618106Y476236
X628106Y476236
X628106Y466236
X638106Y466236
X638106Y476236
X648106Y476236
X648106Y466236
X658106Y466236
X658106Y476236
X668106Y476236
X668106Y466236
X678106Y466236
X678106Y476236
X678106Y486236
X678106Y496236
X678106Y506236
X678106Y456236
X678106Y446236
X678106Y386236
X678106Y376236
X678106Y366236
X678106Y366236
X678106Y356236
X678106Y346236
T03
X651984Y309071
X614031Y309071
X614031Y522531
X651984Y522531
M30
